<svg xmlns="http://www.w3.org/2000/svg" viewBox="0 0 3214.88 2829.93"><defs><style>.cls-1{isolation:isolate;}.cls-2{fill:#ecf3fe;}.cls-3{fill:#444;}.cls-4{fill:#3a7ec1;mix-blend-mode:multiply;opacity:0.2;}.cls-5{fill:#f9c067;}.cls-6{fill:#3b82f4;}.cls-7{fill:#b3cef6;}.cls-8{fill:#fff;}.cls-9{fill:#636466;}.cls-10{fill:#f2f2f2;opacity:0.28;}.cls-11{fill:#5b97ef;}.cls-12{fill:#e4ecf9;}.cls-13{fill:#4786d1;}</style></defs><g class="cls-1"><g id="Layer_1" data-name="Layer 1"><path class="cls-2" d="M978.87,2749.05C372,2478.69,167.36,1628.67,412.08,1012.54c271.41-683.33,1011.39-867,1138.56-895.92,442.41-100.41,1215-84.95,1521,425.39,340.12,567.19-147,1327.24-482.92,1669.94C2500.68,2301.79,1717.84,3078.28,978.87,2749.05Z"/><path class="cls-3" d="M2575.86,1986.57,1233.91,1574.93,1572.07,349.49,2962.43,586ZM1247.79,1567.31l1320.23,405L2948.14,595.11,1580.29,362.41Z"/><path class="cls-3" d="M583.33,2801.4l-2.68-5L118.13,1933.68,658.48,1644l90.25,168.3,375,699.42-5,2.68ZM133.5,1938.32,588,2786l520.35-279L738.73,1817.65h0l-84.89-158.3-67.46,36.18Z"/><circle class="cls-4" cx="2839.14" cy="1424.46" r="375.64"/><circle class="cls-5" cx="2801.95" cy="1424.46" r="375.64"/><path class="cls-4" d="M2485.42,1908.06S2884.56,685.39,2873.2,685.39s-133.41-22.71-133.41-22.71Z"/><polygon class="cls-4" points="1749.15 2582.6 2223.18 1828.63 1749.15 1695.9 1749.15 2582.6"/><path class="cls-4" d="M2097,2186.32c-32,0-61.78,7.86-86.71,21.34l-78.92-63.13c13.46-19.26,21.2-41.59,21.2-65.43,0-72.4-71-131.09-158.65-131.09s-158.64,58.69-158.64,131.09,71,131.1,158.64,131.1c43.12,0,82.2-14.24,110.8-37.31l72.86,58.28c-24.4,23-39.23,53.21-39.23,86.25,0,72.4,71,131.1,158.65,131.1s158.64-58.7,158.64-131.1S2184.6,2186.32,2097,2186.32Z"/><polygon class="cls-6" points="990.19 2486.06 459.84 2770.39 0 1912.68 457.88 1667.2 530.35 1628.35 617.92 1791.65 990.19 2486.06"/><path class="cls-7" d="M185.13,1925.77l21.12-11.3-9.06-16.89-62.59,33.58,9,16.86,21.26-11.38,36.67,68.41,20.24-10.85Z"/><path class="cls-7" d="M297.31,1898.69c-6.16-11.44-14.62-20-25.47-25.64s-22.16-5.28-34.09,1.11q-17.67,9.45-20.52,27.08t7.18,36.31q9.84,18.35,26.2,26.22t33.58-1.33q18-9.66,20.52-27.42C306.42,1923.18,303.92,1911.06,297.31,1898.69ZM276,1945.81q-15.72,8.43-30.55-19.25t.91-36q15.21-8.13,30.06,19.53T276,1945.81Z"/><path class="cls-7" d="M412.21,1837q-7.83-14.57-19.1-20.78t-21.46-6.44q-10.18-.23-26.09,8.31l-26,14,45.73,85.27,29.35-15.73q18.94-10.17,23.19-28.24T412.21,1837Zm-15.87,32.5q-.93,11-11.83,16.83l-8.24,4.43-28.69-53.53,8.4-4.52a23.7,23.7,0,0,1,12.2-3.15c3.95.17,8.12,1.93,12.49,5.22a38.79,38.79,0,0,1,10.7,12.72C395.29,1854.8,397,1862.13,396.34,1869.45Z"/><path class="cls-7" d="M494,1793.21a60.06,60.06,0,0,0-25.43-25.64,32.79,32.79,0,0,0-19.67-3.71,41,41,0,0,0-14.42,4.79q-17.67,9.49-20.52,27.11t7.15,36.31q7.75,14.39,19.44,22.31a50.06,50.06,0,0,0,6.79,3.91q16.35,7.89,33.58-1.36,18-9.62,20.52-27.39T494,1793.21Zm-21.26,47.12q-15.06,8.09-29.32-17.06c-.42-.71-.82-1.45-1.22-2.19q-14.82-27.63.91-36a15,15,0,0,1,4-1.5q13.15-3,26.06,21Q488,1832.19,472.78,1840.33Z"/><circle class="cls-7" cx="242.83" cy="2121.86" r="53.93" transform="translate(-399.28 84.96) rotate(-10.97)"/><path class="cls-7" d="M608.53,1951.27l-264.69,141.9a22.44,22.44,0,0,1-30.38-9.17h0a22.44,22.44,0,0,1,9.18-30.38l264.68-141.9a22.43,22.43,0,0,1,30.38,9.17h0A22.44,22.44,0,0,1,608.53,1951.27Z"/><circle class="cls-7" cx="320.49" cy="2266.73" r="53.93" transform="translate(-29.71 4.4) rotate(-0.75)"/><path class="cls-7" d="M686.19,2096.13,421.51,2238a22.46,22.46,0,0,1-30.39-9.18h0a22.45,22.45,0,0,1,9.18-30.38L665,2056.58a22.45,22.45,0,0,1,30.39,9.17h0A22.45,22.45,0,0,1,686.19,2096.13Z"/><circle class="cls-7" cx="398.16" cy="2411.59" r="53.93"/><path class="cls-7" d="M763.85,2241,499.17,2382.9a22.44,22.44,0,0,1-30.38-9.18h0a22.44,22.44,0,0,1,9.17-30.38l264.69-141.9a22.44,22.44,0,0,1,30.38,9.17h0A22.44,22.44,0,0,1,763.85,2241Z"/><circle class="cls-7" cx="475.82" cy="2556.45" r="53.93"/><path class="cls-7" d="M841.52,2385.86l-264.69,141.9a22.44,22.44,0,0,1-30.38-9.18h0a22.44,22.44,0,0,1,9.17-30.38l264.69-141.9a22.43,22.43,0,0,1,30.38,9.18h0A22.44,22.44,0,0,1,841.52,2385.86Z"/><polygon class="cls-4" points="617.92 1791.65 547.1 1933.29 512.3 2002.89 419.68 2188.1 407.53 2212.37 409.26 2193.69 422.43 2051.06 427.37 1997.47 440.6 1854.38 443.46 1823.27 447.12 1783.53 448.94 1763.86 457.88 1667.2 530.35 1628.35 617.92 1791.65"/><path class="cls-8" d="M2701.37,1605.12A52.83,52.83,0,0,1,2665.6,1586l-101.46-123.49a53,53,0,0,1,81.87-67.26l67.83,82.56L2925,1304.32a53,53,0,1,1,67.26,81.87l-252.12,207.15A52.86,52.86,0,0,1,2701.37,1605.12Z"/><path class="cls-9" d="M2140,2382.38a19.22,19.22,0,0,1-1.33-27.13c18.44-20.35-12.51-52.38-12.82-52.7l-451-408.6a19.2,19.2,0,1,1,25.79-28.46l451.83,409.39c20.47,20.83,48.66,68.66,14.67,106.16A19.21,19.21,0,0,1,2140,2382.38Z"/><path class="cls-9" d="M1691.73,1976.18a19.21,19.21,0,0,0,27.13-1.33c18.45-20.36,53.36,7.29,53.71,7.58l451,408.65a19.2,19.2,0,1,0,25.79-28.46l-451.83-409.39c-22.74-18.33-73.11-41.68-107.09-4.17A19.21,19.21,0,0,0,1691.73,1976.18Z"/><circle class="cls-10" cx="1793.91" cy="1975.89" r="143.24" transform="translate(-871.74 1847.21) rotate(-45)"/><circle class="cls-10" cx="2132.26" cy="2282.46" r="143.24" transform="translate(-989.42 2176.25) rotate(-45)"/><path class="cls-9" d="M2244,2159.12c-55.6-50.38-136.38-56-197.47-19.28a126.64,126.64,0,0,0-102.28-92.68c30.54-64.41,17.1-144.15-38.6-194.61-68-61.64-173.55-56.35-235.1,11.59s-56.45,173.46,11.58,235.1a166.73,166.73,0,0,0,235.11-11.59c1.2-1.33,2.49-2.75,3.6-4.16,3.9.08,7.71.25,11.54.61,19.78,2.19,37.56,9.84,51.32,22.31s23.11,29.4,27.24,48.87a100.16,100.16,0,0,1,1.66,11.52c-1.3,1.25-2.5,2.57-3.71,3.9a168.09,168.09,0,0,0-40.36,141.22,169.83,169.83,0,0,0,5.11,20.87,165,165,0,0,0,46.84,73c68,61.64,173.46,56.45,235.1-11.58S2312,2220.76,2244,2159.12Zm-456-55.4a128,128,0,1,1,91.9-222.71c47.35,42.9,55.08,113.5,20.93,165.31l-.09.09a120.24,120.24,0,0,1-11.93,15.45,109.85,109.85,0,0,1-8,8.11,125.21,125.21,0,0,1-61.09,31.19A128.2,128.2,0,0,1,1788,2103.72Zm258.31,273.62a127,127,0,0,1-40.66-76.4,128.61,128.61,0,0,1-.57-31.79,125.32,125.32,0,0,1,25-63.87,112.26,112.26,0,0,1,7.28-8.79,121.26,121.26,0,0,1,14.2-13.39l.09-.09c48.2-39.09,119.21-38.33,166.55,4.57a128,128,0,1,1-171.93,189.76Z"/><path class="cls-8" d="M2839.14,628.62l-350.2,1268.77a112.49,112.49,0,1,1-216.87-59.85l63.41-229.79L1210.75,1297.37,1460,394Z"/><path class="cls-4" d="M2390.28,880.33l-7.83,28.37-989.13-273,28.27-102.42C1590.39,593.13,2390.28,880.33,2390.28,880.33Z"/><path class="cls-4" d="M2455.55,910.7a152.26,152.26,0,0,0-99.69,6.37L2209,1449.18l158.15,43.64-95.12,344.73c-11.33,41-5,81.22,13.68,106.2,29.18-12.1,55.61-44.28,67.25-86.45L2447.45,1515l113-409.5,1.84-6.66A153,153,0,0,0,2455.55,910.7Z"/><path class="cls-11" d="M2350.57,1975.93,1160.2,1647.44a156.93,156.93,0,0,1-109.51-193l242-876.94L2231,836.41l-40.68,147.43a152.16,152.16,0,0,1,61-85.49c3.53-2.44,7.19-4.73,10.93-6.85a152.94,152.94,0,0,1,222.91,173.71l-213.13,772.33A112.51,112.51,0,0,0,2350.57,1975.93Z"/><path class="cls-6" d="M2166.78,1925.21l-219.5-60.57,244-884.19a151.92,151.92,0,0,1,60.08-82.07c76,25.67,120,107.23,98.4,185.48l-204.28,740.27A112.45,112.45,0,0,0,2166.78,1925.21Z"/><path class="cls-8" d="M1749.15,2582.6,2190.33,983.83a153,153,0,0,1,188.13-106.75L1035.69,506.54A151.8,151.8,0,0,0,849,612.5L407.51,2212.37Z"/><circle class="cls-12" cx="993.87" cy="836.38" r="72.27" transform="translate(-300.31 947.74) rotate(-45)"/><path class="cls-12" d="M1974.44,1144.46l-830-229a35.47,35.47,0,0,1-24.68-43.5l.41-1.49a35.46,35.46,0,0,1,43.49-24.68l830,229a35.48,35.48,0,0,1,24.68,43.5l-.42,1.49A35.45,35.45,0,0,1,1974.44,1144.46Z"/><circle class="cls-12" cx="927.96" cy="1075.23" r="72.27"/><path class="cls-12" d="M1908.53,1383.31l-830-229a35.45,35.45,0,0,1-24.67-43.49l.41-1.49a35.45,35.45,0,0,1,43.49-24.68l830,229a35.48,35.48,0,0,1,24.68,43.49l-.42,1.5A35.46,35.46,0,0,1,1908.53,1383.31Z"/><circle class="cls-12" cx="862.04" cy="1314.08" r="72.27"/><rect class="cls-12" x="971.34" y="1436.66" width="931.76" height="72.27" rx="35.36" transform="translate(443.57 -329.25) rotate(15.43)"/><circle class="cls-12" cx="796.13" cy="1552.92" r="72.27" transform="translate(-864.9 1017.79) rotate(-45)"/><path class="cls-12" d="M1776.71,1861l-830-229a35.48,35.48,0,0,1-24.68-43.5l.42-1.49a35.46,35.46,0,0,1,43.49-24.68l830,229a35.45,35.45,0,0,1,24.68,43.49l-.41,1.49A35.45,35.45,0,0,1,1776.71,1861Z"/><circle class="cls-12" cx="730.22" cy="1791.77" r="72.27" transform="translate(-1053.1 1041.14) rotate(-45)"/><path class="cls-12" d="M1710.8,2099.85l-830-229a35.47,35.47,0,0,1-24.68-43.49l.42-1.49A35.45,35.45,0,0,1,900,1801.14l830,229a35.46,35.46,0,0,1,24.68,43.49l-.41,1.5A35.46,35.46,0,0,1,1710.8,2099.85Z"/><circle class="cls-12" cx="664.31" cy="2030.62" r="72.27" transform="translate(-1241.29 1064.49) rotate(-45)"/><path class="cls-12" d="M1644.89,2338.7l-830-229a35.46,35.46,0,0,1-24.68-43.49l.41-1.5A35.48,35.48,0,0,1,834.1,2040l830,229.05a35.45,35.45,0,0,1,24.68,43.49l-.41,1.5A35.47,35.47,0,0,1,1644.89,2338.7Z"/><path class="cls-5" d="M893.72,1118.44a19.31,19.31,0,0,1-11.69-9.11l-28.82-50.79a19.36,19.36,0,1,1,33.67-19.11l19.27,34,86.87-49.3a19.36,19.36,0,0,1,19.11,33.68l-103.71,58.85A19.32,19.32,0,0,1,893.72,1118.44Z"/><path class="cls-5" d="M765.79,1582a19.25,19.25,0,0,1-11.69-9.1l-28.83-50.8A19.36,19.36,0,0,1,759,1503l19.27,34,86.87-49.29a19.36,19.36,0,0,1,19.11,33.67l-103.71,58.85A19.27,19.27,0,0,1,765.79,1582Z"/><path class="cls-5" d="M697.93,1827.93a19.33,19.33,0,0,1-11.69-9.11L657.42,1768a19.36,19.36,0,0,1,33.67-19.11l19.27,34,86.87-49.3a19.36,19.36,0,1,1,19.11,33.68l-103.71,58.85A19.32,19.32,0,0,1,697.93,1827.93Z"/><path class="cls-5" d="M634,2059.73a19.32,19.32,0,0,1-11.68-9.11l-28.83-50.79a19.36,19.36,0,1,1,33.68-19.11l19.27,34,86.87-49.3a19.36,19.36,0,0,1,19.11,33.68l-103.71,58.85A19.34,19.34,0,0,1,634,2059.73Z"/><circle class="cls-13" cx="1767.87" cy="86.69" r="86.69"/><circle class="cls-13" cx="102.2" cy="1241.79" r="71.1" transform="translate(-1132.9 1077.43) rotate(-77.71)"/><circle class="cls-13" cx="2679.43" cy="2410.48" r="86.69"/></g></g></svg>