<svg id="图层_1" data-name="图层 1" xmlns="http://www.w3.org/2000/svg" viewBox="0 0 359.8 373.02"><defs><style>.cls-1{fill:#1174eb;}.cls-2,.cls-4,.cls-5{fill:#fff;}.cls-2,.cls-5{isolation:isolate;}.cls-2{opacity:0.7;}.cls-3{fill:#263238;}.cls-5{opacity:0.3;}</style></defs><g id="freepik--background-simple--inject-108"><g id="freepik--simple-background--inject-108"><path class="cls-1" d="M187.82,44.4c-5.7-1.6-11.5-3.2-17.3-4.6-18.3-4.4-37.4-5.4-56.2-4.4-39.9,2.1-57.2,22.9-43.5,42.3S102,117.3,83.12,136-6.78,171.4.52,204.7s71,38.2,66,59.7-37.6,27.8-21.7,56.9,74.6,3.5,93.5,18.7,29,27.8,60.1,32.6,53.6-33.3,87-47.9,67.4-19.4,73.9-53.4-55.8-56.2-52.9-90.9c1.5-17.3,13.3-30.9,22.6-44.7,15.6-23.4,28.5-65.6-6-79.4-15-6-32.2-4.4-48-4-16.4.3-33.5,2.2-49.8.4C212.42,51.2,200.12,47.8,187.82,44.4Z"/><path class="cls-2" d="M187.82,44.4c-5.7-1.6-11.5-3.2-17.3-4.6-18.3-4.4-37.4-5.4-56.2-4.4-39.9,2.1-57.2,22.9-43.5,42.3S102,117.3,83.12,136-6.78,171.4.52,204.7s71,38.2,66,59.7-37.6,27.8-21.7,56.9,74.6,3.5,93.5,18.7,29,27.8,60.1,32.6,53.6-33.3,87-47.9,67.4-19.4,73.9-53.4-55.8-56.2-52.9-90.9c1.5-17.3,13.3-30.9,22.6-44.7,15.6-23.4,28.5-65.6-6-79.4-15-6-32.2-4.4-48-4-16.4.3-33.5,2.2-49.8.4C212.42,51.2,200.12,47.8,187.82,44.4Z"/></g></g><g id="freepik--Icons--inject-108"><g id="freepik--icons--inject-108-2" data-name="freepik--icons--inject-108"><path class="cls-3" d="M330,252.9a17.11,17.11,0,0,0-17,17c0,9.4,17,27,17,27s17-17.7,17-27A17,17,0,0,0,330,252.9Zm0,23a7.15,7.15,0,1,1,7.1-7.2h0a7,7,0,0,1-7.1,7.2Z"/><path class="cls-3" d="M330,297.4c-.1,0-.3-.1-.4-.1-.7-.7-17.1-17.9-17.1-27.4a17.45,17.45,0,0,1,34.9,0c0,9.5-16.4,26.7-17.1,27.4A1,1,0,0,1,330,297.4Zm0-44a16.58,16.58,0,0,0-16.5,16.5c0,8.3,14,23.7,16.5,26.3,2.4-2.6,16.5-18,16.5-26.3A16.52,16.52,0,0,0,330,253.4Zm0,23a7.65,7.65,0,1,1,7.6-7.7h0a7.62,7.62,0,0,1-7.6,7.7Zm0-14.3a6.65,6.65,0,1,0,6.6,6.7h0a6.62,6.62,0,0,0-6.6-6.7Z"/><path class="cls-3" d="M120.22,25.6c-7.8-4.1-18.2-4.9-27.7-2.1s-18,9.2-22.3,17a2.62,2.62,0,0,0,1,3.5,2.75,2.75,0,0,0,2,.2,2.29,2.29,0,0,0,1.5-1.2c3.7-6.6,10.8-12.1,19.2-14.5s17.2-1.8,23.8,1.7a2.54,2.54,0,0,0,3.5-1.1,2.48,2.48,0,0,0-1-3.5Z"/><path class="cls-3" d="M115.52,34.7a30.28,30.28,0,0,0-36.4,10.8,2.58,2.58,0,0,0,.7,3.6,2.76,2.76,0,0,0,2.2.3,2.43,2.43,0,0,0,1.4-1,25.21,25.21,0,0,1,30.1-8.9,2.56,2.56,0,0,0,3.4-1.3,2.6,2.6,0,0,0-1.4-3.5Z"/><path class="cls-3" d="M110.82,43.8a18.78,18.78,0,0,0-23,7.1,2.59,2.59,0,0,0,4.3,2.9,13.63,13.63,0,0,1,16.8-5.2,2.58,2.58,0,0,0,1.9-4.8Z"/><path class="cls-3" d="M100.82,51.8a6.2,6.2,0,1,0,7.7,4.2,6.17,6.17,0,0,0-7.7-4.2Z"/><path class="cls-3" d="M329.62,81.5h-44.7a6.59,6.59,0,0,0-6.6,6.6V112a6.59,6.59,0,0,0,6.6,6.6h1.4c-1.4,3.1-4.1,7.8-8.4,10.6,0,0,9.1-.6,18.5-10.6h33.1a6.59,6.59,0,0,0,6.6-6.6V88.1A6.51,6.51,0,0,0,329.62,81.5Z"/><path class="cls-3" d="M278,129.7a.55.55,0,0,1-.5-.3.48.48,0,0,1,.2-.6c3.8-2.5,6.3-6.5,7.8-9.6h-.6a7.13,7.13,0,0,1-7.1-7.1V88.2a7.13,7.13,0,0,1,7.1-7.1h44.7a7.13,7.13,0,0,1,7.1,7.1V112a7.13,7.13,0,0,1-7.1,7.1h-32.9c-9.4,9.8-18.3,10.5-18.7,10.6Zm6.9-47.7a6.06,6.06,0,0,0-6.1,6.1V112a6.06,6.06,0,0,0,6.1,6.1h1.4a.47.47,0,0,1,.5.5c0,.1,0,.2-.1.2a27.68,27.68,0,0,1-6.8,9.5c3.2-.8,9.6-3.1,16.1-10a.52.52,0,0,1,.4-.2h33.1a6.06,6.06,0,0,0,6.1-6.1V88.1a6.06,6.06,0,0,0-6.1-6.1Z"/><path class="cls-4" d="M299.62,99.2a3.4,3.4,0,1,0-3.4,3.4h0a3.44,3.44,0,0,0,3.4-3.4Z"/><circle class="cls-4" cx="307.82" cy="99.2" r="3.4"/><path class="cls-4" d="M322.72,99.2a3.4,3.4,0,1,0-3.4,3.4,3.37,3.37,0,0,0,3.4-3.4Z"/><circle class="cls-3" cx="20.42" cy="211.5" r="17.7" transform="translate(-20.61 3.02) rotate(-5.62)"/><path class="cls-3" d="M20.42,229.6a18.2,18.2,0,1,1,18.2-18.2,18.2,18.2,0,0,1-18.2,18.2Zm0-35.3a17.2,17.2,0,1,0,17.2,17.2,17.2,17.2,0,0,0-17.2-17.2Z"/><polygon class="cls-4" points="12.52 200.4 31.52 211.5 12.52 222.5 12.52 200.4"/><path class="cls-3" d="M12.52,223c-.1,0-.2,0-.2-.1-.2-.1-.3-.3-.2-.4v-22a.52.52,0,0,1,.2-.4.45.45,0,0,1,.5,0l19.1,11a.57.57,0,0,1,.2.7.22.22,0,0,1-.2.2l-19.1,11Zm.5-21.6v20.3l17.6-10.1Z"/><path class="cls-3" d="M62.62,345.3a16,16,0,0,1-8.8-2.4c-12.6-7.6-20.1-18.8-23.2-33.1a19.15,19.15,0,0,1-.3-8.9,13,13,0,0,1,9.8-10.1,3.68,3.68,0,0,1,4.6,2.1,88.29,88.29,0,0,1,3,10,3.13,3.13,0,0,1-2,3.6,37.6,37.6,0,0,1-4.6,2,1.56,1.56,0,0,0-1.2,1.8h0c0,.2.1.3.2.5A56.21,56.21,0,0,0,53.82,332c.9.9,1.6.7,2.4-.2a27.34,27.34,0,0,1,3.5-3.3,3.5,3.5,0,0,1,4.6,0q3.6,2.7,6.9,5.7c2.5,2.5,2.4,4.9-.2,7.3A11.77,11.77,0,0,1,62.62,345.3Z"/><path class="cls-3" d="M62.62,345.8h0a17.58,17.58,0,0,1-9-2.4c-12.3-7.4-20.2-18.6-23.5-33.4a20.4,20.4,0,0,1-.3-9.2,13.71,13.71,0,0,1,10.1-10.5,4.21,4.21,0,0,1,5.2,2.4,89.91,89.91,0,0,1,3,10.1,3.67,3.67,0,0,1-2.3,4.2c-1.5.7-3,1.4-4.6,2-.9.3-1.1.7-.7,1.6a55.23,55.23,0,0,0,13.6,21,2.18,2.18,0,0,0,.8.5q.3,0,.9-.6a29,29,0,0,1,3.6-3.4,4,4,0,0,1,5.2,0l.9.7a73.37,73.37,0,0,1,6,5.1,5.53,5.53,0,0,1,2,3.9,5.88,5.88,0,0,1-2.1,4.1,13,13,0,0,1-8.8,3.9Zm-21.3-54.6c-.4,0-.7.1-1.1.1a12.46,12.46,0,0,0-9.4,9.7,18.27,18.27,0,0,0,.3,8.7c3.2,14.5,11,25.5,23,32.8a15.13,15.13,0,0,0,8.5,2.3,11.6,11.6,0,0,0,8.1-3.5,5,5,0,0,0,1.8-3.4,4.64,4.64,0,0,0-1.7-3.2,68,68,0,0,0-5.9-5L64,329a3,3,0,0,0-4,.1,20.75,20.75,0,0,0-3.4,3.2,2.2,2.2,0,0,1-1.6.9,2,2,0,0,1-1.5-.7,56,56,0,0,1-13.8-21.4,2,2,0,0,1,.8-2.7h0c.2-.1.3-.1.5-.2a46.84,46.84,0,0,0,4.5-2,2.72,2.72,0,0,0,1.8-3,88.29,88.29,0,0,0-3-10A3.32,3.32,0,0,0,41.32,291.2Z"/><path class="cls-3" d="M80.32,316.1c-.2,1.6-.3,3.2-.6,4.8a2.37,2.37,0,0,1-2.6,2.1h0c-.1,0-.3-.1-.4-.1-1.3-.3-2-1.5-1.7-3.2a20,20,0,0,0-14.7-23,5,5,0,0,1-1.3-.4,2.26,2.26,0,0,1-1.4-2.7,2.15,2.15,0,0,1,2.4-1.9h.2a36.85,36.85,0,0,1,6.4,2.1A25.08,25.08,0,0,1,80.32,316.1Z"/><path class="cls-3" d="M77.32,323.5a2,2,0,0,1-.8-.1,3,3,0,0,1-2.1-3.7,19.4,19.4,0,0,0-14.3-22.4l-.4-.1-1.1-.3a2.78,2.78,0,0,1-1.7-3.2,3,3,0,0,1,1.3-2,2.36,2.36,0,0,1,2-.3,31.13,31.13,0,0,1,6.5,2.2,25.22,25.22,0,0,1,14,22.6v.1c-.1.5-.1,1-.2,1.5a21.49,21.49,0,0,1-.5,3.4,3.17,3.17,0,0,1-1.3,2.1C78.42,323.3,77.92,323.5,77.32,323.5Zm-17.7-31.3a2.35,2.35,0,0,0-.8.2,2.22,2.22,0,0,0-.8,1.3,2,2,0,0,0,1.1,2.2,2.92,2.92,0,0,0,.9.2l.4.1a20.43,20.43,0,0,1,15,23.5,2.13,2.13,0,0,0,1.3,2.6,1.84,1.84,0,0,0,1.6-.2,2.14,2.14,0,0,0,.9-1.5c.2-1.1.3-2.2.5-3.3.1-.5.1-1,.2-1.4a24.54,24.54,0,0,0-13.5-21.7,33.29,33.29,0,0,0-6.3-2.1c-.2.2-.3.2-.5.1Z"/><path class="cls-3" d="M72,317.3c-.1.6-.2,1.8-.4,2.9a2.45,2.45,0,0,1-2.7,2.1h-.1a2.52,2.52,0,0,1-2-3h0a21.58,21.58,0,0,0,.1-4.4c-.9-5.5-4.2-9.1-9.6-10.6-1.8-.5-2.7-1.6-2.3-3s1.7-2.1,3.5-1.8C66.22,301.2,72,308.7,72,317.3Z"/><path class="cls-3" d="M69.32,322.8h-.5a3.13,3.13,0,0,1-2.5-3.5h0c0-.3.1-.6.1-1a18.19,18.19,0,0,0,0-3.3q-1.35-8-9.3-10.2c-2-.6-3.1-2-2.7-3.6s2-2.6,4.1-2.1c8.1,1.8,14,9.4,14,18.3v.1a1.27,1.27,0,0,1-.1.6c-.1.6-.2,1.5-.3,2.3A2.8,2.8,0,0,1,69.32,322.8Zm-11.9-22.9a1.85,1.85,0,0,0-2,1.5c-.4,1.6,1.3,2.2,2,2.4,5.6,1.6,9,5.3,10,11a21.64,21.64,0,0,1,0,3.6c0,.3-.1.6-.1.9a1.92,1.92,0,0,0,1.5,2.4h.1a2,2,0,0,0,2.2-1.6h0V320c.2-.8.2-1.6.3-2.2a1.27,1.27,0,0,1,.1-.6c0-8.3-5.5-15.6-13.2-17.2C58,300,57.72,299.9,57.42,299.9Z"/><path class="cls-3" d="M58.82,318.1a5.51,5.51,0,0,0-4.3-6.1c-1.7-.5-2.5-1.7-2.1-3.2s1.7-2,3.5-1.5a10.59,10.59,0,0,1,7.7,11.8q-.45,2.7-2.7,2.4t-2.1-3Z"/><path class="cls-3" d="M61.22,322.1h-.4c-1.8-.2-2.7-1.5-2.5-3.5v-.4a5.16,5.16,0,0,0-3.9-5.6c-2-.6-2.9-2.1-2.4-3.8s2.1-2.4,4.1-1.9a11.14,11.14,0,0,1,8.1,12.4C63.82,321.1,62.72,322.1,61.22,322.1Zm-6.4-14.5a1.75,1.75,0,0,0-1.9,1.4c-.3,1.2.3,2.1,1.8,2.6a6,6,0,0,1,4.6,6.6h0v.4c-.1,2.3,1.2,2.4,1.6,2.5.8.1,1.9,0,2.2-2a10.06,10.06,0,0,0-7.3-11.3C55.52,307.7,55.12,307.7,54.82,307.6Z"/><path class="cls-4" d="M44.82,307.1a.55.55,0,0,1-.5-.3l-.6-1.6a.62.62,0,0,1,.2-.7.66.66,0,0,1,.7.2h0v.1l.6,1.6c.1.3-.1.5-.4.7Z"/><path class="cls-4" d="M43.62,303.7a.55.55,0,0,1-.5-.3l-4-11.3a.61.61,0,0,1,.3-.7h0a.52.52,0,0,1,.7.3h0l4,11.3a.42.42,0,0,1-.3.6A.31.31,0,0,1,43.62,303.7Z"/><path class="cls-4" d="M71.82,341.1a.37.37,0,0,1-.3-.1l-9.7-8.5a.5.5,0,1,1,.6-.8l9.7,8.5a.48.48,0,0,1,0,.7h0C72.12,341,72,341.1,71.82,341.1Z"/><path class="cls-4" d="M61.12,331.7a.37.37,0,0,1-.3-.1l-1.6-1.4a.48.48,0,0,1,0-.7h0a.62.62,0,0,1,.7-.1h0l1.6,1.4a.48.48,0,0,1,0,.7C61.32,331.6,61.22,331.7,61.12,331.7Z"/></g></g><g id="freepik--paper-plane--inject-108"><g id="freepik--paper-plane--inject-108-2" data-name="freepik--paper-plane--inject-108"><path class="cls-3" d="M137,366.7h-1.4a.5.5,0,0,1,0-1h2a.5.5,0,0,1,0,1Zm3.6,0a.5.5,0,0,1,0-1h2a.5.5,0,0,1,0,1h-2Zm-8,0h-2a.5.5,0,0,1,0-1h2a.47.47,0,0,1,.5.5h0a1.21,1.21,0,0,1-.5.5Zm13-.1a.5.5,0,0,1,0-1l2-.1a.5.5,0,0,1,0,1h0l-2,.1Zm-18-.1h0l-2-.1a.54.54,0,0,1-.5-.5.64.64,0,0,1,.5-.5l2,.1a.47.47,0,0,1,.5.5h0a.47.47,0,0,1-.5.5Zm23-.1a.5.5,0,0,1,0-1h0l2-.1a.47.47,0,0,1,.5.5.46.46,0,0,1-.4.5h0a14.77,14.77,0,0,0-2.1.1Zm-28-.2h0l-2-.1a.5.5,0,0,1,0-1l2,.1a.54.54,0,0,1,.5.5h0a.47.47,0,0,1-.5.5Zm33-.2a.5.5,0,0,1,0-1l2-.1a.47.47,0,0,1,.5.5h0a.46.46,0,0,1-.4.5h0l-2.1.1Zm-37.9-.2h0c-.7-.1-1.3-.1-2-.2a.51.51,0,0,1,.2-1l2,.2a.47.47,0,0,1,.5.5h0c-.2.3-.4.5-.7.5Zm42.9-.2a.47.47,0,0,1-.5-.5.46.46,0,0,1,.4-.5h0l2-.2a.46.46,0,0,1,.5.4h0a.46.46,0,0,1-.4.5h0l-2,.3Zm-47.9-.4h0l-2.1-.3c-.3-.1-.5-.3-.4-.6a.44.44,0,0,1,.6-.4l2,.3c.3,0,.4.3.4.5a.54.54,0,0,1-.5.5Zm52.8-.1a.47.47,0,0,1-.5-.5.46.46,0,0,1,.4-.5l2-.2a.68.68,0,0,1,.6.4c.1.2-.2.5-.4.6l-2.1.2Zm5-.5a.46.46,0,0,1-.5-.4.68.68,0,0,1,.4-.6l2-.2c.3,0,.5.1.5.4h0a.68.68,0,0,1-.4.6l-2,.2Zm-62.7-.1h0l-2.1-.3a.5.5,0,1,1,0-1h.1l2,.3c.3.1.5.3.4.6a.43.43,0,0,1-.4.4Zm67.7-.6a.47.47,0,0,1-.5-.5h0a.47.47,0,0,1,.5-.5l2-.3a.55.55,0,0,1,.6.4h0a.55.55,0,0,1-.4.6h0l-2.2.3Zm-72.6-.3h-.1l-.4-.1-1.6-.3c-.3-.1-.5-.3-.4-.6s.3-.5.6-.4h0l1.6.3.4.1a.55.55,0,0,1,.4.6h0a.66.66,0,0,1-.5.4Zm77.6-.4a.5.5,0,0,1,0-1l2-.3a.55.55,0,0,1,.6.4h0a.55.55,0,0,1-.4.6l-2.2.3ZM98,362.5h-.1l-1.9-.6a.47.47,0,0,1,.3-.9h0c.6.2,1.3.4,1.9.6a.62.62,0,0,1,.4.6c-.2.1-.4.3-.6.3Zm87.4-.1a.5.5,0,1,1,0-1l2-.4a.51.51,0,1,1,.2,1l-2,.3Zm5-.9a.5.5,0,1,1,0-1h0l2-.4a.55.55,0,0,1,.6.4.49.49,0,0,1-.3.6h0l-2,.4Zm-97.1-.6h-.2a15.39,15.39,0,0,1-1.9-.8.43.43,0,0,1-.2-.7.48.48,0,0,1,.7-.2c.6.3,1.2.5,1.8.8a.45.45,0,0,1,.3.6h0a.91.91,0,0,1-.5.3Zm102-.4a.66.66,0,0,1-.5-.4c-.1-.3.1-.5.4-.6h0l2-.4c.3-.1.5.1.6.4s-.1.5-.4.6h0l-2,.4Zm4.9-1a.66.66,0,0,1-.5-.4c-.1-.3.1-.5.4-.6h0l1.8-.5c.3-.1.5.1.6.4s-.1.5-.4.6h0l-1.9.5Zm-111.4-.8a.37.37,0,0,1-.3-.1c-.6-.4-1.2-.7-1.7-1.1a.5.5,0,0,1,.6-.8h0c.5.4,1.1.7,1.6,1.1a.57.57,0,0,1,.2.7.76.76,0,0,1-.4.2Zm116.3-.3a.66.66,0,0,1-.5-.4c-.1-.3.1-.5.4-.6l1.9-.4a.49.49,0,0,1,.6.3h0c.1.3-.1.5-.4.6l-2,.5Zm4.8-1.1a.66.66,0,0,1-.5-.4c-.1-.3.1-.5.4-.6l2-.5a.44.44,0,0,1,.6.4c0,.3-.1.6-.4.6h0l-2,.5Zm4.9-1.2a.51.51,0,0,1-.5-.4c-.1-.3.1-.5.4-.6h0l1.9-.5a.49.49,0,0,1,.6.3h0c.1.3-.1.5-.4.6h0l-1.9.5Zm-129.9-.4a.76.76,0,0,1-.4-.2,18.26,18.26,0,0,1-1.3-1.6.62.62,0,0,1,.1-.7h0a.62.62,0,0,1,.7.1,7.89,7.89,0,0,0,1.2,1.5.48.48,0,0,1,0,.7h0c-.1.1-.2.2-.3.2Zm134.7-.9a.51.51,0,0,1-.5-.4.49.49,0,0,1,.3-.6h0l1.9-.5a.68.68,0,0,1,.6.4.71.71,0,0,1-.3.6l-1.9.5Zm4.8-1.3a.68.68,0,0,1-.6-.4c-.1-.2.2-.5.4-.6l1.9-.5a.47.47,0,1,1,.3.9h0l-1.9.6c0-.1,0-.1-.1,0Zm4.8-1.5a.55.55,0,0,1-.6-.4h0a.55.55,0,0,1,.4-.6h0l1.9-.6a.42.42,0,0,1,.6.3h0a.49.49,0,0,1-.3.6l-1.9.6a.1.1,0,0,1-.1.1Zm-146.7-.7a.66.66,0,0,1-.5-.4,9.85,9.85,0,0,1-.2-1.7v-.4a.47.47,0,0,1,.5-.5h0a.47.47,0,0,1,.5.5h0v.4c0,.5.1,1,.1,1.5.2.3,0,.6-.4.6Zm151.4-.8a.55.55,0,0,1-.6-.4h0a.55.55,0,0,1,.4-.6h0l1.9-.6a.42.42,0,0,1,.6.3h0a.42.42,0,0,1-.3.6h0l-1.9.6Zm4.8-1.5a.51.51,0,1,1-.2-1h.1l1.9-.6a.47.47,0,1,1,.3.9l-1.9.6Zm4.7-1.6a.63.63,0,0,1-.6-.5c0-.2.1-.5.4-.5l1.9-.7c.3-.1.5.1.6.4s-.1.5-.3.6l-1.9.7Zm-160.5-1h-.2a.45.45,0,0,1-.3-.6,8.18,8.18,0,0,1,.9-1.9.57.57,0,0,1,.7-.2h0a.57.57,0,0,1,.2.7,14.17,14.17,0,0,0-.8,1.8c-.2,0-.3.1-.5.2Zm165.2-.7a.55.55,0,0,1-.6-.4h0c-.1-.3.1-.5.4-.6h0l1.9-.7c.3-.1.5.1.6.4h0c.1.2-.1.5-.3.6l-1.9.7Zm4.7-1.7a.55.55,0,0,1-.5-.3.42.42,0,0,1,.3-.6h0l1.9-.7a.51.51,0,1,1,.5.9h-.2l-2,.7Zm4.6-1.8a.55.55,0,0,1-.5-.3.42.42,0,0,1,.3-.6h0l1.9-.8a.48.48,0,0,1,.6.2h0a.42.42,0,0,1-.3.6l-1.9.8c.1,0,0,0-.1.1ZM85.32,342a.37.37,0,0,1-.3-.1.49.49,0,0,1-.1-.7c.4-.5.8-1,1.3-1.6a.49.49,0,0,1,.7.7h0a15.76,15.76,0,0,0-1.2,1.5A.52.52,0,0,1,85.32,342Zm176.8-1.8a.55.55,0,0,1-.5-.3.48.48,0,0,1,.2-.6h0l1.8-.8c.3-.1.5,0,.7.3h0a.42.42,0,0,1-.3.6l-1.9.8Zm-173.4-1.9a.6.6,0,0,1-.4-.1.48.48,0,0,1,0-.7h0l1.4-1.4a.48.48,0,0,1,.7,0h0a.48.48,0,0,1,0,.7h0L89,338.2c-.1,0-.2.1-.3.1Zm178-.1a.55.55,0,0,1-.5-.3c-.1-.3,0-.5.3-.7h0l1.8-.8a.42.42,0,0,1,.6.3h0a.48.48,0,0,1-.2.6l-1.8.8a.31.31,0,0,1-.2.1Zm4.5-2.1a.47.47,0,0,1-.5-.5.55.55,0,0,1,.3-.5l1.8-.9a.51.51,0,0,1,.5.9l-1.8.9a.37.37,0,0,1-.3.1Zm-178.9-1.3a.47.47,0,0,1-.5-.5h0a.76.76,0,0,1,.2-.4,17.38,17.38,0,0,1,1.5-1.3.5.5,0,1,1,.6.8c-.5.4-1,.9-1.5,1.3-.1.1-.2.2-.3.1Zm183.4-.8a.47.47,0,0,1-.5-.5c0-.2.1-.4.3-.4h0l1.8-.9a.62.62,0,0,1,.7.2.66.66,0,0,1-.2.7l-1.8.9Zm-179.6-2.3a.47.47,0,0,1-.5-.5h0a.76.76,0,0,1,.2-.4l1.6-1.2a.5.5,0,0,1,.6.8h0c-.5.4-1.1.8-1.6,1.2-.1,0-.2.1-.3.1Zm184,0a.47.47,0,0,1-.5-.5c0-.2.1-.4.3-.4l1.7-1a.66.66,0,0,1,.7.2.53.53,0,0,1-.2.7h0l-1.8,1Zm4.4-2.5a.47.47,0,0,1-.5-.5.52.52,0,0,1,.2-.4l1.7-1a.51.51,0,0,1,.5.9l-1.7,1Zm-184.4-.5a.47.47,0,0,1-.5-.5.52.52,0,0,1,.2-.4l1.6-1.1a.49.49,0,1,1,.7.7h0l-.1.1c-.6.4-1.1.8-1.6,1.1a.37.37,0,0,0-.3.1Zm188.7-2a.52.52,0,0,1-.4-.2.53.53,0,0,1,.2-.7l1.7-1a.49.49,0,0,1,.7.1h0a.49.49,0,0,1-.1.7h-.1l-1.7,1h-.2Zm-184.6-.7a.52.52,0,0,1-.4-.2.62.62,0,0,1,.1-.7l1.7-1.1a.62.62,0,0,1,.7.1h0a.62.62,0,0,1-.1.7h0l-1.7,1.1h-.2Zm188.9-2a.47.47,0,0,1-.5-.5.52.52,0,0,1,.2-.4l1.7-1a.53.53,0,0,1,.7.2c.2.3.1.5-.2.7l-1.7,1Zm-184.6-.8a.47.47,0,0,1-.5-.5.52.52,0,0,1,.2-.4l1.7-1a.53.53,0,0,1,.7.2h0a.53.53,0,0,1-.2.7h0l-1.7,1Zm188.8-1.8a.52.52,0,0,1-.4-.2.62.62,0,0,1,.1-.7h0l1.7-1.1a.5.5,0,1,1,.6.8h0l-.1.1-1.7,1.1c0-.1-.1,0-.2,0Zm-184.4-.6a.47.47,0,0,1-.5-.5c0-.2.1-.4.3-.4h0l1.8-.9a.51.51,0,1,1,.5.9l-1.8.9Zm188.6-2.1a.47.47,0,0,1-.5-.5.52.52,0,0,1,.2-.4l1.7-1.1a.5.5,0,1,1,.6.8l-1.7,1.1a.37.37,0,0,1-.3.1Zm-184.1-.2c-.2,0-.4-.1-.4-.3a.66.66,0,0,1,.2-.7l1.8-.9a.53.53,0,0,1,.7.2c.2.3.1.5-.2.7h-.1l-1.8.9a.31.31,0,0,1-.2.1Zm4.5-2.1a.47.47,0,0,1-.5-.5c0-.2.1-.4.3-.4a14.17,14.17,0,0,1,1.8-.8.48.48,0,0,1,.6.2h0a.48.48,0,0,1-.2.6h0l-1.8.8c-.1,0-.1,0-.2.1Zm183.8-.4a.47.47,0,0,1-.5-.5.52.52,0,0,1,.2-.4h0l1.7-1.1a.5.5,0,1,1,.6.8h0l-1.7,1.1A.37.37,0,0,1,305.72,316Zm-179.3-1.6a.55.55,0,0,1-.5-.3c-.1-.3,0-.5.3-.7h0l1.8-.8c.3-.1.5,0,.7.3s0,.5-.3.7l-1.8.8c-.1-.1-.1-.1-.2,0Zm183.5-1.3a.52.52,0,0,1-.4-.2.49.49,0,0,1,.1-.7h0l1.6-1.1a.49.49,0,0,1,.7.7h0l-1.6,1.1C310.12,313.1,310,313.1,309.92,313.1ZM131,312.3c-.3.1-.5-.1-.6-.4s.1-.5.4-.6h0l1.8-.8a.66.66,0,0,1,.7.2h0a.62.62,0,0,1-.2.7h0l-1.9.8a.31.31,0,0,0-.2.1Zm4.7-1.9c-.3.1-.5-.1-.6-.4s.1-.5.4-.6h0l1.9-.8a.48.48,0,0,1,.6.2h0a.42.42,0,0,1-.3.6l-1.9.8Zm178.3-.1a.52.52,0,0,1-.4-.2.49.49,0,0,1,.1-.7h0l1.6-1.2a.49.49,0,0,1,.7.1h0a.49.49,0,0,1-.1.7l-1.6,1.2a.37.37,0,0,1-.3.1Zm-173.7-1.8a.55.55,0,0,1-.5-.3.42.42,0,0,1,.3-.6h0l1.9-.8a.42.42,0,0,1,.6.3h0a.45.45,0,0,1-.3.6h0l-1.9.8ZM318,307.4a.47.47,0,0,1-.5-.5.52.52,0,0,1,.2-.4l1.6-1.2a.5.5,0,0,1,.6.8l-1.6,1.2c-.1,0-.2.1-.3.1Zm-173.1-.7a.68.68,0,0,1-.6-.4.55.55,0,0,1,.4-.6l1.9-.8a.52.52,0,0,1,.7.3.42.42,0,0,1-.3.6h0l-1.9.8C145,306.6,145,306.6,144.92,306.7Zm4.6-1.9a.68.68,0,0,1-.6-.4.55.55,0,0,1,.4-.6l1.9-.8c.3-.1.5,0,.7.3a.52.52,0,0,1-.3.7l-1.9.8c0-.1-.1,0-.2,0Zm172.5-.5a.47.47,0,0,1-.5-.5.76.76,0,0,1,.2-.4h0l1.6-1.2a.5.5,0,1,1,.6.8h0l-1.6,1.2a.37.37,0,0,1-.3.1Zm-167.9-1.4a.55.55,0,0,1-.5-.3.48.48,0,0,1,.2-.6h0l1.9-.8a.53.53,0,0,1,.7.2c.2.3.1.5-.2.7H156l-1.9.8c.2-.1.1-.1,0,0Zm171.8-1.7a.76.76,0,0,1-.4-.2.48.48,0,0,1,0-.7h0c.6-.5,1.1-.9,1.5-1.3a.49.49,0,0,1,.7.1h0a.48.48,0,0,1,0,.7c-.4.4-1,.8-1.5,1.3C326.12,301.1,326,301.2,325.92,301.2Zm-167.1-.2a.55.55,0,0,1-.5-.3.48.48,0,0,1,.2-.6h0l1.9-.8a.42.42,0,0,1,.6.3h0a.48.48,0,0,1-.2.6h0l-1.9.8Zm4.6-1.9a.55.55,0,0,1-.5-.3.42.42,0,0,1,.3-.6l1.9-.8a.53.53,0,0,1,.7.2c.2.3.1.5-.2.7h-.2l-2,.8c.1-.1,0-.1,0,0Zm166.2-1.2c-.1,0-.3-.1-.4-.1a.48.48,0,0,1,0-.7h0l.4-.4a.52.52,0,0,1,.4-.2v.5l.4.4-.5.5c-.1-.1-.2,0-.3,0ZM168,297.2a.55.55,0,0,1-.5-.3.42.42,0,0,1,.3-.6l1.9-.8a.42.42,0,0,1,.6.3h0a.48.48,0,0,1-.2.6h0l-1.8.8c-.2-.1-.2-.1-.3,0Zm4.6-1.9a.55.55,0,0,1-.5-.3.42.42,0,0,1,.3-.6l1.9-.8a.42.42,0,0,1,.6.3.48.48,0,0,1-.2.6h0l-1.9.8c-.1-.1-.1-.1-.2,0Zm4.6-2a.55.55,0,0,1-.5-.3.48.48,0,0,1,.2-.6h0l1.8-.8c.3-.1.5,0,.7.3h0a.42.42,0,0,1-.3.6l-1.9.8Zm4.6-1.9a.51.51,0,1,1-.2-1l1.8-.8c.3-.1.5,0,.7.3s0,.5-.3.7h0l-1.8.8Zm4.6-1.9a.55.55,0,0,1-.5-.3.48.48,0,0,1,.2-.6h0l1.8-.8a.42.42,0,0,1,.6.3.45.45,0,0,1-.3.6l-1.8.8Zm4.6-2a.51.51,0,0,1-.2-1l1.8-.8a.48.48,0,0,1,.6.2h0c.1.3,0,.5-.3.7l-1.8.8c.1,0,0,0-.1.1Zm4.7-2a.55.55,0,0,1-.5-.3.48.48,0,0,1,.2-.6h0l1.8-.8c.3-.1.5,0,.7.3h0c.1.3,0,.5-.3.7l-1.8.8a.1.1,0,0,0-.1-.1Zm4.5-2a.55.55,0,0,1-.5-.3c-.1-.3,0-.5.3-.7l1.8-.8c.3-.1.5,0,.7.3s0,.5-.3.7l-1.8.8Zm4.6-2a.51.51,0,1,1-.2-1l1.8-.8a.53.53,0,0,1,.7.2h0a.53.53,0,0,1-.2.7h0l-1.8.8a.37.37,0,0,0-.3.1Zm4.6-2a.51.51,0,1,1-.2-1l1.8-.8a.42.42,0,0,1,.6.3h0a.48.48,0,0,1-.2.6l-1.8.8c-.1,0-.1.1-.2.1Zm4.6-2a.55.55,0,0,1-.5-.3c-.1-.3,0-.5.3-.7h0l1.8-.8a.42.42,0,0,1,.6.3h0a.48.48,0,0,1-.2.6l-1.8.8a.31.31,0,0,1-.2.1Zm4.5-2.1c-.3.1-.5-.1-.6-.4s.1-.5.4-.6l1.8-.8a.48.48,0,0,1,.6.2h0a.66.66,0,0,1-.2.7h0l-1.8.8a.31.31,0,0,0-.2.1Zm4.6-2.1a.55.55,0,0,1-.5-.3.48.48,0,0,1,.2-.6h0l1.8-.8a.5.5,0,0,1,.4.9l-1.8.8Zm4.5-2.1a.55.55,0,0,1-.5-.3.62.62,0,0,1,.2-.7l1.8-.9a.51.51,0,0,1,.5.9l-1.8.8c0,.2-.1.2-.2.2Zm4.6-2.1a.55.55,0,0,1-.5-.3.48.48,0,0,1,.2-.6h0l1.8-.8a.42.42,0,0,1,.6.3h0a.48.48,0,0,1-.2.6l-1.8.8Zm4.5-2a.47.47,0,0,1-.5-.5c0-.2.1-.4.3-.4l1.8-.8a.66.66,0,0,1,.7.2h0a.62.62,0,0,1-.2.7l-1.9.7a.31.31,0,0,0-.2.1Zm4.6-2.1a.55.55,0,0,1-.5-.3.48.48,0,0,1,.2-.6h0l1.8-.8a.53.53,0,0,1,.7.2c.2.3.1.5-.2.7h-.1l-1.8.8c0-.1-.1-.1-.1,0Zm4.5-2.1a.47.47,0,0,1-.5-.5c0-.2.1-.4.3-.4l1.8-.9a.48.48,0,0,1,.6.2h0a.66.66,0,0,1-.2.7h0l-1.8.8a.31.31,0,0,0-.2.1Zm4.5-2.1c-.3.1-.5-.1-.6-.4s.1-.5.4-.6l1.8-.8a.51.51,0,1,1,.5.9h0l-1.8.9Zm4.5-2.2a.55.55,0,0,1-.5-.3.66.66,0,0,1,.2-.7l1.8-.9a.51.51,0,0,1,.5.9h0l-1.8.9a.31.31,0,0,0-.2.1Zm4.5-2.2a.47.47,0,0,1-.5-.5c0-.2.1-.4.3-.4h0l1.8-.9a.62.62,0,0,1,.7.2.66.66,0,0,1-.2.7h0l-1.8.9a.19.19,0,0,0-.3,0Zm4.5-2.3a.47.47,0,0,1-.5-.5c0-.2.1-.4.3-.4l1.8-.9c.3-.1.5,0,.7.3a.48.48,0,0,1-.2.6l-1.8.9q-.3-.15-.3,0Zm4.4-2.4a.47.47,0,0,1-.5-.5c0-.2.1-.4.3-.4l1.8-1a.5.5,0,0,1,.6.8h0l-1.8,1c-.3,0-.3,0-.4.1Zm4.3-2.5a.47.47,0,0,1-.5-.5.52.52,0,0,1,.2-.4l1.7-1a.62.62,0,0,1,.7.1h0a.53.53,0,0,1-.2.7l-1.7,1a.35.35,0,0,1-.2.1Zm4.3-2.6a.52.52,0,0,1-.4-.2.53.53,0,0,1,.2-.7h0l1.7-1a.5.5,0,1,1,.6.8h0c-.6.4-1.1.7-1.7,1.1ZM281,244a.47.47,0,0,1-.5-.5.52.52,0,0,1,.2-.4c.6-.4,1.1-.7,1.7-1.1a.62.62,0,0,1,.7.1.49.49,0,0,1-.1.7h0l-1.7,1.1c-.1,0-.2.1-.3.1Zm4.2-2.9a.52.52,0,0,1-.4-.2.49.49,0,0,1,.1-.7h0l1.6-1.2a.5.5,0,0,1,.6.8c-.5.4-1.1.8-1.6,1.2a.37.37,0,0,1-.3.1Zm4-2.9a.47.47,0,0,1-.5-.5.52.52,0,0,1,.2-.4c.5-.4,1-.8,1.6-1.2a.49.49,0,0,1,.7.1h0a.49.49,0,0,1-.1.7h0c-.5.4-1,.8-1.6,1.2-.1,0-.2.1-.3.1Zm3.9-3.1a.76.76,0,0,1-.4-.2.49.49,0,0,1,.1-.7c.5-.4,1-.9,1.5-1.3a.48.48,0,0,1,.7,0h0a.48.48,0,0,1,0,.7c-.5.4-1,.9-1.5,1.3-.1.1-.2.1-.4.2Zm3.8-3.3a.76.76,0,0,1-.4-.2.48.48,0,0,1,0-.7h0a18.48,18.48,0,0,0,1.4-1.4.49.49,0,0,1,.7.7h0l-1.5,1.4c0,.1-.1.1-.2.2Zm3.5-3.5a.47.47,0,0,1-.5-.5h0c0-.1.1-.3.1-.4.5-.5.9-1,1.4-1.5a.5.5,0,0,1,.8.6h0c-.5.5-.9,1-1.4,1.5-.1.2-.2.2-.4.3Zm3.3-3.8a.47.47,0,0,1-.5-.5.37.37,0,0,1,.1-.3l1.2-1.5a.48.48,0,0,1,.7,0,.59.59,0,0,1,.1.7c-.4.5-.8,1-1.2,1.6-.1-.1-.2,0-.4,0Zm3-4a.37.37,0,0,1-.3-.1.48.48,0,0,1-.1-.7h0c.4-.5.7-1.1,1.1-1.6a.51.51,0,1,1,.9.5h0c-.4.6-.7,1.1-1.1,1.7-.2.1-.3.2-.5.2Zm2.6-4.2c-.1,0-.2,0-.2-.1a.48.48,0,0,1-.2-.6h0l.9-1.8a.48.48,0,0,1,.7-.2c.2.1.4.4.2.6h0l-.9,1.8a2.19,2.19,0,0,1-.5.3Zm2.1-4.6h-.2a.45.45,0,0,1-.3-.6h0c.2-.6.5-1.2.7-1.9a.47.47,0,1,1,.9.3,14.58,14.58,0,0,1-.7,1.9c0,.2-.1.3-.4.3Zm1.5-4.7h-.1a.55.55,0,0,1-.4-.6c.1-.6.3-1.3.4-1.9a.62.62,0,0,1,.6-.4.66.66,0,0,1,.4.5c-.1.7-.3,1.3-.4,2a.46.46,0,0,1-.5.4Zm.9-4.9h0a.54.54,0,0,1-.5-.5,12.75,12.75,0,0,0,.1-2,.5.5,0,1,1,1,0c0,.7-.1,1.4-.1,2,0,.2-.2.4-.5.5Zm.1-5a.47.47,0,0,1-.5-.5,15,15,0,0,0-.2-2,.68.68,0,0,1,.4-.6c.2-.1.5.2.6.4.1.7.1,1.4.2,2a.75.75,0,0,1-.5.7Zm-.7-5a.66.66,0,0,1-.5-.4c-.1-.6-.3-1.3-.4-1.9-.1-.3.1-.5.4-.6h0a.49.49,0,0,1,.6.3h0c.2.7.3,1.3.5,2a.73.73,0,0,1-.6.6Zm-1.2-4.9a.55.55,0,0,1-.5-.3c-.2-.6-.4-1.2-.7-1.9a.42.42,0,0,1,.3-.6h0a.42.42,0,0,1,.6.3h0c.2.6.5,1.3.7,1.9a.42.42,0,0,1-.3.6H312Zm-257.7-.1h0a12.75,12.75,0,0,1-2-.1.54.54,0,0,1-.5-.5h0c0-.2.2-.5.4-.5h.1a13.4,13.4,0,0,1,2,.1.47.47,0,0,1,.5.5h0a.47.47,0,0,1-.5.5Zm3,0a.5.5,0,1,1,0-1l2-.1a.46.46,0,0,1,.5.4h0a.47.47,0,0,1-.5.5h0a15,15,0,0,0-2,.2Zm5-.3a.5.5,0,1,1,0-1l2-.2a.68.68,0,0,1,.6.4c.1.2-.2.5-.4.6l-2,.2Zm-13,0h0c-.7-.1-1.4-.1-2.1-.2a.51.51,0,0,1,.2-1,12.31,12.31,0,0,0,2,.2.44.44,0,0,1,.4.6.46.46,0,0,1-.5.4Zm18-.5a.5.5,0,0,1,0-1l2-.3a.51.51,0,0,1,.2,1l-2.2.3Zm-22.9-.3h0a12.91,12.91,0,0,1-2.1-.5.44.44,0,0,1-.4-.6c.1-.3.3-.5.6-.4h.1c.6.2,1.3.3,1.9.5a.44.44,0,0,1,.4.6.46.46,0,0,1-.5.4Zm27.9-.5a.5.5,0,0,1,0-1l2-.4a.51.51,0,0,1,.2,1h-.1l-2.1.4Zm-32.7-.9h-.2a10.84,10.84,0,0,1-1.9-.8.45.45,0,0,1-.3-.6.52.52,0,0,1,.7-.3H38c.6.3,1.2.5,1.8.8a.45.45,0,0,1,.3.6.55.55,0,0,1-.5.3Zm37.6,0a.68.68,0,0,1-.6-.4c-.1-.2.2-.5.4-.6.7-.1,1.3-.3,2-.4.3-.1.5.1.6.4s-.1.5-.4.6h0l-2,.4Zm4.9-1a.51.51,0,1,1-.2-1l2-.4c.3-.1.5.1.6.4s-.1.5-.4.6h0l-1.9.4Zm228.1-1a.55.55,0,0,1-.5-.3,15.11,15.11,0,0,0-.9-1.8.51.51,0,1,1,.9-.5l.9,1.8a.66.66,0,0,1-.2.7h0a.31.31,0,0,1-.2.1ZM87,182.5a.68.68,0,0,1-.6-.4c-.1-.2.2-.5.4-.6h0l2-.4c.3-.1.5.1.6.4h0c.1.3-.1.5-.4.6h0l-2,.4Zm-51.8-.1a.37.37,0,0,1-.3-.1c-.6-.4-1.1-.8-1.7-1.2a.49.49,0,0,1-.1-.7h0a.62.62,0,0,1,.7-.1,9.06,9.06,0,0,0,1.6,1.1.57.57,0,0,1,.2.7h0a.54.54,0,0,1-.4.3Zm56.7-.9a.66.66,0,0,1-.5-.4c-.1-.3.1-.5.4-.6h0l2-.4a.55.55,0,0,1,.6.4c.1.3-.1.5-.4.6h0l-2.1.4Zm4.9-1a.68.68,0,0,1-.6-.4c-.1-.2.2-.5.4-.6l2-.4a.49.49,0,0,1,.6.3h0c.1.3-.1.5-.4.6h0l-2,.5Zm4.9-1a.5.5,0,0,1,0-1h0l2-.4a.51.51,0,1,1,.2,1l-2,.4Zm-70.3-.3a.76.76,0,0,1-.4-.2,16.67,16.67,0,0,1-1.2-1.6.53.53,0,0,1,.2-.7.49.49,0,0,1,.7.1h0a8.78,8.78,0,0,0,1.2,1.5.48.48,0,0,1,0,.7h0a1.69,1.69,0,0,1-.5.2Zm75.2-.7a.5.5,0,0,1,0-1l2-.4c.3-.1.5.1.6.4s-.1.5-.4.6h0l-2,.4Zm201.3-.3a.52.52,0,0,1-.4-.2c-.3-.5-.6-1-.9-1.6l-.1-.1a.53.53,0,0,1,.2-.7c.3-.2.5-.1.7.2l.1.2c.3.5.6,1.1.9,1.6a.53.53,0,0,1-.2.7h0A.37.37,0,0,0,307.92,178.2Zm-196.4-.5a.66.66,0,0,1-.5-.4.55.55,0,0,1,.4-.6l2-.4a.51.51,0,1,1,.2,1l-2.1.4Zm5-.9c-.2,0-.5-.2-.5-.4a.55.55,0,0,1,.4-.6h0l2-.4a.55.55,0,0,1,.6.4h0a.55.55,0,0,1-.4.6l-2.1.4Zm4.9-.9a.68.68,0,0,1-.6-.4.63.63,0,0,1,.5-.6l2-.4a.51.51,0,0,1,.2,1h0l-2.1.4Zm4.9-.9a.5.5,0,0,1,0-1l2-.3a.47.47,0,0,1,.5.5c0,.2-.1.5-.4.5l-2.1.3Zm-97.4,0a.55.55,0,0,1-.5-.3,15.19,15.19,0,0,1-.6-2,.49.49,0,0,1,.3-.6h0c.3-.1.5.1.6.4h0a6.36,6.36,0,0,0,.6,1.8.42.42,0,0,1-.3.6h0Zm102.4-.8c-.2,0-.5-.2-.5-.4a.55.55,0,0,1,.4-.6l2-.3a.55.55,0,0,1,.6.4h0a.55.55,0,0,1-.4.6h0l-2.1.3Zm173.8,0a.76.76,0,0,1-.4-.2,16.61,16.61,0,0,0-1.4-1.3.62.62,0,0,1-.1-.7h0a.48.48,0,0,1,.7,0,19.2,19.2,0,0,1,1.5,1.4.48.48,0,0,1,0,.7h0a.49.49,0,0,1-.3.1Zm-168.9-.8a.5.5,0,0,1,0-1l2-.3a.55.55,0,0,1,.6.4h0a.55.55,0,0,1-.4.6l-2.2.3Zm4.9-.8a.5.5,0,0,1,0-1l2-.3a.47.47,0,0,1,.5.5.51.51,0,0,1-.4.5l-2.1.3Zm5-.8c-.2,0-.5-.2-.5-.4a.55.55,0,0,1,.4-.6l2-.3a.55.55,0,0,1,.6.4.68.68,0,0,1-.4.6h0l-2.1.3Zm4.9-.7c-.2,0-.5-.2-.5-.4a.42.42,0,0,1,.3-.6h.1l2-.3a.55.55,0,0,1,.6.4h0a.55.55,0,0,1-.4.6h0l-2.1.3Zm150.2,0a.37.37,0,0,1-.3-.1c-.5-.3-1.1-.7-1.7-1a.54.54,0,1,1,.4-1,.1.1,0,0,1,.1.1c.6.3,1.2.7,1.8,1a.49.49,0,0,1,.1.7c-.1.2-.3.2-.4.3Zm-145.3-.8c-.2,0-.5-.2-.5-.4a.68.68,0,0,1,.4-.6l2-.3a.55.55,0,0,1,.6.4h0a.55.55,0,0,1-.4.6l-2.1.3Zm-128-.2a.47.47,0,0,1-.5-.5V169a6.6,6.6,0,0,1,.1-1.4.54.54,0,0,1,.5-.5h0a.54.54,0,0,1,.5.5c0,.4-.1.9-.1,1.3v.6c0,.4-.2.6-.5.6Zm133-.6a.5.5,0,1,1,0-1l2-.3a.68.68,0,0,1,.6.4.55.55,0,0,1-.4.6h0l-2.2.3Zm4.9-.7c-.2,0-.5-.2-.5-.4a.68.68,0,0,1,.4-.6l2-.3a.51.51,0,1,1,.2,1l-2.1.3Zm131-.2h-.2c-.6-.3-1.2-.5-1.8-.8a.51.51,0,1,1,.2-1h.1a15.39,15.39,0,0,1,1.9.8c.2.1.4.4.3.6-.1.4-.3.5-.5.4Zm-126-.4a.5.5,0,0,1,0-1l2-.3a.68.68,0,0,1,.6.4.55.55,0,0,1-.4.6h0l-2.2.3Zm4.9-.7a.5.5,0,0,1,0-1l2-.3a.68.68,0,0,1,.6.4h0a.68.68,0,0,1-.4.6l-2.2.3Zm5-.6a.5.5,0,0,1,0-1l2-.2a.51.51,0,1,1,.2,1h0l-2.2.2Zm111.4,0H292c-.6-.2-1.2-.4-1.9-.6-.3-.1-.5-.3-.4-.6s.3-.5.6-.4h.1c.7.2,1.3.4,1.9.6a.45.45,0,0,1,.3.6.51.51,0,0,1-.5.4Zm-106.4-.5a.5.5,0,0,1,0-1l2-.2a.68.68,0,0,1,.6.4.63.63,0,0,1-.5.6l-2.1.2Zm5-.6a.5.5,0,1,1,0-1h0l2-.2a.68.68,0,0,1,.6.4.63.63,0,0,1-.5.6l-2.1.2Zm96.7-.2h-.1a12.86,12.86,0,0,0-1.9-.4.55.55,0,0,1-.4-.6h0a.55.55,0,0,1,.6-.4h0l2,.5a.55.55,0,0,1,.4.6h0a3.33,3.33,0,0,0-.6.3Zm-91.7-.4a.5.5,0,1,1,0-1l2-.2a.46.46,0,0,1,.5.4.68.68,0,0,1-.4.6h0l-2,.2Zm-167.2,0h0c-.4-.1-.5-.3-.5-.6h0c.2-.6.3-1.3.5-2a.51.51,0,0,1,1,.2h0a13.32,13.32,0,0,0-.5,1.9.82.82,0,0,1-.5.5Zm172.2-.5a.5.5,0,1,1,0-1l2-.2a.46.46,0,0,1,.5.4h0a.46.46,0,0,1-.4.5h0l-2.1.3Zm81.8-.2h-.1l-2-.4a.44.44,0,0,1-.4-.6c.1-.3.3-.5.6-.4l2,.4a.55.55,0,0,1,.4.6.89.89,0,0,1-.5.4Zm-76.9-.2a.46.46,0,0,1-.5-.4.47.47,0,0,1,.5-.5h0l2-.2a.47.47,0,0,1,.5.5h0a.46.46,0,0,1-.4.5h0l-2.1.1Zm5-.5a.5.5,0,0,1,0-1h0l2-.2a.5.5,0,0,1,0,1h0l-2,.2Zm66.9-.1h0l-2.1-.3a.44.44,0,0,1-.4-.6c.1-.3.3-.5.6-.4l2,.3a.54.54,0,0,1,.5.5h0a.63.63,0,0,1-.6.5Zm-61.9-.3a.5.5,0,0,1,0-1l2-.1a.5.5,0,0,1,0,1h0l-2,.1Zm57-.3h0l-2.1-.2a.47.47,0,0,1-.5-.5h0a.54.54,0,0,1,.5-.5h0l2,.2a.44.44,0,0,1,.4.6c.1.2-.2.4-.3.4h0Zm-52,0a.5.5,0,0,1,0-1l2-.1a.47.47,0,0,1,.5.5h0a.47.47,0,0,1-.5.5l-2,.1Zm5-.3a.5.5,0,0,1,0-1h0l2-.1a.5.5,0,0,1,0,1l-2,.1Zm42-.1h0l-2-.1a.54.54,0,0,1-.5-.5.64.64,0,0,1,.5-.5l2,.1a.47.47,0,0,1,.5.5h0a.54.54,0,0,1-.5.5Zm-37-.2a.5.5,0,0,1,0-1h0l2-.1a.46.46,0,0,1,.5.4h0a.47.47,0,0,1-.5.5h0l-2,.2Zm32-.1h0l-2-.1a.47.47,0,0,1-.5-.5h0a.47.47,0,0,1,.5-.5h0l2,.1a.54.54,0,0,1,.5.5h0a.54.54,0,0,1-.5.5Zm-27-.1a.5.5,0,0,1,0-1l2-.1a.5.5,0,0,1,0,1h0l-2,.1Zm22-.1h-2a.47.47,0,0,1-.5-.5h0a.47.47,0,0,1,.5-.5h2a.47.47,0,0,1,.5.5c0,.2-.2.4-.5.5Zm-17,0a.5.5,0,0,1,0-1h2a.5.5,0,0,1,0,1Zm12-.1h-2a.5.5,0,0,1,0-1h2a.5.5,0,0,1,0,1Zm-7,0a.5.5,0,0,1,0-1h2a.5.5,0,0,1,0,1ZM30,160.5h0c-.3-.1-.5-.4-.4-.6h0l.9-1.8a.57.57,0,0,1,.7-.2c.3.1.3.4.2.7l-.9,1.8a4.33,4.33,0,0,1-.5.1Zm2.4-4.4a.47.47,0,0,1-.5-.5.37.37,0,0,1,.1-.3c.4-.6.7-1.1,1.1-1.7a.5.5,0,0,1,.8.6,15.26,15.26,0,0,0-1.1,1.6c-.1.2-.3.2-.4.3Zm3-4a.37.37,0,0,1-.3-.1.62.62,0,0,1-.1-.7h0c.4-.5.9-1,1.3-1.5a.48.48,0,0,1,.7,0h0a.48.48,0,0,1,0,.7h0c-.4.5-.9,1-1.3,1.5a.75.75,0,0,1-.5.1Zm3.4-3.7a.47.47,0,0,1-.5-.5c0-.1,0-.3.1-.3h0c.5-.5,1-.9,1.5-1.4a.48.48,0,0,1,.7,0h0a.48.48,0,0,1,0,.7h0a9.27,9.27,0,0,0-1.4,1.4.75.75,0,0,1-.5.1Zm3.7-3.3a.47.47,0,0,1-.5-.5.52.52,0,0,1,.2-.4c.5-.4,1-.8,1.6-1.2a.5.5,0,0,1,.6.8c-.5.4-1,.8-1.6,1.2a.3.3,0,0,1-.4,0Zm4-3a.52.52,0,0,1-.4-.2.49.49,0,0,1,.1-.7h0l1.7-1.1a.5.5,0,0,1,.6.8h0c-.6.4-1.1.7-1.7,1.1a.3.3,0,0,1-.4,0Zm4.3-2.7a.52.52,0,0,1-.4-.2.53.53,0,0,1,.2-.7h0l1.8-1a.51.51,0,0,1,.5.9h0a9.5,9.5,0,0,0-1.7,1Zm4.4-2.3c-.2,0-.4-.1-.4-.3a.48.48,0,0,1,0-.7l.2-.1,1.8-.9a.51.51,0,1,1,.5.9h0l-1.8.9a.37.37,0,0,1-.3.1Zm4.5-2.2a.47.47,0,0,1-.5-.5.55.55,0,0,1,.3-.5l1.8-.9a.66.66,0,0,1,.7.2c.2.2,0,.5-.2.7l-1.8.9a.37.37,0,0,1-.3-.1Zm4.5-2.2c-.2,0-.4-.1-.4-.3a.66.66,0,0,1,.2-.7h0l1.8-.9a.66.66,0,0,1,.7.2.48.48,0,0,1-.2.6h0l-1.8.9c-.2.1-.3.1-.3.2Zm4.5-2.2c-.3.1-.5-.1-.6-.4s.1-.5.4-.6h0l1.8-.9a.66.66,0,0,1,.7.2c.2.2,0,.5-.2.7l-1.8.9h-.3Zm4.5-2.2c-.2,0-.4-.1-.4-.3a.66.66,0,0,1,.2-.7h0l1.8-.9a.51.51,0,0,1,.5.9h0l-1.8.9h-.3Zm4.4-2.3a.47.47,0,0,1-.5-.5c0-.2.1-.4.3-.4l1.8-.9a.66.66,0,0,1,.7.2c.2.2,0,.5-.2.7l-1.8.9Zm4.5-2.2c-.3.1-.5-.1-.6-.4s.1-.5.4-.6l1.8-.9a.66.66,0,0,1,.7.2h0a.66.66,0,0,1-.2.7h0l-1.8.9A.37.37,0,0,1,82.12,123.8Zm4.5-2.1a.47.47,0,0,1-.5-.5c0-.2.1-.4.3-.4l1.8-.9a.66.66,0,0,1,.7.2.48.48,0,0,1-.2.6h-.1l-1.8.9a.31.31,0,0,0-.2.1Zm4.5-2.2c-.2,0-.4-.1-.4-.3a.66.66,0,0,1,.2-.7h0l1.8-.9a.66.66,0,0,1,.7.2h0a.66.66,0,0,1-.2.7h0l-1.8.9A.37.37,0,0,1,91.12,119.5Zm4.5-2.2c-.3.1-.5-.1-.6-.4s.1-.5.4-.6l1.8-.9a.66.66,0,0,1,.7.2h0a.66.66,0,0,1-.2.7l-1.8.9h-.2l-.1.1Zm4.6-2.1c-.2,0-.4-.1-.4-.3a.48.48,0,0,1,.2-.6h0l1.8-.9a.53.53,0,0,1,.7.2c.2.3.1.5-.2.7h-.1l-1.8.9Zm4.5-2.2a.47.47,0,0,1-.5-.5.55.55,0,0,1,.3-.5h0l1.8-.9a.57.57,0,0,1,.7.2.62.62,0,0,1-.2.7h0l-1.9,1Zm4.5-2.1c-.2,0-.4-.1-.4-.3a.66.66,0,0,1,.2-.7h0l1.8-.9c.3-.1.6.1.6.3a.48.48,0,0,1-.2.6h0l-1.8.9-.2.1Zm4.5-2.2c-.2,0-.4-.1-.4-.3a.66.66,0,0,1,.2-.7h0l1.8-.9a.53.53,0,0,1,.7.2c.2.3.1.5-.2.7h-.1l-1.8.9c0,.1-.1.1-.2.1Zm4.5-2.1a.47.47,0,0,1-.5-.5c0-.2.1-.4.3-.4l1.8-.9a.66.66,0,0,1,.7.2h0a.48.48,0,0,1-.2.6h0l-1.8.9c-.1,0-.2.1-.3.1Zm4.6-2.2c-.2,0-.4-.1-.4-.3a.66.66,0,0,1,.2-.7h0l1.8-.9c.3-.1.6.1.6.3a.48.48,0,0,1-.2.6h0l-1.8.9a.31.31,0,0,1-.2.1Zm4.5-2.1c-.3.1-.5-.1-.6-.4s.1-.5.4-.6l1.8-.9a.66.66,0,0,1,.7.2h0a.48.48,0,0,1-.2.6h0l-1.8.9a.77.77,0,0,0-.3.2Zm4.5-2.1c-.2,0-.4-.1-.4-.3a.48.48,0,0,1,.2-.6h0l1.8-.9a.5.5,0,0,1,.4.9l-1.8.9Zm4.5-2.2c-.3.1-.5-.1-.6-.4s.1-.5.4-.6h0l1.8-.9a.42.42,0,0,1,.6.3.48.48,0,0,1-.2.6l-1.8.9a.31.31,0,0,0-.2.1Zm4.6-2.1c-.2,0-.4-.1-.4-.3a.66.66,0,0,1,.2-.7h0l1.8-.9a.53.53,0,0,1,.7.2c.2.3.1.5-.2.7h-.1l-1.8.9c-.1,0-.1,0-.2.1Zm4.5-2.2c-.2,0-.4-.1-.4-.3a.66.66,0,0,1,.2-.7h0l1.8-.9a.53.53,0,0,1,.7.2c.2.3.1.5-.2.7h0l-.1.1-1.8.9Zm4.5-2.1c-.2,0-.4-.1-.4-.3a.66.66,0,0,1,.2-.7h0l1.8-.9a.57.57,0,0,1,.7.2.62.62,0,0,1-.2.7l-1.8.9C150,91.6,150,91.6,149.92,91.6Zm4.5-2.1c-.2,0-.4-.1-.4-.3a.66.66,0,0,1,.2-.7h0l1.8-.9a.66.66,0,0,1,.7.2h0a.48.48,0,0,1-.2.6h0l-1.8.9c-.1.1-.2.1-.3.2Zm4.6-2.2c-.3.1-.5-.1-.6-.4s.1-.5.4-.6l1.8-.9a.53.53,0,0,1,.7.2c.2.3.1.5-.2.7H161l-1.8.9a.35.35,0,0,0-.2.1Zm4.5-2.1c-.2,0-.4-.1-.4-.3a.48.48,0,0,1,.2-.6h0l1.8-.9a.66.66,0,0,1,.7.2h0a.62.62,0,0,1-.2.7l-1.8.9Zm4.5-2.1c-.2,0-.4-.1-.4-.3a.66.66,0,0,1,.2-.7h0l1.8-.9a.5.5,0,0,1,.4.9l-1.8.9c-.1,0-.1,0-.2.1Zm4.5-2.2a.55.55,0,0,1-.5-.3.66.66,0,0,1,.2-.7L174,79a.57.57,0,0,1,.7.2.62.62,0,0,1-.2.7l-1.8.9c0,.1-.1.1-.2.1Zm4.5-2.1c-.2,0-.4-.1-.4-.3a.66.66,0,0,1,.2-.7h0l1.8-.9a.66.66,0,0,1,.7.2h0a.66.66,0,0,1-.2.7l-1.8.9a.37.37,0,0,1-.3.1Zm4.6-2.1c-.2,0-.4-.1-.4-.3a.66.66,0,0,1,.2-.7h0l1.8-.9a.5.5,0,0,1,.4.9l-1.8.9c-.1,0-.2,0-.2.1Zm4.5-2.2a.55.55,0,0,1-.5-.3.66.66,0,0,1,.2-.7l1.8-.9c.3-.1.6.1.6.3a.48.48,0,0,1-.2.6h0l-1.8.9c.1.1,0,.1-.1.1Zm4.5-2.1c-.3.1-.5-.1-.6-.4s.1-.5.4-.6h0l1.8-.9a.51.51,0,1,1,.5.9h0l-1.8.9c-.1,0-.2.1-.3.1Zm4.5-2.1a.55.55,0,0,1-.5-.3.66.66,0,0,1,.2-.7h0l1.8-.9a.66.66,0,0,1,.7.2h0a.62.62,0,0,1-.2.7l-1.8.9a.35.35,0,0,1-.2.1Zm4.6-2.2a.55.55,0,0,1-.5-.3.66.66,0,0,1,.2-.7h0l1.8-.9a.48.48,0,0,1,.6.2h0a.66.66,0,0,1-.2.7h0l-1.8.9a.1.1,0,0,1-.1.1Zm4.5-2.1a.55.55,0,0,1-.5-.3.66.66,0,0,1,.2-.7h0l1.8-.9a.5.5,0,0,1,.4.9l-1.8.9c0,.1,0,.1-.1.1Zm4.5-2.1a.55.55,0,0,1-.5-.3.66.66,0,0,1,.2-.7h0l1.8-.8a.48.48,0,0,1,.6.2h0a.66.66,0,0,1-.2.7h0l-1.8.9c.1-.1,0-.1-.1,0Zm4.6-2.2a.55.55,0,0,1-.5-.3.66.66,0,0,1,.2-.7h0l1.8-.8a.48.48,0,0,1,.6.2h0a.66.66,0,0,1-.2.7h0l-1.8.8a.1.1,0,0,1-.1.1Zm4.5-2.1a.55.55,0,0,1-.5-.3.66.66,0,0,1,.2-.7h0l1.8-.8a.66.66,0,0,1,.7.2h0a.62.62,0,0,1-.2.7l-1.8.8c-.1.1-.1.1-.2.1Zm4.5-2.1c-.3.1-.5-.1-.6-.4s.1-.5.4-.6h0l1.8-.8a.51.51,0,1,1,.5.9l-1.8.8c-.1,0-.2.1-.3.1Zm4.6-2.1c-.3.1-.5-.1-.6-.4s.1-.5.4-.6l1.8-.8a.51.51,0,1,1,.5.9h0l-1.8.8c-.2,0-.2,0-.3.1Zm4.5-2.2c-.3.1-.5-.1-.6-.4s.1-.5.4-.6h0l1.8-.8c.3-.1.6.1.6.3a.48.48,0,0,1-.2.6h0l-1.8.8c0,.1-.1.1-.2.1Zm4.5-2.1a.47.47,0,0,1-.5-.5c0-.2.1-.4.3-.4l1.8-.9c.3-.1.6.1.6.3a.48.48,0,0,1-.2.6h0l-1.8.8c0,.1-.1.1-.2.1Zm4.5-2.1c-.3.1-.5-.1-.6-.4s.1-.5.4-.6h0l1.8-.8a.66.66,0,0,1,.7.2h0a.62.62,0,0,1-.2.7l-1.8.8a.37.37,0,0,0-.3.1Zm4.6-2.2c-.3.1-.5-.1-.6-.4s.1-.5.4-.6h0l1.8-.9a.51.51,0,1,1,.5.9h0l-1.9.9c0,.1-.1.1-.2.1Z"/><polygon class="cls-4" points="297.42 11.4 235.12 18.5 250.82 30.2 297.42 11.4"/><path class="cls-3" d="M250.82,30.7a.37.37,0,0,1-.3-.1l-15.7-11.7c-.2-.1-.2-.3-.2-.5a.78.78,0,0,1,.4-.4l62.2-7c.2,0,.5.1.5.4s-.1.5-.3.6l-46.5,18.8Zm-14.4-11.8,14.5,10.8,42.9-17.3Z"/><polygon class="cls-4" points="250.82 30.2 250.72 42.9 297.42 11.4 250.82 30.2"/><path class="cls-3" d="M250.72,43.4c-.1,0-.2,0-.2-.1a.54.54,0,0,1-.3-.4l.1-12.7a.55.55,0,0,1,.3-.5L297.22,11a.48.48,0,0,1,.6.2.53.53,0,0,1-.2.7L251,43.4C250.92,43.4,250.82,43.5,250.72,43.4Zm.6-12.8-.1,11.4,41.9-28.3Z"/><polygon class="cls-4" points="250.72 42.9 258.02 32.6 297.42 11.4 250.72 42.9"/><path class="cls-3" d="M250.72,43.4a.76.76,0,0,1-.4-.2.37.37,0,0,1,0-.6l7.3-10.3c0-.1.1-.1.2-.2L297.12,11a.66.66,0,0,1,.7.2.62.62,0,0,1-.1.7l-46.6,31.5Zm7.6-10.4-5.6,8,36.1-24.4Z"/><polygon class="cls-4" points="258.02 32.6 278.52 48 297.42 11.4 258.02 32.6"/><path class="cls-3" d="M278.52,48.5a.37.37,0,0,1-.3-.1L257.72,33a.76.76,0,0,1-.2-.4c0-.2.1-.3.3-.4L297.12,11a.52.52,0,0,1,.7.7l-18.9,36.5-.3.3Zm-19.6-15.8,19.4,14.5,17.8-34.6Z"/></g></g><g id="freepik--Device--inject-108"><g id="freepik--device--inject-108-2" data-name="freepik--device--inject-108"><path class="cls-3" d="M172.12,158.7a1.93,1.93,0,0,1-1.9-1.5c-.2-.9-23.2-86.3-27.3-113.3-2.6-17.7,2.6-28.1,7.5-33.8A29.12,29.12,0,0,1,172.82,0c17.8,0,26.9,16.1,29.2,24.6,2,7.4,5.4,20.3,5.5,20.5a2,2,0,0,1-1.5,2.4,2,2,0,0,1-2.3-1.4c0-.1-3.4-13-5.5-20.4S188.12,4,172.82,4a25.38,25.38,0,0,0-19.4,8.7c-4.3,5-9,14.4-6.6,30.6,4,26.8,27,112,27.2,112.9a1.86,1.86,0,0,1-1.4,2.4A4.33,4.33,0,0,0,172.12,158.7Z"/><path class="cls-3" d="M59.32,254.5c-8.4,0-15.2-2.9-18.6-11.3-6.9-16.8,14.6-27.8,39.4-40.5,8-4.1,16.3-8.4,24.1-13,29.9-17.8,27.7-29.7,27.7-29.8a2,2,0,0,1,1.5-2.4,2,2,0,0,1,2.3,1.4c.4,1.5,2.9,15-29.5,34.3-8,4.8-16.3,9-24.4,13.2-23.1,11.8-43,22.1-37.5,35.5,6.1,14.9,27.1,7.8,47.3,1,12.5-4.2,24.4-8.2,31.8-6.2,6.6,1.8,7.9,6.4,8.6,8.8a3.58,3.58,0,0,0,.4,1.1,2,2,0,0,1-3,2.7,6.78,6.78,0,0,1-1.3-2.7c-.6-2.2-1.4-4.9-5.9-6.1-6.2-1.7-17.5,2.1-29.4,6.2C81.62,250.4,69.42,254.5,59.32,254.5Z"/><path class="cls-3" d="M269.52,215.2a3.55,3.55,0,0,1-1-.2,2,2,0,0,1-.8-2.7h0c10.4-18.8,29.3-24.3,45.9-29.2a171.36,171.36,0,0,0,17.1-5.7c6.4-2.7,10-9.3,8.3-15-3-9.8-20.5-17.5-60.9-9.8-18.1,3.4-32,2-41.3-4.4-8-5.5-9.4-12.6-9.5-12.9a2,2,0,0,1,1.6-2.3,2,2,0,0,1,2.3,1.6c.2.9,4.9,21.9,46,14.1,54.2-10.3,63.9,7,65.5,12.6,2.4,7.8-2.2,16.3-10.5,19.9a156.47,156.47,0,0,1-17.5,5.9c-16.7,4.9-33.9,10-43.5,27.3A2.49,2.49,0,0,1,269.52,215.2Z"/><path class="cls-3" d="M207.52,57.8a4.08,4.08,0,0,1-3.9-2.9l-4.1-15a4,4,0,0,1,7.7-2.1l4.1,15a4,4,0,0,1-2.8,4.9h0C208.22,57.7,207.82,57.8,207.52,57.8Z"/><path class="cls-4" d="M264.12,212.5s4.8-8.2,9.5-4.8-5.5,10.2-1.4,11.6,12.3-2,15,6.8-5.5,12.9-13.6,10.9S258.72,226.9,264.12,212.5Z"/><path class="cls-3" d="M277.72,238.1a20.07,20.07,0,0,1-4.2-.5,15.45,15.45,0,0,1-10.1-7.7c-2.5-4.7-2.4-10.7.2-17.5v-.1c.1-.2,2.9-5,6.5-5.8a4.41,4.41,0,0,1,3.7.8c3,2.1.9,5.4-.7,7.8-.8,1.3-1.7,2.6-1.5,3.2,0,.1.1.3.6.5a18.1,18.1,0,0,0,4,.4c4.1,0,9.2,0,11.3,6.8,1.4,4.5-.1,7.4-1.6,8.9A10.63,10.63,0,0,1,277.72,238.1Zm-13.1-25.3c-2.5,6.5-2.5,12.2-.2,16.6a14.49,14.49,0,0,0,9.5,7.2c4.7,1.2,9.3.3,11.7-2.3,1.9-2,2.3-4.7,1.3-8-1.9-6-6.4-6-10.3-6.1a16.41,16.41,0,0,1-4.4-.4,1.5,1.5,0,0,1-1.2-1.1c-.4-1.1.5-2.5,1.5-4.1,1.8-2.9,3-5,.9-6.5a3.75,3.75,0,0,0-2.9-.7c-3.1.8-5.7,4.9-5.9,5.4Z"/><path class="cls-3" d="M283.82,236.6a.37.37,0,0,1-.3-.1.49.49,0,0,1-.1-.7c5.7-8.7-3.5-15.2-3.9-15.5a.49.49,0,0,1-.1-.7.48.48,0,0,1,.7-.1h0c.1.1,10.5,7.3,4.2,16.9C284.12,236.5,284,236.6,283.82,236.6Z"/><path class="cls-4" d="M267.72,322.6l-99.6,15.5c-6.6,1-13.4-4.5-15.1-12.4L101.32,85.6c-3-11.3,7.2-17.4,13.8-18.4l94.7-13.3c6.6-1,13.4,4.5,15.1,12.4L283.32,306C285,313.9,280.92,320.6,267.72,322.6Z"/><path class="cls-3" d="M166.52,338.8c-6.3,0-12.4-5.5-14-12.9L100.82,85.8a13.41,13.41,0,0,1,1.6-11.2c3.1-4.8,8.8-7.2,12.6-7.8l94.7-13.3c6.9-1.1,13.9,4.7,15.7,12.8L283.82,306a12.62,12.62,0,0,1-1.6,10c-2.6,3.7-7.4,6.1-14.4,7.1l-99.6,15.5C167.62,338.7,167,338.7,166.52,338.8Zm44.9-284.5a7.57,7.57,0,0,0-1.5.1l-94.7,13.3c-3.7.6-9,2.8-11.9,7.3a12.73,12.73,0,0,0-1.5,10.4l51.8,240.1c1.6,7.6,8.2,13,14.5,12l99.6-15.6h0c6.7-1,11.3-3.3,13.7-6.7a11.5,11.5,0,0,0,1.5-9.2L224.52,66.4C222.92,59.4,217.32,54.3,211.42,54.3Z"/><path class="cls-3" d="M274.52,319.9l-99.6,15.5c-6.6,1-13.4-4.5-15.1-12.4L108,82.9c-1.7-7.9,2.3-15.1,8.9-16.2l99.6-15.6c6.6-1,13.4,4.5,15.1,12.4l51.7,240.1C285.22,311.6,281.12,318.8,274.52,319.9Z"/><path class="cls-3" d="M173.32,336c-6.3,0-12.4-5.5-14-12.9L107.52,83a15.45,15.45,0,0,1,2.1-12,11,11,0,0,1,7.3-4.7l99.6-15.6c6.9-1.1,13.9,4.7,15.7,12.8l51.7,240a15.65,15.65,0,0,1-2,12.1,11,11,0,0,1-7.3,4.7L175,335.8A5.24,5.24,0,0,1,173.32,336Zm44.9-284.5a7.57,7.57,0,0,0-1.5.1l-99.6,15.5a9.63,9.63,0,0,0-6.6,4.3,14.89,14.89,0,0,0-1.9,11.3l51.7,240.1c1.6,7.6,8.2,13,14.6,12l99.6-15.6a9.63,9.63,0,0,0,6.6-4.3,14.46,14.46,0,0,0,1.9-11.3l-51.8-240c-1.5-6.9-7.1-12-13-12.1Z"/><polygon class="cls-1" points="275.02 291.3 162.52 308.9 115.42 90.4 227.92 72.8 275.02 291.3"/><path class="cls-3" d="M162.52,309.4a.66.66,0,0,1-.5-.4L114.92,90.5a.6.6,0,0,1,.1-.4c.1-.1.2-.2.3-.2l112.5-17.6a.55.55,0,0,1,.6.4l47.1,218.5a.6.6,0,0,1-.1.4c-.1.1-.2.2-.3.2l-112.6,17.6ZM116,90.8l46.9,217.5,111.5-17.4L227.52,73.4Z"/><path class="cls-4" d="M179.42,140.6c1.1,5.5.4,10.3-1.6,10.6s-4.6-3.8-5.7-9.3-.4-10.3,1.6-10.6S178.22,135,179.42,140.6Z"/><path class="cls-4" d="M204.12,135.9c1.1,5.5.4,10.3-1.6,10.7s-4.5-3.8-5.7-9.3-.4-10.3,1.6-10.6S202.92,130.4,204.12,135.9Z"/><path class="cls-4" d="M191.42,184.8c-11.8,0-23.5-7.2-30.7-19.5a1.9,1.9,0,0,1,1-2.6,2,2,0,0,1,2.4.6c7.5,12.6,19.9,19.4,31.8,17.1,11.5-2.1,20.3-12.5,22.4-26.4a2,2,0,1,1,4,.6c-2.3,15.6-12.4,27.3-25.6,29.8A30.76,30.76,0,0,1,191.42,184.8Z"/><rect class="cls-5" x="135.12" y="176.16" width="11.7" height="1" transform="translate(-79.66 225.69) rotate(-63.94)"/><rect class="cls-5" x="123.57" y="122.38" width="87.3" height="1" transform="translate(-16.63 219.12) rotate(-63.94)"/><rect class="cls-5" x="149.11" y="99.29" width="34.7" height="1" transform="translate(0.96 201.16) rotate(-62.43)"/><rect class="cls-5" x="221.04" y="275.55" width="39.5" height="1" transform="translate(-114.2 366.38) rotate(-63.18)"/><rect class="cls-5" x="249.1" y="247.06" width="12.3" height="1" transform="translate(-80.85 363.65) rotate(-63.18)"/><path class="cls-4" d="M185,69.2,153.92,74a2.64,2.64,0,0,1-2.8-2.3h0a2.27,2.27,0,0,1,1.4-2.9h0l.2-.1,31.2-4.7a2.64,2.64,0,0,1,2.8,2.3h0a2.36,2.36,0,0,1-1.7,2.9Z"/><path class="cls-3" d="M153.72,74.6a3.4,3.4,0,0,1-3-3.8,3.36,3.36,0,0,1,.5-1.4,2.47,2.47,0,0,1,1.6-1l31.1-4.9a3.44,3.44,0,0,1,2.9,5.2,2.75,2.75,0,0,1-1.6,1h0l-31.1,4.8C154,74.5,153.82,74.6,153.72,74.6Zm30.5-10.2H184l-31.1,4.9a1.46,1.46,0,0,0-.9.6,2.78,2.78,0,0,0-.3,1.8,2.17,2.17,0,0,0,2.2,1.9L185,68.7a1.46,1.46,0,0,0,.9-.6,2.43,2.43,0,0,0-.8-3.3,3.55,3.55,0,0,0-.9-.4Z"/><path class="cls-4" d="M224.92,309.3c-.6-2.6-2.8-4.5-5-4.1s-3.5,2.8-3,5.4,2.8,4.5,5,4.1S225.52,311.9,224.92,309.3Z"/><path class="cls-3" d="M221.42,315.2c-2.3,0-4.4-1.9-5-4.6a5.87,5.87,0,0,1,.7-4.3,4.11,4.11,0,0,1,2.7-1.7c2.5-.4,5,1.6,5.6,4.5a5.43,5.43,0,0,1-.7,4.3,4.11,4.11,0,0,1-2.7,1.7A1.27,1.27,0,0,1,221.42,315.2Zm-1-9.6h-.5a3,3,0,0,0-2,1.3,4.31,4.31,0,0,0-.6,3.5c.5,2.4,2.5,4.1,4.5,3.8a3,3,0,0,0,2-1.3,4.31,4.31,0,0,0,.6-3.5h0a4.67,4.67,0,0,0-4-3.8Z"/><path class="cls-4" d="M211.52,229.7l-45.9,7.9c-3,.5-5,3-4.5,5.5l5.9,28.5.2.7,3.1,14.9L179,275l40.6-7c3-.5,5-3,4.5-5.5L218,233.2C217.42,230.8,214.52,229.2,211.52,229.7Z"/><path class="cls-3" d="M170,288.5l-9.4-45.3a4.06,4.06,0,0,1,.8-3.5,6.48,6.48,0,0,1,4.2-2.6l45.9-7.9c3.3-.6,6.4,1.2,7,4l6.1,29.3a4.78,4.78,0,0,1-.7,3.5,6.48,6.48,0,0,1-4.2,2.6l-40.4,7Zm42.7-58.4a3.4,3.4,0,0,0-1,.1l-45.9,7.9a5.34,5.34,0,0,0-3.5,2.1,3.47,3.47,0,0,0-.6,2.8l8.9,43,8.1-11.4,40.8-7a5.13,5.13,0,0,0,3.4-2.1,3.47,3.47,0,0,0,.6-2.8l-6.1-29.2A4.61,4.61,0,0,0,212.72,230.1Z"/><path class="cls-1" d="M208.22,246.9h0a4.87,4.87,0,0,0-.1-1.2v-.2c-.8-3.8-5.1-6.2-9.6-5.4-3.5.6-6.2,3-6.8,5.9a8.65,8.65,0,0,0-8.6-3.2c-4.5.8-7.5,4.5-6.8,8.2,0,0-.1,3.2,7.5,7.9,6.3,3.9,11.6,7,11.7,6.9.1.1,4-4.6,8.4-10.3a19.37,19.37,0,0,0,3.9-7,3.59,3.59,0,0,0,.2-1.1A.65.65,0,0,0,208.22,246.9Z"/><path class="cls-3" d="M195.62,266.2c-.1,0-.1,0-.2-.1h0c-.9-.3-3.5-1.8-11.7-6.9-7.3-4.5-7.8-7.8-7.8-8.3a7.05,7.05,0,0,1,1.1-5.1,9.35,9.35,0,0,1,6.1-3.7,9.51,9.51,0,0,1,8.5,2.6,8.82,8.82,0,0,1,6.9-5.3c4.8-.8,9.3,1.8,10.2,5.8v.2a6.15,6.15,0,0,1,.1,1.4h0v.5a3.59,3.59,0,0,1-.2,1.1,22.16,22.16,0,0,1-4,7.2c-5.8,7.5-7.7,9.7-8.5,10.3h0a.91.91,0,0,1-.5.3Zm.1-.9ZM184.82,243a8.6,8.6,0,0,0-1.6.1,8,8,0,0,0-5.4,3.3,5.52,5.52,0,0,0-.9,4.3v.1s.1,3,7.3,7.5c5.8,3.5,10.3,6.2,11.3,6.7.8-.9,4-4.8,8.1-10.1a19.84,19.84,0,0,0,3.8-6.8,3.55,3.55,0,0,0,.2-1v-.4h0a3.4,3.4,0,0,0-.1-1v-.2c-.7-3.6-4.8-5.9-9-5.1-3.2.5-5.8,2.8-6.3,5.5a.55.55,0,0,1-.6.4h0c-.1,0-.2-.1-.3-.2A7.74,7.74,0,0,0,184.82,243Z"/><path class="cls-4" d="M137.42,248.7s-2.9-9-8.3-6.7,3.1,11.2-1.2,11.6-11.5-4.7-16.1,3.4,2.5,13.8,10.9,13.6S139.62,263.9,137.42,248.7Z"/><path class="cls-3" d="M122.32,271.1c-5,0-9.4-2-11.3-5.3-1.1-1.9-1.9-4.9.4-9.1,3.5-6.1,8.5-5,12.5-4.2a13.31,13.31,0,0,0,4,.5c.5-.1.6-.3.7-.3.4-.6-.2-2-.7-3.5-1-2.7-2.3-6.3,1.1-7.8a5,5,0,0,1,3.8,0c3.4,1.5,5.1,6.8,5.1,7v.1c1.1,7.2-.2,13.1-3.6,17.1a15.08,15.08,0,0,1-11.5,5.3Zm-3.2-18.2c-2.5,0-4.9.9-6.9,4.3-1.7,2.9-1.8,5.7-.4,8.1,1.8,3,6.1,4.9,10.9,4.8a14.17,14.17,0,0,0,10.8-5c3.2-3.8,4.4-9.4,3.4-16.3-.2-.5-1.8-5.1-4.6-6.4a3.9,3.9,0,0,0-3,0c-2.3,1-1.7,3.3-.5,6.5.7,1.8,1.2,3.4.6,4.4a1.72,1.72,0,0,1-1.4.8,15.35,15.35,0,0,1-4.3-.5A17.66,17.66,0,0,0,119.12,252.9Z"/><path class="cls-3" d="M118.52,257.2c-.3,1.1-1,1.8-1.6,1.6s-.9-1.2-.6-2.2,1-1.8,1.6-1.7S118.82,256.2,118.52,257.2Z"/><path class="cls-3" d="M114.52,259c-.3,1.1-1,1.8-1.6,1.7s-.9-1.2-.6-2.3,1-1.8,1.6-1.6S114.82,257.9,114.52,259Z"/><path class="cls-3" d="M117,263.4c-.3,1.1-1,1.8-1.6,1.7s-.9-1.2-.6-2.3,1-1.8,1.6-1.6S117.32,262.3,117,263.4Z"/><path class="cls-3" d="M117.42,269.5a.55.55,0,0,1-.5-.3.48.48,0,0,1,.2-.6h0a6.51,6.51,0,0,0,2.3-1.5.49.49,0,0,1,.7.1c.2.2.1.5,0,.7a8.06,8.06,0,0,1-2.7,1.6C117.62,269.5,117.52,269.6,117.42,269.5Z"/><path class="cls-3" d="M121.12,266.6a.37.37,0,0,1-.3-.1.49.49,0,0,1-.1-.7h0a10.85,10.85,0,0,0,1.7-3.4,9.18,9.18,0,0,0-.6-7.6.53.53,0,0,1,.2-.7.66.66,0,0,1,.7.2,11.6,11.6,0,0,1-1.2,12.2A.6.6,0,0,1,121.12,266.6Z"/></g></g></svg>