<svg id="图层_1" data-name="图层 1" xmlns="http://www.w3.org/2000/svg" viewBox="0 0 473 416.04"><defs><style>.cls-1,.cls-15{fill:#1174eb;}.cls-2,.cls-6,.cls-9{fill:#fff;}.cls-18,.cls-2,.cls-5{isolation:isolate;}.cls-2{opacity:0.7;}.cls-11,.cls-14,.cls-17,.cls-3{fill:none;}.cls-12,.cls-13,.cls-14,.cls-15,.cls-16,.cls-3,.cls-4,.cls-6,.cls-7{stroke:#263238;}.cls-11,.cls-12,.cls-13,.cls-14,.cls-15,.cls-16,.cls-17,.cls-3,.cls-4,.cls-6,.cls-7{stroke-linecap:round;stroke-linejoin:round;}.cls-4{fill:#4687ff;}.cls-5{opacity:0.2;}.cls-7{fill:#83b6ff;}.cls-8{opacity:0.64;}.cls-10,.cls-12,.cls-16{fill:#263238;}.cls-11,.cls-17{stroke:#fff;}.cls-11,.cls-14{stroke-width:2px;}.cls-13{fill:#adadad;}.cls-19{fill:#666;}</style></defs><g id="freepik--background-simple--inject-19"><path class="cls-1" d="M422.9,279.7s51.1-57.4,34.9-157.3S358.1-14.3,302.8,4.9,235,57.6,189.8,76.7s-131.1,6-174,70.3S27.7,317.8,97.5,384.6,345.3,409.6,422.9,279.7Z"/><path class="cls-2" d="M422.9,279.7s51.1-57.4,34.9-157.3S358.1-14.3,302.8,4.9,235,57.6,189.8,76.7s-131.1,6-174,70.3S27.7,317.8,97.5,384.6,345.3,409.6,422.9,279.7Z"/></g><g id="freepik--Plant--inject-19"><line class="cls-3" x1="23.7" y1="291.7" x2="36.4" y2="412.8"/><line class="cls-3" x1="34.6" y1="395.7" x2="29" y2="389.8"/><path class="cls-4" d="M30.8,391.7a6.92,6.92,0,0,0-2.4-5.2c-1.6-1.4-9.8-4.9-10.6-2C16.9,387.7,25.4,393.9,30.8,391.7Z"/><line class="cls-3" x1="30.8" y1="391.7" x2="23" y2="386.8"/><line class="cls-3" x1="36" y1="409.1" x2="30.5" y2="404.5"/><path class="cls-4" d="M32.3,406.4a6.92,6.92,0,0,0-2.4-5.2c-1.6-1.4-9.8-4.9-10.6-2C18.4,402.4,26.9,408.6,32.3,406.4Z"/><line class="cls-3" x1="32.3" y1="406.4" x2="24.5" y2="401.5"/><line class="cls-3" x1="30.8" y1="358.9" x2="25.2" y2="353.9"/><path class="cls-4" d="M27.1,355.8a6.92,6.92,0,0,0-2.4-5.2c-1.6-1.4-9.8-4.9-10.6-2C13.2,351.8,21.6,358,27.1,355.8Z"/><line class="cls-3" x1="27.1" y1="355.8" x2="19.2" y2="350.9"/><line class="cls-3" x1="32.3" y1="374.5" x2="26.7" y2="368.6"/><path class="cls-4" d="M28.6,370.5a6.92,6.92,0,0,0-2.4-5.2c-1.6-1.4-9.8-4.9-10.6-2C14.7,366.5,23.2,372.8,28.6,370.5Z"/><line class="cls-3" x1="28.6" y1="370.5" x2="20.7" y2="365.6"/><line class="cls-3" x1="28.3" y1="335.7" x2="22.7" y2="330"/><path class="cls-4" d="M24.6,331.9a6.92,6.92,0,0,0-2.4-5.2c-1.6-1.4-9.8-4.9-10.6-2C10.7,327.9,19.1,334.2,24.6,331.9Z"/><line class="cls-3" x1="24.6" y1="331.9" x2="16.7" y2="327"/><line class="cls-3" x1="25.6" y1="310.1" x2="20.2" y2="306"/><path class="cls-4" d="M22.1,307.9a6.92,6.92,0,0,0-2.4-5.2c-1.6-1.4-9.8-4.9-10.6-2C8.2,303.9,16.6,310.2,22.1,307.9Z"/><line class="cls-3" x1="22.1" y1="307.9" x2="14.2" y2="303"/><line class="cls-3" x1="34" y1="387.5" x2="38.7" y2="379.9"/><path class="cls-4" d="M37.3,382.2a7,7,0,0,1,1.3-5.6c1.2-1.7,8.6-6.8,10-4.1C50.1,375.4,43.1,383.3,37.3,382.2Z"/><line class="cls-3" x1="37.3" y1="382.2" x2="42.8" y2="377"/><line class="cls-3" x1="30" y1="348.8" x2="34.7" y2="341.2"/><path class="cls-4" d="M33.2,343.5a7,7,0,0,1,1.3-5.6c1.2-1.7,7-6,8.4-3.3C44.4,337.6,39,344.6,33.2,343.5Z"/><line class="cls-3" x1="33.2" y1="343.5" x2="40.3" y2="336.8"/><line class="cls-3" x1="28.2" y1="331.8" x2="32.9" y2="324.2"/><path class="cls-4" d="M31.5,326.5a7,7,0,0,1,1.3-5.6c1.2-1.7,8.6-6.8,10-4.1C44.3,319.7,37.3,327.6,31.5,326.5Z"/><line class="cls-3" x1="31.5" y1="326.5" x2="38.5" y2="319.7"/><line class="cls-3" x1="25.6" y1="306.9" x2="30.3" y2="299.3"/><path class="cls-4" d="M28.9,301.6a7,7,0,0,1,1.3-5.6c1.2-1.7,8.6-6.8,10-4.1C41.7,294.8,34.7,302.6,28.9,301.6Z"/><line class="cls-3" x1="28.9" y1="301.6" x2="36" y2="294.8"/><path class="cls-4" d="M23.6,290.9a7,7,0,0,1,1.3-5.6c1.2-1.7,8.6-6.8,10-4.1C36.4,284.2,29.4,292,23.6,290.9Z"/><line class="cls-3" x1="23.6" y1="290.9" x2="30.7" y2="284.2"/><path class="cls-4" d="M24,291.2a6.71,6.71,0,0,1-5.4-1.9c-1.6-1.4-5.9-9.3-3-10.4C18.7,277.8,25.7,285.6,24,291.2Z"/><line class="cls-3" x1="24" y1="291.2" x2="18.1" y2="283.5"/><line class="cls-3" x1="44" y1="256.8" x2="44" y2="412.5"/><line class="cls-3" x1="59.3" y1="309.5" x2="48.6" y2="413.1"/><line class="cls-3" x1="48.8" y1="412.4" x2="45.7" y2="408.8"/><path class="cls-4" d="M45.7,408.8a7,7,0,0,0-1.3-5.6c-1.2-1.7-8.6-6.8-10-4.1C32.9,402.1,39.9,409.9,45.7,408.8Z"/><line class="cls-3" x1="45.7" y1="408.8" x2="39" y2="402.4"/><line class="cls-3" x1="52.6" y1="375.5" x2="48" y2="371.6"/><path class="cls-4" d="M49.4,372.9a7,7,0,0,0-1.3-5.6c-1.2-1.7-8.6-6.8-10-4.1C36.6,366.2,43.6,374,49.4,372.9Z"/><line class="cls-3" x1="49.4" y1="372.9" x2="42.7" y2="366.5"/><line class="cls-3" x1="51.1" y1="392.9" x2="46.4" y2="385.4"/><path class="cls-4" d="M47.9,387.7a7,7,0,0,0-1.3-5.6c-1.2-1.7-8.6-6.8-10-4.1C35.1,380.9,42.1,388.7,47.9,387.7Z"/><line class="cls-3" x1="47.9" y1="387.7" x2="41.2" y2="381.2"/><line class="cls-3" x1="54.9" y1="351.9" x2="50.4" y2="346.8"/><path class="cls-4" d="M51.9,349a7,7,0,0,0-1.3-5.6c-1.2-1.7-8.6-6.8-10-4.1C39.1,342.3,46.1,350.1,51.9,349Z"/><line class="cls-3" x1="51.9" y1="349" x2="45.2" y2="342.6"/><line class="cls-3" x1="57.2" y1="329.4" x2="52.9" y2="322.8"/><path class="cls-4" d="M54.4,325a7,7,0,0,0-1.3-5.6c-1.2-1.7-8.6-6.8-10-4.1C41.6,318.3,48.6,326.1,54.4,325Z"/><line class="cls-3" x1="54.4" y1="325" x2="47.7" y2="318.6"/><line class="cls-3" x1="49.7" y1="405.4" x2="55.8" y2="398.9"/><path class="cls-4" d="M53.9,400.9a6.92,6.92,0,0,1,2.4-5.2c1.6-1.4,9.8-4.9,10.6-2C67.8,396.9,59.4,403.1,53.9,400.9Z"/><line class="cls-3" x1="53.9" y1="400.9" x2="62.3" y2="395.7"/><line class="cls-3" x1="53.7" y1="366.7" x2="59.8" y2="360.2"/><path class="cls-4" d="M58,362.2a6.92,6.92,0,0,1,2.4-5.2c1.6-1.4,9.8-4.9,10.6-2C71.9,358.2,63.4,364.4,58,362.2Z"/><line class="cls-3" x1="58" y1="362.2" x2="66.3" y2="357"/><line class="cls-3" x1="55.5" y1="349.7" x2="61.6" y2="343.2"/><path class="cls-4" d="M59.7,345.2a6.92,6.92,0,0,1,2.4-5.2c1.6-1.4,9.8-4.9,10.6-2C73.6,341.2,65.2,347.4,59.7,345.2Z"/><line class="cls-3" x1="59.7" y1="345.2" x2="68.1" y2="340"/><line class="cls-3" x1="58" y1="323.5" x2="64.2" y2="318.3"/><path class="cls-4" d="M62.3,320.2a6.92,6.92,0,0,1,2.4-5.2c1.6-1.4,9.8-4.9,10.6-2C76.2,316.2,67.8,322.4,62.3,320.2Z"/><line class="cls-3" x1="62.3" y1="320.2" x2="70.6" y2="315.1"/><path class="cls-4" d="M59.4,308.7a6.92,6.92,0,0,1,2.4-5.2c1.6-1.4,9.8-4.9,10.6-2C73.3,304.7,64.8,311,59.4,308.7Z"/><line class="cls-3" x1="59.4" y1="308.7" x2="67.7" y2="303.6"/><path class="cls-4" d="M59.7,309.1a6.62,6.62,0,0,1-4.9-3c-1.2-1.7-3.8-10.3-.8-10.8C57.2,294.9,62.5,303.9,59.7,309.1Z"/><line class="cls-3" x1="59.7" y1="309.1" x2="55.5" y2="300.3"/><line class="cls-3" x1="43.7" y1="395.5" x2="38.7" y2="388.7"/><path class="cls-4" d="M40.3,390.8a7.13,7.13,0,0,0-1.8-5.4c-1.4-1.6-9.3-5.9-10.4-3.1C26.9,385.4,34.7,392.5,40.3,390.8Z"/><line class="cls-3" x1="40.3" y1="390.8" x2="33" y2="385.1"/><line class="cls-3" x1="43.9" y1="362.8" x2="38.7" y2="358"/><path class="cls-4" d="M40.3,360.1a7,7,0,0,0-1.8-5.4c-1.4-1.6-9.3-5.9-10.4-3.1C26.9,354.7,34.7,361.7,40.3,360.1Z"/><line class="cls-3" x1="40.3" y1="360.1" x2="33" y2="354.4"/><line class="cls-3" x1="44.1" y1="328.9" x2="38.7" y2="321.9"/><path class="cls-4" d="M40.3,324a7,7,0,0,0-1.8-5.4c-1.4-1.6-9.3-5.9-10.4-3.1C26.9,318.6,34.7,325.7,40.3,324Z"/><line class="cls-3" x1="40.3" y1="324" x2="33" y2="318.3"/><line class="cls-3" x1="43.7" y1="302.4" x2="38.7" y2="297.9"/><path class="cls-4" d="M40.3,300a7,7,0,0,0-1.8-5.4c-1.4-1.5-9.3-5.9-10.4-3.1C26.9,294.6,34.7,301.6,40.3,300Z"/><line class="cls-3" x1="40.3" y1="300" x2="33" y2="294.3"/><line class="cls-3" x1="44" y1="278.4" x2="38.8" y2="274.5"/><path class="cls-4" d="M40.3,275.8a7,7,0,0,0-1.8-5.4c-1.4-1.6-9.3-5.9-10.4-3.1C26.9,270.4,34.7,277.5,40.3,275.8Z"/><line class="cls-3" x1="40.3" y1="275.8" x2="33" y2="270.2"/><line class="cls-3" x1="45" y1="403.6" x2="49.4" y2="398.1"/><path class="cls-4" d="M47.7,400.2a6.71,6.71,0,0,1,1.9-5.4c1.4-1.6,9.3-5.9,10.4-3.1C61.2,394.8,53.4,401.8,47.7,400.2Z"/><line class="cls-3" x1="47.7" y1="400.2" x2="55.5" y2="394.2"/><line class="cls-3" x1="44" y1="356.3" x2="49.4" y2="349.2"/><path class="cls-4" d="M47.7,351.3a6.71,6.71,0,0,1,1.9-5.4c1.4-1.6,9.3-5.9,10.4-3.1C61.2,345.9,53.4,353,47.7,351.3Z"/><line class="cls-3" x1="47.7" y1="351.3" x2="55.5" y2="345.3"/><line class="cls-3" x1="44" y1="332.1" x2="49.4" y2="325.1"/><path class="cls-4" d="M47.7,327.2a6.83,6.83,0,0,1,1.9-5.4c1.4-1.6,9.3-5.9,10.4-3.1C61.2,321.8,53.4,328.8,47.7,327.2Z"/><line class="cls-3" x1="47.7" y1="327.2" x2="55.5" y2="321.2"/><line class="cls-3" x1="44" y1="300.3" x2="49.4" y2="293.2"/><path class="cls-4" d="M47.7,295.3a6.71,6.71,0,0,1,1.9-5.4c1.4-1.6,9.3-5.9,10.4-3.1C61.2,289.9,53.4,297,47.7,295.3Z"/><line class="cls-3" x1="47.7" y1="295.3" x2="55.5" y2="289.3"/><line class="cls-3" x1="44.2" y1="272.7" x2="49.5" y2="268.6"/><path class="cls-4" d="M47.7,270.2a6.71,6.71,0,0,1,1.9-5.4c1.4-1.6,9.3-5.9,10.4-3.1C61.2,264.8,53.4,271.9,47.7,270.2Z"/><line class="cls-3" x1="47.7" y1="270.2" x2="55.5" y2="264.2"/><path class="cls-4" d="M43.7,259.1a7,7,0,0,1,1.8-5.4c1.4-1.6,9.3-5.9,10.4-3.1C57.1,253.7,49.3,260.8,43.7,259.1Z"/><line class="cls-3" x1="43.7" y1="259.1" x2="51.4" y2="253.1"/><path class="cls-4" d="M44,259.4a6.92,6.92,0,0,1-5.2-2.4c-1.4-1.6-4.9-9.8-2-10.6C40.1,245.5,46.3,254,44,259.4Z"/><line class="cls-3" x1="44" y1="259.4" x2="38.9" y2="251.1"/></g><g id="freepik--Map--inject-19"><polygon class="cls-5" points="78.8 118.4 135.3 127.5 227.6 114.8 296.5 133.1 365.9 117.6 430.3 240.7 326.5 265.2 227 254.9 110.6 265.9 37.3 236.7 78.8 118.4"/><polygon class="cls-6" points="62.8 68 125.1 78 227 64 302.9 84.2 379.5 67.1 450.5 202.9 336.1 229.9 226.3 218.6 97.9 230.7 17 198.4 62.8 68"/><polygon class="cls-7" points="74.7 76.7 123.4 85.5 226.4 72.3 304.5 90.8 372.1 75.4 430 197.9 332.3 222.3 227 212.1 98.8 221 37.6 193.9 74.7 76.7"/><g class="cls-8"><path class="cls-9" d="M352,130.9l-37.7,9.9H302.8S317.6,155,346,157.7s35-2.7,35-2.7Z"/><polygon class="cls-9" points="187.9 81.2 162.7 86.6 159.4 95.4 175.3 92.1 171.5 111.8 190.1 109.6 193.4 87.2 187.9 81.2"/><polygon class="cls-9" points="172 115.1 170.4 124.9 181.3 122.7 181.3 114.5 172 115.1"/><polygon class="cls-9" points="165.5 115.1 163.3 126 141.9 128.7 142.5 121.1 165.5 115.1"/><path class="cls-9" d="M291.5,163.7c-10.4,0-18.9,5.4-18.9,12s8.5,12,18.9,12,18.9-5.4,18.9-12S301.9,163.7,291.5,163.7Zm0,17.5c-4.7,0-8.6-2.4-8.6-5.5s3.8-5.5,8.6-5.5,8.6,2.5,8.6,5.5-3.8,5.5-8.6,5.5Z"/><polygon class="cls-9" points="141.9 206.9 156.7 170.8 123.9 172.5 119 185.1 134.3 185.1 122.8 211.3 141.9 206.9"/><polygon class="cls-9" points="205.4 128.2 227.3 123.3 255.7 132 233.8 135.8 227.8 130.9 205.4 135.3 205.4 128.2"/><polygon class="cls-9" points="206.5 107.4 207 121.6 216.9 119.4 215.2 106.9 206.5 107.4"/><polygon class="cls-9" points="70.3 115.1 61.6 140.2 97.1 149.5 102.6 129.8 87.3 115.6 70.3 115.1"/></g><path class="cls-6" d="M422.5,182.1l-14.1-14c2.4-.3,4.8-.6,7.1-1l-1.8-3.8c-2.8.4-5.8.8-8.9,1.2l-42.2-41.7c11.2-1.7,21.9-3.1,30-3.9l-1.8-3.8c-8.8.9-20,2.5-31.5,4.2l.1-.7-1.4-.2-14.9-14.7,33.4-18.9-1.7-3.6-34.6,19.6L325.4,86.2l-4.6,1,30.5,30.2-97.1-15.2c-.5-1.1-.9-2.1-1.4-3.2a124.21,124.21,0,0,1-6.4-21.8l-4.3-1a135.56,135.56,0,0,0,7,24.1l.5,1.2-22.8-3.6L203.3,100l-.8-24.4-4,.5,2.2,66.8c-1.4,0-2.7,0-4-.1-36.9-1.1-76.9-11.9-82.8-15.1-4-2.2-13-12.6-17.8-18.5,9.8-.5,19.3-1.8,24.9-4.7,7.7-4,25.9-14.6,41.5-23.8L152.4,82c-13.3,7.8-26.9,15.6-33.2,18.9-11.3,5.9-41.7,4.7-53.3,3.9l-1.2,3.9c4.3.3,11.9.7,20.3.7,2,0,4.2,0,6.3-.1,1.5,1.9,14.7,18.5,20.8,21.8s46.4,14.4,84.6,15.6c1.4,0,2.8.1,4.3.1l.3,9.1-30.6.9-.5-.2-.1.2-60.7,1.8L53.3,144.4l-1.2,3.8,34.5,8.7-32,44.6,3.7,1.6,32.5-45.2,18.1,4.6,59.7-1.7-17.3,49-20.4,9,11.8-.8L227,180.9l60.2-32.2a94.35,94.35,0,0,0,22,11,175.85,175.85,0,0,0,21.5,6.1l-8.8,17.6-36.4,34.4,5.3.5L324.9,186l.2-.2,9.6-19.2a210.63,210.63,0,0,0,30.7,3.5l-8.1,46,4.2-1.1,7.9-44.8c2.1.1,4.2.1,6.2.1a255.23,255.23,0,0,0,27.6-1.5l24.2,24ZM156.3,207.6l16.6-47,28.4-.8.9,27.6Zm192.4-86.7c-23.2,3.7-45.4,7.6-50.2,8.6l-4,.8c-4.3.9-11,2.3-19,3.8a98.57,98.57,0,0,1-19.3-27.7ZM203.5,103.8l23.1-2,24.7,3.9A104.85,104.85,0,0,0,270.8,135c-13.6,2.5-30.4,5.1-46.8,6.6l-.2-.2-.5.3c-6.4.6-12.7.9-18.8,1Zm1.4,42.8c3.9-.1,7.9-.2,11.9-.5L205.1,154Zm20.4,30.6-19.1,8.4-.9-26.9,19.6-13.2c17.5-1.6,35.5-4.5,49.5-7.1a112.11,112.11,0,0,0,9.1,7.7Zm85.2-21.4a93.57,93.57,0,0,1-31.4-18.3c6.9-1.3,12.5-2.5,16.3-3.3l3.9-.8c7.1-1.4,33.4-6,58.3-9.9l42,41.5C374.4,167.5,342,166.9,310.5,155.8Z"/><line class="cls-3" x1="104.8" y1="186.6" x2="98.4" y2="224.1"/><line class="cls-3" x1="122.5" y1="82.9" x2="106.1" y2="179"/><line class="cls-3" x1="226.2" y1="68" x2="226.7" y2="106.9"/><line class="cls-3" x1="307.1" y1="114.1" x2="329.5" y2="208.6"/><line class="cls-3" x1="301.1" y1="88.8" x2="306" y2="109.6"/><line class="cls-3" x1="227.3" y1="215.7" x2="226.7" y2="192.7"/></g><g id="freepik--Icon--inject-19"><circle class="cls-10" cx="348.79" cy="21.1" r="13.3" transform="translate(4.57 81.18) rotate(-13.36)"/><path class="cls-11" d="M355.3,19.9a7.1,7.1,0,1,0-7.1,7.1h0A7.13,7.13,0,0,0,355.3,19.9Z"/><line class="cls-11" x1="353" y1="25.5" x2="357.5" y2="29.6"/></g><g id="freepik--search-bar--inject-19"><path class="cls-6" d="M315.6,35.8H103A14.51,14.51,0,0,1,88.5,21.3h0A14.43,14.43,0,0,1,102.9,6.8H315.5A14.51,14.51,0,0,1,330,21.3h0a14.36,14.36,0,0,1-14.4,14.5Z"/></g><g id="freepik--Character--inject-19"><path class="cls-12" d="M427,321H368a11.43,11.43,0,0,0-11.5,10.8l-4.6,81H434l4.5-79.7A11.44,11.44,0,0,0,427.7,321Z"/><path class="cls-6" d="M313.2,291.7s-30,6.4-32.6,9.7-53.3,87.2-53.3,87.2,2.1,20.7,5.5,20.3,2.5,2.5,14-5.1,33.9-26.2,33.9-26.2l11.8,35.1h99s.8-110.5-2.1-118.1-27.5-13.1-36-13.1S313.2,291.7,313.2,291.7Z"/><path class="cls-12" d="M310.8,329.8l6.8,6.8,29.3-54.1c-12.4,2.5-33.7,9.3-33.7,9.3s-15.1,3.2-24.8,6.2l-12.8,11.4c-11.3,18.2-38,62.2-46,75.4l3.2,24.1c3.4-.4,2.5,2.5,13.9-5.1s33.9-26.2,33.9-26.2l5.6,16.6c-1.4-7-6.7-35.3-4.8-40.2C283.7,348.4,310.8,329.8,310.8,329.8Z"/><polygon class="cls-6" points="306.9 305 280.9 342.8 280.9 321.3 306.9 305"/><path class="cls-6" d="M318,348.9s-3.1,24.4-2.7,28.7,7.4,30.2,7.4,30.2"/><path class="cls-6" d="M314.5,289.3s-7.2,13.9-12.7,26.1-5.5,21.2-5.5,21.2,18.6-12.3,20.7-13.5,6.4-3.4,6.4-3.4l23.7,16.9s2.1-19.5,3-40.2-6.4-28.8-12.3-29.2S314.5,289.3,314.5,289.3Z"/><path class="cls-12" d="M257.8,247.3s-10.9,25.6-7.8,32.1,10.6-4.1,10.6-4.1,3.4,23.1,9.3,21.2,15-9.1,15-9.1,9.6,15.3,16.1,15.3,13.5-13.5,13.5-13.5,9.9-39.1,10.4-43.3-1.3-31.1-16.3-36.3-37,8.8-43.2,17.1S257.8,247.3,257.8,247.3Z"/><path class="cls-13" d="M273,268.8s-3.4,11.9-3.4,15.7-.8,17.4-1.3,19.9-43.6,55.4-49.9,66-9.7,20.3-3.4,28.8,12.7,11.4,17.8,9.7,4.6-.4,12.7-9.3,32.2-81.2,32.2-81.2a104.9,104.9,0,0,0,11-6.3c3.4-2.5,9.3-16.5,9.3-16.5Z"/><path class="cls-6" d="M215,399.2c6.4,8.5,12.7,11.4,17.8,9.7s4.6-.4,12.7-9.3c1.7-1.9,4.2-6.8,7-13.2-9.7,2.4-21.2,4-23.5,2.6-6.8-4-10.6-18.6-10.6-18.6C212.1,381,208.7,390.7,215,399.2Z"/><path class="cls-13" d="M268.9,241s4,8.9,4,14.3-5.8,12.9-2.2,18.7,14.7,28.5,14.7,28.5,5.8,3.1,11.6,0,17.8-8.9,17.8-8.9-1.8,31.2.5,38.8,3.6,11.1,3.6,11.1,5.8-25.4,12-37,9.4-32.1,9.4-32.1a148.33,148.33,0,0,1,0-16.1c.5-8.1-12-38.8-32.1-45.5s-31.2,0-36.6,8C266.2,229,268.9,241,268.9,241Z"/><path class="cls-3" d="M281.4,267.8s6.7,8.5,15.6,1.3"/><path class="cls-3" d="M288.1,279.4s13.8,3.6,21-9.8"/><path class="cls-10" d="M300.8,254.8c0,1.8-.9,3.2-2.1,3.2s-2.1-1.5-2.1-3.2.9-3.2,2.1-3.2S300.8,253,300.8,254.8Z"/><path class="cls-10" d="M281.1,254.8c0,1.8-.9,3.2-2.1,3.2s-2.1-1.5-2.1-3.2.9-3.2,2.1-3.2S281.1,253,281.1,254.8Z"/><path class="cls-14" d="M297.2,239s6.2-.8,10.4,2.6"/><path class="cls-14" d="M282.6,239a12.75,12.75,0,0,0-8.3,3.1"/><polygon class="cls-12" points="314.9 293.7 327.5 287.4 314.5 306.4 314.9 293.7"/><path class="cls-12" d="M324.3,180.4s-16.5-11.1-25.4-9.4-30.8,17-34.8,18.3-25.4,11.6-25.4,19.2,9.8,10.7,9.8,10.7-24.1,21-17.9,25,21.9-4.5,21.9-4.5-9.8,15.6-3.6,17,15.6-8.9,15.6-8.9,2.2,3.6,8.9-3.1,15.2-20.1,15.2-20.1-.9,8.9,4,7.6,11.2-10.3,11.2-10.3,4,41,10.3,37.9,6.2-7.1,6.2-7.1.4,16.5,4.5,15.2,6.2-5.8,6.2-5.8,4.5,17,9.8,16.5a6.8,6.8,0,0,0,6.2-5.4s1.3,18.7,12.9,14.7,13.4-16.5,13.4-16.5,8.5,9.8,13.4,2.7,1.7-16.1,1.7-16.1,8-.9,7.1-7.6S379,223.6,379,223.6s9.8,1.3,3.1-9.8-18.7-21-27.2-26.3a56.5,56.5,0,0,0-16.1-7.1s13.4-4.9,3.1-6.2S324.3,180.4,324.3,180.4Z"/><path class="cls-6" d="M359.9,332l2,35.4s-8-1.3-8,0,1.6,17.4,1.6,17.4,15.2,8.9,23.3,11,6.8,9.3,10.6,8,12.3-2.5,14-10.2-3-22-3.4-23.7-3-67.3-8.5-78.7-15.2-11.4-21.6-8.9-13.1,14-13.1,14"/><path class="cls-3" d="M396.9,378.3l3.5,4.9"/><path class="cls-3" d="M365.7,365.8s16.5-.9,19.9,0c1.7.4,5.6,5,8.9,9.3"/><path class="cls-3" d="M387.3,359.8c5.1,1.7,6.3,3.8,6.3,3.8"/><path class="cls-3" d="M367.4,361.9a105.24,105.24,0,0,1,11.2-2.1"/><path class="cls-13" d="M396.2,396.1c.5-7.5-8.1-21.6-18.2-23.2-11-1.7-29.6,6.8-54.6,9.7s-36.4,3.8-44.9,3.8-27.9-5.5-31.3-4.7-19.1,17.4-22.4,21.2-2.6,5-1.9,5.4,2.6-.6,2.6-.6,1.5,2,3.4,2a6.22,6.22,0,0,0,3.4-1.3,5.85,5.85,0,0,0,4.1.7c2.1-.6,14-8.6,14.9-8.9s6.7-2,6.7-2a69,69,0,0,1-10.2,6.7c-4.3,2-7.6,3.9-5.4,5s6-.2,8.9-1.5,6.7-3,8-3.2,11.3-5.2,11.3-5.2,8.4,1.9,12.3,2.2,12.5-3.2,12.5-3.2,30.9,5.4,46.5,6.3,40.6,4.5,48.9.2C390.7,405.8,395.7,403.8,396.2,396.1Z"/><path class="cls-3" d="M232.2,408.6s12.9-12.9,14.3-14,9.6-3.4,9.6-3.4"/><path class="cls-3" d="M225.5,407.8s13.7-14.4,15.4-16.4,7.9-4.5,7.9-4.5"/></g><g id="freepik--Locators--inject-19"><path class="cls-12" d="M88.6,105.5a9.35,9.35,0,0,0-9.3,9.3h0c0,5.1,9.3,14.7,9.3,14.7s9.3-9.6,9.3-14.7a9.28,9.28,0,0,0-9.3-9.3Zm0,13a3.15,3.15,0,1,1,3.2-3.1h0a3.27,3.27,0,0,1-3.2,3.1Z"/><path class="cls-12" d="M185.1,62.5a9.35,9.35,0,0,0-9.3,9.3h0c0,5.1,9.3,14.7,9.3,14.7s9.3-9.6,9.3-14.7a9.28,9.28,0,0,0-9.3-9.3Zm0,13a3.15,3.15,0,1,1,3.2-3.1h0a3.27,3.27,0,0,1-3.2,3.1Z"/><path class="cls-12" d="M169.4,128a9.28,9.28,0,0,0-9.3,9.3h0c0,5.1,9.3,14.7,9.3,14.7s9.3-9.6,9.3-14.7A9.35,9.35,0,0,0,169.4,128Zm0,13a3.1,3.1,0,1,1,3.1-3.1,3.25,3.25,0,0,1-3.1,3.1Z"/><path class="cls-12" d="M355.9,122a9.28,9.28,0,0,0-9.3,9.3h0c0,5.1,9.3,14.7,9.3,14.7s9.3-9.6,9.3-14.7a9.35,9.35,0,0,0-9.3-9.3Zm0,13a3.1,3.1,0,1,1,3.1-3.1,3.25,3.25,0,0,1-3.1,3.1Z"/><path class="cls-12" d="M249.4,151.5a9.28,9.28,0,0,0-9.3,9.3h0c0,5.1,9.3,14.7,9.3,14.7s9.3-9.6,9.3-14.7a9.35,9.35,0,0,0-9.3-9.3Zm0,13a3.1,3.1,0,1,1,3.1-3.1,3.25,3.25,0,0,1-3.1,3.1Z"/><path class="cls-12" d="M288.4,71a9.28,9.28,0,0,0-9.3,9.3h0c0,5.1,9.3,14.7,9.3,14.7s9.3-9.6,9.3-14.7a9.35,9.35,0,0,0-9.3-9.3Zm0,13a3.1,3.1,0,1,1,3.1-3.1,3.25,3.25,0,0,1-3.1,3.1Z"/></g><g id="freepik--Device--inject-19"><rect class="cls-12" x="68.1" y="407.9" width="189.6" height="5.4"/><rect class="cls-4" x="191.1" y="407.9" width="66.5" height="5.4"/><path class="cls-6" d="M196.5,407.9H73.4L66.3,326a6.31,6.31,0,0,1,5.6-7H181.7a7.88,7.88,0,0,1,7.7,7.1Z"/><path class="cls-15" d="M194.1,407.9H71.1L64,326a6.31,6.31,0,0,1,5.6-7H179.4a7.88,7.88,0,0,1,7.7,7.1Z"/><polygon class="cls-12" points="188.7 344.8 71.1 407.9 194.1 407.9 188.7 344.8"/><ellipse class="cls-16" cx="123.99" cy="360.86" rx="7.4" ry="8.1" transform="translate(-222.39 200.82) rotate(-46.24)"/></g><g id="freepik--Mug--inject-19"><path class="cls-6" d="M455.7,376.9c-2.5-3.3-10.4-5.2-12.9-4v6.4c11.7-1.6,13.6,10,9.8,15.9a10,10,0,0,1-9.8,4.3V405c2,.7,5.7,1,10.2-2.7C460.2,396.4,461.3,384.4,455.7,376.9Z"/><rect class="cls-6" x="409.1" y="363.6" width="34.6" height="49.2"/><path class="cls-17" d="M416.1,334.8a7.68,7.68,0,0,1,.4-4.5"/><path class="cls-17" d="M416.5,358.3s7-4.5,4.5-11c-1.3-3.4-3-6.5-4.1-9.4"/><path class="cls-17" d="M424.5,358.3s7-4.5,4.5-11c-.8-2-1.6-3.8-2.5-5.6"/><path class="cls-17" d="M435.5,343.8c-2.3-5-4.6-9.4-3-13.5"/><path class="cls-17" d="M432.5,358.3s5.9-3.8,4.9-9.5"/></g><g id="freepik--Table--inject-19"><line class="cls-3" x1="0.5" y1="412.9" x2="472.5" y2="412.9"/></g><g class="cls-18"><path class="cls-19" d="M104.27,26.06a5.19,5.19,0,0,1-2-2,5.83,5.83,0,0,1,0-5.65,5.19,5.19,0,0,1,2-2,5.48,5.48,0,0,1,2.81-.73A5,5,0,0,1,111,17.42l-1.15,1.11a3.75,3.75,0,0,0-1.22-1,3.5,3.5,0,0,0-1.55-.33,4,4,0,0,0-2,.5,3.67,3.67,0,0,0-1.41,1.41,4.52,4.52,0,0,0,0,4.21,3.67,3.67,0,0,0,1.41,1.41,4,4,0,0,0,2,.5,3.78,3.78,0,0,0,3-1.51l1.17,1.13a5.22,5.22,0,0,1-1.85,1.41,5.79,5.79,0,0,1-5.19-.22Z"/><path class="cls-19" d="M116.17,15.92H118l4,10.63h-1.79l-1-2.73h-4.34l-1,2.73h-1.8Zm2.57,6.38L117.55,19l-.4-1.21h-.09l-.4,1.21-1.19,3.26Z"/><path class="cls-19" d="M123.48,15.92h1.63V25h4.58v1.54h-6.21Z"/><path class="cls-19" d="M131.35,15.92H133V26.55h-1.64Z"/><path class="cls-19" d="M135.38,15.92h6.44v1.54H137v3.12h4.34v1.55H137v4.42h-1.63Z"/><path class="cls-19" d="M145.6,26.05a5.36,5.36,0,0,1-2-2,5.8,5.8,0,0,1,0-5.6,5.51,5.51,0,0,1,9.57,0,5.8,5.8,0,0,1,0,5.6,5.57,5.57,0,0,1-7.58,2Zm4.76-1.32a3.65,3.65,0,0,0,1.39-1.42,4.48,4.48,0,0,0,0-4.15,3.65,3.65,0,0,0-1.39-1.42,3.86,3.86,0,0,0-5.31,1.42,4.48,4.48,0,0,0,0,4.15,3.74,3.74,0,0,0,1.4,1.42,3.94,3.94,0,0,0,3.91,0Z"/><path class="cls-19" d="M155.78,15.92h3.73a3.73,3.73,0,0,1,1.75.41,3.14,3.14,0,0,1,1.68,2.84,2.86,2.86,0,0,1-.69,1.89,3.34,3.34,0,0,1-1.73,1.11v.07l2.92,4.22v.09h-1.88l-2.84-4.17h-1.29v4.17h-1.64Zm3.69,5a1.87,1.87,0,0,0,1.3-.49,1.63,1.63,0,0,0,.53-1.23,1.7,1.7,0,0,0-.49-1.2,1.68,1.68,0,0,0-1.28-.51h-2.11v3.43Z"/><path class="cls-19" d="M164.85,15.92h1.93l4.81,7.81h.09l-.09-2.05V15.92h1.62V26.55h-1.7l-5-8.21h-.08l.08,2.05v6.16h-1.61Z"/><path class="cls-19" d="M175.61,15.92h1.64V26.55h-1.64Z"/><path class="cls-19" d="M182.67,15.92h1.86l4,10.63h-1.8l-1-2.73h-4.33l-1,2.73h-1.8Zm2.57,6.38L184.05,19l-.4-1.21h-.09l-.4,1.21L182,22.3Z"/></g></svg>