<svg id="图层_1" data-name="图层 1" xmlns="http://www.w3.org/2000/svg" viewBox="0 0 475.87 432.4"><defs><style>.cls-1,.cls-16{fill:#1174eb;}.cls-2,.cls-9{fill:#fff;}.cls-19,.cls-2{isolation:isolate;}.cls-2{opacity:0.7;}.cls-3{opacity:0.2;}.cls-11,.cls-12,.cls-17,.cls-4,.cls-5,.cls-7{fill:none;}.cls-4,.cls-5,.cls-6{stroke:#000;}.cls-10,.cls-11,.cls-12,.cls-13,.cls-14,.cls-15,.cls-16,.cls-17,.cls-18,.cls-21,.cls-4,.cls-5,.cls-6,.cls-7,.cls-9{stroke-linejoin:round;}.cls-11,.cls-5{stroke-width:0.5px;}.cls-13,.cls-18,.cls-6,.cls-8{fill:#263238;}.cls-7{stroke:#ccc;}.cls-10,.cls-11,.cls-12,.cls-13,.cls-14,.cls-15,.cls-16,.cls-21,.cls-9{stroke:#263238;}.cls-10,.cls-14{fill:#d9d9d9;}.cls-15{fill:#8f8f8f;}.cls-17,.cls-18{stroke:#fff;}.cls-20{fill:#666;}.cls-21{fill:#a6a6a6;}</style></defs><g id="freepik--background-simple--inject-13"><path class="cls-1" d="M437.91,150c-15.4-33.2-38.5-62.8-60.1-92.4C346,14.1,259.11-15.1,188.91,18.3s-63.5,87.8-85.3,131.2S19.21,235.7,10,280c-14.2,68.2-3.5,116.1,76.1,144.6,60.4,21.6,125.7-19.2,184.7-29.3,39.2-6.7,82-1.6,119.7-17.3,46.3-19.3,61.9-78.4,65.6-124a217.21,217.21,0,0,0-3.8-61.8A196.49,196.49,0,0,0,437.91,150Z"/><path class="cls-2" d="M437.91,150c-15.4-33.2-38.5-62.8-60.1-92.4C346,14.1,259.11-15.1,188.91,18.3s-63.5,87.8-85.3,131.2S19.21,235.7,10,280c-14.2,68.2-3.5,116.1,76.1,144.6,60.4,21.6,125.7-19.2,184.7-29.3,39.2-6.7,82-1.6,119.7-17.3,46.3-19.3,61.9-78.4,65.6-124a217.21,217.21,0,0,0-3.8-61.8A196.49,196.49,0,0,0,437.91,150Z"/></g><g id="freepik--Graphics--inject-13"><g class="cls-3"><path class="cls-4" d="M284.91,23.5h135.9a7.28,7.28,0,0,1,7.3,7.3v3.7a7.28,7.28,0,0,1-7.3,7.3H284.91a7.28,7.28,0,0,1-7.3-7.3V30.8A7.34,7.34,0,0,1,284.91,23.5Z"/><line class="cls-5" x1="405.01" y1="27.7" x2="405.01" y2="36.4"/><line class="cls-4" x1="398.31" y1="27.8" x2="390.21" y2="35.9"/><line class="cls-4" x1="390.21" y1="27.8" x2="398.31" y2="35.9"/><path class="cls-6" d="M419,36.1h0a.56.56,0,0,1-.9.1h0l-3.3-3,.6-.8,3.5,2.7A.68.68,0,0,1,419,36.1Z"/><path class="cls-4" d="M410.51,29.1a3.12,3.12,0,1,0,4.4-.4,3.07,3.07,0,0,0-4.4.4Zm4.5,3.7a2.7,2.7,0,1,1-.4-3.8,2.69,2.69,0,0,1,.4,3.8Z"/></g><path class="cls-7" d="M138.41,56.8a3.62,3.62,0,0,1-5,.5l-.1-.1-16.2-14.7a10.71,10.71,0,0,0,1.8-1.9,10.71,10.71,0,0,0,1.5-2.2l17.3,13.3a3.52,3.52,0,0,1,.6,5Z"/><path class="cls-7" d="M116.81,17.5a16.58,16.58,0,0,1,4.6,5.9,17.18,17.18,0,1,1-4.6-5.9Zm.4,21.6a14.07,14.07,0,1,1-1.9-19.8,14.1,14.1,0,0,1,1.9,19.8Z"/><path class="cls-7" d="M375.61,419a3,3,0,0,1,.1-4.1l.1-.1,13.4-11.4a10.92,10.92,0,0,0,1.3,1.7c.5.5,1,1,1.6,1.5l-12.4,12.5a2.84,2.84,0,0,1-4,0h0Z"/><path class="cls-7" d="M409.31,405.8a12.92,12.92,0,0,1-5.2,3,13.52,13.52,0,1,1,5.2-3ZM392,403.9a11.32,11.32,0,1,1,16,.6h0a11.36,11.36,0,0,1-16-.6Z"/><g class="cls-3"><line class="cls-4" x1="73.91" y1="381.7" x2="51.01" y2="404.7"/><line class="cls-4" x1="51.01" y1="381.7" x2="73.91" y2="404.7"/></g><g class="cls-3"><line class="cls-4" x1="456.91" y1="165.7" x2="434.01" y2="188.7"/><line class="cls-4" x1="434.01" y1="165.7" x2="456.91" y2="188.7"/></g><g class="cls-3"><line class="cls-4" x1="37.91" y1="34.7" x2="15.01" y2="57.7"/><line class="cls-4" x1="15.01" y1="34.7" x2="37.91" y2="57.7"/></g></g><g id="freepik--Plants--inject-13"><path class="cls-8" d="M58.71,179.8c.1,0-.8-3.8-.9-4.1-1-2.7-4.5-7.4-7.7-7.3a3.8,3.8,0,0,0-3.6,4v.4c.3,2.3,2.4,4.1,4.3,5.2C53.11,179.3,58.71,179.8,58.71,179.8Z"/><path class="cls-8" d="M64.21,153.7c-3,1.2-4.3,6.9-4.1,9.7,0,.2.7,4.1.8,4.1H61c-.2.9-.4,1.9-.7,2.9-.4,2-.8,4.1-1.1,6.6a70,70,0,0,0-.6,7.9,51.38,51.38,0,0,0,.6,8.8v.1c-.4-.9-1.7-3.2-1.8-3.3-1.7-2.4-6.3-5.9-9.3-5a3.87,3.87,0,0,0-2.4,4.9h0c0,.1.1.2.1.4.9,2.1,3.4,3.3,5.5,3.9,2.3.6,7.5-.4,7.9-.4a66.6,66.6,0,0,0,2.2,8.8c.5,1.7,1.1,3.3,1.7,5l-.8-1.4c-1.7-2.4-6.2-5.9-9.3-5a3.87,3.87,0,0,0-2.4,4.9l.2.4c.9,2.1,3.4,3.3,5.5,3.9s6.5-.2,7.7-.4c.2.6.5,1.3.7,1.9,1.2,3,2.3,6.1,3.4,9.1.4,1.1.7,2.1,1,3.2a13,13,0,0,0-.7-1.2c-1.7-2.4-6.3-5.9-9.3-5a3.81,3.81,0,0,0-2.4,4.8h0a.76.76,0,0,0,.2.4c.9,2.1,3.4,3.3,5.5,3.9s6.1-.1,7.5-.4l.9,3.3a14.19,14.19,0,0,1,.5,2.2c.1.8.3,1.5.4,2.2.2,1.4.4,2.9.6,4.2.1,1,.2,1.9.3,2.8-.4-1.1-1.1-3.1-1.2-3.3a14.69,14.69,0,0,0-5.1-5.4,4.35,4.35,0,0,0-.4-.7,3.83,3.83,0,0,0-5.3-.9l-.3.2c-2.4,2.2-1.6,8-.4,10.6.1.1,1,1.7,1.7,2.7l-1.4-1.6c-.9-1.1-1.9-2.1-2.9-3.2l-1.6-1.6c-.5-.6-1.1-1-1.7-1.6-1.3-1.2-2.8-2.4-4.2-3.5.9-.8,4.2-3.8,5.1-5.7s1.5-4.7.4-6.7a3.72,3.72,0,0,0-5.1-1.7l-.4.2c-2.7,1.8-2.8,7.6-2,10.4a23.79,23.79,0,0,0,1.3,3.1,26.93,26.93,0,0,0-2.7-2c-2.6-1.9-5.3-3.7-8-5.6l-2.5-1.7c.3-.3,4.3-3.7,5.3-5.9.9-2,1.5-4.7.4-6.7a3.84,3.84,0,0,0-5.1-1.8l-.4.2c-2.7,1.8-2.8,7.6-2,10.4.1.2,1.2,3,1.5,3.7-1.8-1.2-3.6-2.5-5.3-3.8q-3.45-2.7-6.6-5.7c.1-.1,4.3-3.7,5.3-6,.9-2,1.5-4.7.4-6.7a3.86,3.86,0,0,0-5.1-1.7l-.3.2c-2.7,1.8-2.8,7.6-2,10.4.1.2,1.3,3.2,1.6,3.7-.1-.1-.3-.2-.4-.4a60.51,60.51,0,0,1-5.5-6.8,42.31,42.31,0,0,1-2.4-4c.8-.6,4.7-3.3,5.8-5.2s2-4.5,1.2-6.6a3.82,3.82,0,0,0-4.9-2.3l-.4.2c-2.9,1.5-3.6,7.3-3.1,10.1,0,.1.5,1.7.8,2.8-.3-.6-.7-1.2-1-1.8-1.1-2.2-2-4.2-2.8-6-.4-1-.8-2-1.2-2.9.5-1,2.6-5.1,2.7-7.3s-.3-4.9-2-6.4a3.9,3.9,0,0,0-5.4.2H5l-.3.3c-1.8,2.6.2,8.1,1.9,10.4l2.9,3v-.1c.3.9.7,1.8,1.1,2.8.8,1.9,1.6,3.9,2.7,6.1a58.3,58.3,0,0,0,3.9,6.9,52.21,52.21,0,0,0,5.4,7l.1.1c-.8-.5-3.2-1.7-3.4-1.8-2.7-1-8.5-1.5-10.5,1a3.83,3.83,0,0,0,.7,5.4h0l.3.2c1.9,1.2,4.7.9,6.7.2,2.3-.8,6.1-4.5,6.4-4.8a64.65,64.65,0,0,0,6.7,6.1c1.4,1.1,2.8,2.2,4.2,3.2-.7-.4-1.4-.7-1.5-.8-2.7-1.1-8.5-1.5-10.5,1a3.83,3.83,0,0,0,.7,5.4h0l.3.2c1.9,1.2,4.7.9,6.7.2s5.5-3.7,6.4-4.5c.6.4,1.1.8,1.7,1.2,2.7,1.9,5.3,3.8,7.9,5.7.9.7,1.8,1.4,2.6,2.1a9.88,9.88,0,0,0-1.3-.6c-2.7-1-8.5-1.5-10.5,1a3.83,3.83,0,0,0,.7,5.4c.1.1.2.2.3.2,1.9,1.2,4.7.9,6.7.2s5-3.5,6.1-4.5c.9.7,1.7,1.5,2.5,2.2.5.5,1.1,1,1.6,1.6s1,1.1,1.5,1.6c.9,1.1,1.9,2.2,2.8,3.2.6.7,1.2,1.4,1.8,2.2-.9-.7-2.7-2-2.8-2.1-2.5-1.4-8.2-2.8-10.6-.6a3.92,3.92,0,0,0,0,5.5l.2.2c1.7,1.5,4.5,1.6,6.6,1.2,2.3-.4,6.5-3.4,7-3.7,1,1.2,1.9,2.4,2.8,3.5,1.1,1.4,2.2,2.8,3.1,4.1.6-.1,1.4-.2,2.2-.4-1.1-1.5-2.4-3.1-3.8-4.9-1-1.2-2-2.5-3.2-3.8a28.19,28.19,0,0,0,2.9-3.9c2.3.8,7,.7,7.6.7.2,1.5.3,3,.4,4.4.2,2.4.3,4.6.4,6.6l2-.5c-.1-1.9-.3-4-.5-6.3-.2-1.6-.3-3.2-.6-4.9.6-.2,5.5-1.6,7.3-3.1,1.6-1.4,3.3-3.6,3.2-5.9a3.8,3.8,0,0,0-3.9-3.7h-.4c-3.2.5-5.7,5.8-6.1,8.6,0,.2-.1,2-.1,3.2l-.3-2.1c-.2-1.4-.4-2.8-.7-4.3-.1-.7-.3-1.4-.4-2.2a14.19,14.19,0,0,0-.5-2.2,51.65,51.65,0,0,0-1.6-5.2c1.2-.2,5.6-.8,7.4-2s3.8-3.1,4.1-5.4a3.8,3.8,0,0,0-3.3-4.2h-.4c-3.2,0-6.5,4.8-7.4,7.6,0,.2-.4,2.2-.6,3.4-.4-1-.7-2.1-1.1-3.1-1.1-3-2.4-6-3.6-9.1-.4-.9-.7-1.9-1.1-2.8.4-.1,5.6-.7,7.7-2,1.8-1.1,3.8-3.1,4.1-5.4a3.83,3.83,0,0,0-3.3-4.3h-.4c-3.2,0-6.5,4.8-7.4,7.6-.1.2-.6,3.1-.7,3.9-.8-2-1.6-4.1-2.3-6.1a65.6,65.6,0,0,1-2.3-8.4c.2,0,5.6-.7,7.7-2,1.8-1.1,3.8-3.1,4.1-5.4a3.83,3.83,0,0,0-3.3-4.3H68c-3.2,0-6.5,4.8-7.4,7.6a32.7,32.7,0,0,0-.7,4c0-.2-.1-.3-.1-.5a51.19,51.19,0,0,1-.8-8.7,36.18,36.18,0,0,1,.2-4.7c1,0,5.7-.2,7.7-1.1s4.2-2.6,4.6-4.9a3.78,3.78,0,0,0-2.8-4.6h0l-.4-.1c-3.2-.3-7,4.1-8.2,6.7-.1.1-.5,1.7-.9,2.8.1-.7.1-1.4.2-2a57.6,57.6,0,0,1,1-6.6q.3-1.65.6-3c1-.6,5-2.8,6.3-4.6s2.5-4.3,1.8-6.5a3.88,3.88,0,0,0-4.6-2.9h0C64.41,153.7,64.31,153.7,64.21,153.7Z"/><path class="cls-8" d="M7.41,205.4c2.5-.2,7.5-2.9,7.5-2.9l-3-2.9c-2.3-1.7-7.8-3.7-10.4-1.8a3.83,3.83,0,0,0-.7,5.4l.3.3C2.51,205.2,5.31,205.6,7.41,205.4Z"/><path class="cls-8" d="M224.31,49s2.8-3.5,2.9-3.7c1.7-2.8,3.3-9.2.9-12A4.38,4.38,0,0,0,222,33l-.3.3c-1.8,1.9-1.9,5.1-1.5,7.5C220.61,43.6,224.31,49,224.31,49Z"/><path class="cls-8" d="M251.21,35c-3.2-1.8-9.2,1.1-11.6,3.3-.2.2-3.1,3.6-3,3.6h.1c-1,.5-2,.9-3,1.5-2,1.1-4.3,2.3-6.6,3.8-2.6,1.6-5,3.3-7.4,5.1a60.46,60.46,0,0,0-7.4,6.9l-.1.1c.4-1,1.6-3.8,1.6-4,.9-3.2.8-9.8-2.3-11.8a4.38,4.38,0,0,0-6,1.4h0a.76.76,0,0,0-.2.4c-1.2,2.3-.5,5.4.5,7.6,1.2,2.5,5.7,6.4,6.1,6.7a79.15,79.15,0,0,0-6.1,8.2c-1.1,1.7-2.1,3.4-3.2,5.1a9.47,9.47,0,0,0,.7-1.8c.9-3.2.8-9.8-2.3-11.8a4.38,4.38,0,0,0-6,1.4c-.1.1-.1.2-.2.4-1.2,2.3-.5,5.4.5,7.6s4.9,5.7,5.9,6.5c-.4.7-.8,1.3-1.2,2-1.9,3.2-3.7,6.4-5.6,9.6-.7,1.1-1.4,2.2-2.1,3.2.3-.8.6-1.4.6-1.5.9-3.2.8-9.8-2.3-11.8a4.36,4.36,0,0,0-6,1.3h0a.76.76,0,0,0-.2.4c-1.2,2.3-.5,5.4.5,7.6s4.5,5.3,5.7,6.4a35.53,35.53,0,0,1-2.3,3.1c-.5.7-1,1.3-1.6,2L185,99.4c-1.1,1.2-2.2,2.4-3.4,3.5-.8.8-1.5,1.5-2.2,2.3.7-1.1,2-3.2,2.1-3.4a16.23,16.23,0,0,0,1.1-8.4,3.18,3.18,0,0,0,.3-.9,4.38,4.38,0,0,0-3-5.4h0c-.2,0-.3-.1-.5-.1-3.6-.5-8.2,4.3-9.6,7.3-.1.2-.8,2.2-1.2,3.4.1-.8.3-1.5.4-2.3.3-1.6.5-3.2.8-4.9.1-.8.2-1.7.3-2.5s.1-1.7.2-2.6c.1-2,.1-4.1.1-6.2,1.4.2,6.4,1,8.7.4s5.2-2,6.2-4.4a4.35,4.35,0,0,0-2.1-5.8c-.1-.1-.3-.1-.5-.2-3.5-1.1-8.7,3-10.6,5.7-.1.2-1.2,2.3-1.8,3.4,0-1.2-.1-2.5-.1-3.8-.2-3.7-.5-7.4-.8-11.1-.1-1.1-.2-2.3-.3-3.4.5.1,6.4,1.1,9.1.5,2.4-.6,5.2-2,6.2-4.4a4.24,4.24,0,0,0-2.1-5.7h0c-.1-.1-.3-.1-.4-.2-3.5-1.1-8.7,3-10.6,5.7-.1.2-1.8,3.2-2.1,4-.2-2.5-.4-5-.4-7.4a81.86,81.86,0,0,1,.3-9.9c.2,0,6.4,1.2,9.1.5,2.4-.6,5.2-2,6.2-4.4a4.35,4.35,0,0,0-2.1-5.8h0c-.1-.1-.3-.1-.4-.2-3.5-1.1-8.7,3-10.6,5.7-.1.2-1.9,3.5-2.2,4.1v-.6a52.34,52.34,0,0,1,2.1-9.7,36.82,36.82,0,0,1,1.8-5c1.1.3,6.3,1.8,8.8,1.4s5.4-1.5,6.7-3.7a4.38,4.38,0,0,0-1.4-6H187c-.1-.1-.3-.1-.4-.2-3.4-1.5-9,2.1-11.2,4.5-.1.1-1.2,1.6-1.9,2.7.3-.7.6-1.5.9-2.1,1.1-2.6,2.3-4.8,3.3-6.8.6-1.1,1.2-2.1,1.7-3.1,1.3-.2,6.4-1.3,8.4-2.8s4.1-3.8,4.1-6.4a4.37,4.37,0,0,0-4-4.7h-.4c-3.7.3-7,6-7.8,9.2-.1.3-.6,4.7-.6,4.7h.1c-.5.9-1.1,1.9-1.7,2.9-1.1,2-2.3,4.2-3.5,6.8a61,61,0,0,0-3.3,8.4,56.06,56.06,0,0,0-2.4,9.8v.1c-.2-1.1-.8-4-.8-4.2-1-3.1-4.8-8.6-8.4-8.6a4.35,4.35,0,0,0-4.2,4.5V34c.3,2.6,2.6,4.8,4.7,6.1,2.4,1.4,8.3,2.2,8.8,2.2a87.66,87.66,0,0,0-.6,10.3c0,2,.1,4,.2,6-.2-.9-.4-1.7-.4-1.8-1-3.1-4.8-8.6-8.4-8.6a4.35,4.35,0,0,0-4.2,4.5v.5c.2,2.6,2.6,4.8,4.7,6.1s7.2,2,8.5,2.2c0,.8.1,1.5.1,2.3.2,3.7.5,7.4.6,11v3.8a11.63,11.63,0,0,1-.3-1.6c-1-3.1-4.8-8.6-8.4-8.6a4.27,4.27,0,0,0-4.2,4.4v.5c.2,2.6,2.6,4.8,4.7,6.1s6.7,2,8.3,2.2c0,1.3-.1,2.6-.2,3.8-.1.9-.1,1.7-.2,2.5s-.2,1.7-.3,2.5c-.3,1.6-.5,3.2-.8,4.8-.2,1.1-.4,2.1-.6,3.1a33.12,33.12,0,0,0-.2-4c-.5-3.2-3.4-9.2-7-9.8a4.39,4.39,0,0,0-4.9,3.8v.5c-.1,2.6,1.8,5.1,3.7,6.7,2.1,1.7,7.6,3.3,8.3,3.5-.4,1.7-.7,3.4-1.1,4.9-.5,2.1-.9,4-1.4,5.7.5.5,1.2,1,2,1.7.5-2.1,1-4.4,1.6-6.9.4-1.7.7-3.6,1.1-5.5a52.4,52.4,0,0,0,5.6-.2c.9,2.6,4.4,6.7,4.9,7.2-1.2,1.2-2.4,2.4-3.6,3.5-2,1.9-3.9,3.6-5.6,5.1a13.3,13.3,0,0,0,1.9,1.4c1.6-1.5,3.3-3.1,5.2-5,1.3-1.2,2.6-2.6,3.9-4,.6.4,5.3,3.7,8,4.2,2.4.4,5.6.3,7.5-1.4a4.4,4.4,0,0,0,.5-6.1h0l-.3-.3c-2.8-2.4-9.2-.9-12,.8-.2.1-1.9,1.4-2.9,2.2.6-.6,1.1-1.1,1.6-1.7,1.1-1.2,2.2-2.4,3.3-3.7.5-.6,1.1-1.3,1.6-2s1.1-1.4,1.6-2.1c1.2-1.7,2.4-3.4,3.5-5.1,1,1,4.7,4.3,7.1,5.2s5.5,1.2,7.6-.3a4.34,4.34,0,0,0,1.4-6h0c-.1-.1-.2-.3-.3-.4-2.3-2.8-8.9-2.3-12-1.1-.2.1-2.3,1.2-3.4,1.8.7-1.1,1.3-2.1,2-3.2,1.9-3.2,3.6-6.4,5.4-9.7l1.7-3c.4.3,4.7,4.5,7.3,5.4,2.3.8,5.5,1.2,7.6-.3a4.36,4.36,0,0,0,1.4-6h0c-.1-.1-.2-.3-.3-.4-2.4-2.8-9-2.3-12-1.1-.2.1-3.2,1.7-4,2.2,1.2-2.2,2.4-4.3,3.8-6.4a91.88,91.88,0,0,1,5.8-8.1c.2.2,4.7,4.5,7.3,5.4,2.3.8,5.5,1.2,7.6-.3a4.34,4.34,0,0,0,1.4-6h0c-.1-.1-.2-.3-.3-.4-2.3-2.8-9-2.3-12-1.1-.2.1-3.5,1.8-4,2.2a1.76,1.76,0,0,1,.4-.5,66,66,0,0,1,7.1-6.9c1.4-1.2,2.8-2.2,4.2-3.2.8.9,4.3,4.9,6.6,6s5.3,1.8,7.6.6a4.32,4.32,0,0,0,1.7-5.9.1.1,0,0,0-.1-.1c-2-3.1-8.6-3.2-11.8-2.4a32.8,32.8,0,0,0-3.1,1.2c.6-.4,1.3-.9,1.9-1.3,2.3-1.5,4.6-2.8,6.5-3.9,1.1-.6,2.2-1.1,3.1-1.6,1.2.5,6,2.4,8.6,2.3s5.6-.9,7-3a4.33,4.33,0,0,0-.8-6.1h0Z"/><path class="cls-8" d="M164.81,22c2,2.1,8,4.5,8,4.5s.4-4.4.4-4.7c-.1-3.3-2.3-9.5-5.9-10.5a4.43,4.43,0,0,0-5.3,3.2c0,.1-.1.3-.1.4C161.51,17.4,163.21,20.2,164.81,22Z"/><path class="cls-8" d="M454.51,273.2s2-2.6,2.1-2.8c1.2-2.1,2.4-6.8.7-8.9a3.17,3.17,0,0,0-4.5-.2l-.2.2c-1.3,1.4-1.4,3.8-1.1,5.5C451.81,269.3,454.51,273.2,454.51,273.2Z"/><path class="cls-8" d="M474.31,262.9c-2.4-1.3-6.8.8-8.5,2.5a17.4,17.4,0,0,0-2.2,2.7h0c-.7.3-1.4.7-2.2,1.1-1.5.8-3.1,1.7-4.9,2.8s-3.7,2.4-5.5,3.8a37.8,37.8,0,0,0-5.5,5.1l-.1.1c.3-.7,1.2-2.8,1.2-3,.6-2.3.6-7.2-1.7-8.7a3.21,3.21,0,0,0-4.4,1h0c-.1.1-.1.2-.2.3-.9,1.7-.4,4,.4,5.6.9,1.9,4.2,4.7,4.5,4.9a68.54,68.54,0,0,0-4.5,6.1c-.8,1.2-1.6,2.5-2.4,3.8l.5-1.3c.6-2.3.5-7.2-1.7-8.7a3.21,3.21,0,0,0-4.4,1c-.1.1-.1.2-.2.3-.9,1.7-.4,4,.4,5.6a20.89,20.89,0,0,0,4.4,4.8l-.9,1.5c-1.4,2.4-2.7,4.7-4.1,7l-1.5,2.4c.2-.6.4-1,.4-1.1.7-2.3.6-7.2-1.7-8.7a3.21,3.21,0,0,0-4.4,1c-.1.1-.1.2-.2.3-.9,1.7-.4,4,.4,5.6s3.3,3.9,4.2,4.7a19.52,19.52,0,0,1-1.7,2.3l-1.2,1.5-1.2,1.4a30.7,30.7,0,0,1-2.5,2.6l-1.7,1.7c.5-.8,1.5-2.4,1.5-2.5a13.22,13.22,0,0,0,.9-6.2,1.45,1.45,0,0,0,.2-.7,3.09,3.09,0,0,0-2.2-3.9l-.3-.1c-2.7-.4-6,3.2-7.1,5.4-.1.1-.6,1.6-.9,2.5.1-.6.2-1.1.3-1.7.2-1.2.4-2.4.5-3.6a11.08,11.08,0,0,0,.2-1.9,12.1,12.1,0,0,0,.1-1.9c.1-1.5.1-3,.1-4.6a22.13,22.13,0,0,0,6.5.3c1.8-.4,3.9-1.5,4.6-3.3a3.15,3.15,0,0,0-1.5-4.2l-.3-.1c-2.6-.8-6.4,2.2-7.8,4.2-.1.1-.9,1.7-1.4,2.5a26.2,26.2,0,0,0-.1-2.8c-.2-2.7-.4-5.4-.6-8.2-.1-.8-.1-1.7-.2-2.5.4.1,4.7.8,6.7.3,1.8-.5,3.9-1.5,4.6-3.3a3.19,3.19,0,0,0-1.6-4.2h0l-.3-.1c-2.6-.8-6.4,2.2-7.8,4.2-.1.1-1.3,2.4-1.6,2.9-.1-1.8-.3-3.7-.3-5.5a59.33,59.33,0,0,1,.2-7.3c.2,0,4.7.9,6.7.3,1.8-.5,3.9-1.5,4.6-3.3a3.15,3.15,0,0,0-1.5-4.2l-.3-.1c-2.6-.8-6.4,2.2-7.8,4.2-.1.2-1.4,2.5-1.6,3V268a37.24,37.24,0,0,1,1.6-7.2c.4-1.3.8-2.5,1.3-3.7.8.2,4.6,1.3,6.5,1s4-1.1,4.9-2.8a3.24,3.24,0,0,0-1.1-4.4h0l-.3-.2c-2.5-1.1-6.6,1.5-8.2,3.3-.1.1-.9,1.2-1.4,2,.2-.5.4-1.1.6-1.6.8-1.9,1.7-3.6,2.4-5,.4-.8.9-1.6,1.3-2.3.9-.2,4.7-1,6.2-2.1s3.1-2.8,3.1-4.7a3.17,3.17,0,0,0-3-3.4h-.3c-2.7.2-5.2,4.4-5.8,6.8,0,.2-.5,3.5-.4,3.5h.1c-.4.7-.8,1.4-1.3,2.2-.8,1.5-1.7,3.1-2.5,5s-1.8,4.1-2.5,6.2a47.38,47.38,0,0,0-1.8,7.2v.1c-.1-.8-.6-3-.6-3.1-.7-2.3-3.5-6.3-6.2-6.3a3.16,3.16,0,0,0-3.1,3.3v.3c.2,1.9,1.9,3.5,3.4,4.5,1.7,1.1,6.1,1.6,6.5,1.6a63.39,63.39,0,0,0-.4,7.6c0,1.5.1,3,.1,4.5-.1-.7-.3-1.3-.3-1.4-.7-2.3-3.5-6.3-6.2-6.3a3.1,3.1,0,0,0-3.1,3.3v.3c.2,1.9,1.9,3.5,3.4,4.5s5.3,1.5,6.3,1.6c0,.6.1,1.1.1,1.7.2,2.7.3,5.5.4,8.1v2.8c-.1-.6-.2-1.1-.2-1.2-.7-2.3-3.5-6.3-6.2-6.3a3.16,3.16,0,0,0-3.1,3.3v.3c.2,1.9,1.9,3.5,3.4,4.5s4.9,1.4,6.1,1.6a25.28,25.28,0,0,1-.1,2.8c-.1.6-.1,1.2-.2,1.9a12.25,12.25,0,0,0-.2,1.9c-.2,1.2-.4,2.4-.6,3.5a18.92,18.92,0,0,1-.5,2.3c0-.9-.1-2.8-.1-2.9-.4-2.4-2.5-6.8-5.2-7.2a3.19,3.19,0,0,0-3.6,2.8v.3c-.1,1.9,1.3,3.8,2.7,4.9s5.6,2.5,6.1,2.6c-.3,1.2-.5,2.5-.8,3.6-.4,1.5-.7,2.9-1,4.2.4.3.9.8,1.5,1.2q.6-2.25,1.2-5.1c.3-1.3.5-2.6.8-4,1.4,0,2.7,0,4.1-.1a23.41,23.41,0,0,0,3.6,5.3c-.9.9-1.8,1.8-2.7,2.6-1.5,1.4-2.9,2.6-4.1,3.7a17.1,17.1,0,0,0,1.4,1.1c1.2-1.1,2.5-2.3,3.8-3.6l2.9-2.9c.4.3,3.9,2.7,5.9,3.1,1.8.3,4.1.2,5.5-1a3.27,3.27,0,0,0,.4-4.5h0c-.1-.1-.2-.2-.2-.3-2-1.8-6.8-.7-8.9.6-.1.1-1.4,1-2.1,1.6l1.2-1.3c.8-.9,1.6-1.8,2.5-2.7l1.2-1.4,1.2-1.5c.9-1.2,1.7-2.5,2.6-3.8.8.7,3.5,3.2,5.2,3.8s4,.9,5.6-.2a3.21,3.21,0,0,0,1-4.4h0c-.1-.1-.1-.2-.2-.3-1.7-2.1-6.6-1.7-8.8-.8-.1.1-1.7.9-2.5,1.4l1.5-2.4c1.4-2.3,2.7-4.8,4-7.1.4-.7.8-1.5,1.2-2.2.3.3,3.5,3.3,5.4,4,1.7.6,4,.9,5.6-.2a3.21,3.21,0,0,0,1-4.4h0c-.1-.1-.1-.2-.2-.3-1.7-2.1-6.6-1.7-8.8-.8-.2.1-2.4,1.3-2.9,1.6.9-1.6,1.8-3.2,2.8-4.7a64.24,64.24,0,0,1,4.2-6c.1.1,3.4,3.3,5.4,4,1.7.6,4,.9,5.6-.2a3.21,3.21,0,0,0,1-4.4h0c-.1-.1-.1-.2-.2-.3-1.7-2.1-6.6-1.7-8.8-.8-.2.1-2.6,1.4-3,1.6l.3-.3a42.59,42.59,0,0,1,5.3-5.1c1-.9,2.1-1.6,3.1-2.4.6.6,3.1,3.6,4.8,4.4s3.9,1.3,5.6.4a3.12,3.12,0,0,0,1.5-4.2h0c-.1-.1-.1-.2-.2-.3-1.5-2.3-6.4-2.4-8.7-1.8a23.29,23.29,0,0,0-2.3.9,17,17,0,0,0,1.4-1c1.7-1.1,3.4-2,4.8-2.9a17.09,17.09,0,0,1,2.3-1.2c.9.4,4.5,1.8,6.3,1.7s4.1-.6,5.2-2.2a3.13,3.13,0,0,0-.7-4.5Z"/><path class="cls-8" d="M410.61,253.3c1.5,1.6,5.9,3.3,5.9,3.3s.3-3.3.3-3.5c-.1-2.4-1.7-7-4.3-7.8a3.28,3.28,0,0,0-3.9,2.3.76.76,0,0,1-.1.4C408.21,250,409.41,252,410.61,253.3Z"/><path class="cls-8" d="M279.41,381.3s-2.5,3.2-2.7,3.4c-1.6,2.6-3.1,8.5-.8,11.1a4,4,0,0,0,5.6.3h0l.4-.4c1.6-1.8,1.8-4.7,1.4-6.9C282.81,386.2,279.41,381.3,279.41,381.3Z"/><path class="cls-8" d="M254.51,394.2c3,1.7,8.5-1,10.7-3.1.2-.2,2.9-3.3,2.8-3.3h0c.9-.4,1.8-.9,2.8-1.4,1.9-1,3.9-2.1,6.1-3.5a54.65,54.65,0,0,0,6.8-4.7,50.78,50.78,0,0,0,6.8-6.3l.1-.1c-.4.9-1.5,3.5-1.5,3.7-.8,2.9-.7,9,2.1,10.9a4,4,0,0,0,5.5-1.2h0a.76.76,0,0,0,.2-.4c1.1-2.1.5-5-.5-7-1.1-2.3-5.3-5.9-5.6-6.2a60.26,60.26,0,0,0,5.7-7.6c1-1.5,2-3.1,2.9-4.7-.3.8-.6,1.5-.6,1.6-.8,2.9-.7,9,2.1,10.9a4,4,0,0,0,5.5-1.2h0a.76.76,0,0,0,.2-.4c1.1-2.1.5-5-.5-7s-4.5-5.2-5.5-6l1.1-1.9c1.7-3,3.4-5.9,5.2-8.8.6-1,1.3-2,1.9-3a13.32,13.32,0,0,1-.6,1.4c-.8,2.9-.7,9,2.1,10.9a4,4,0,0,0,5.5-1.2h0a.76.76,0,0,0,.2-.4c1.1-2.1.5-5-.5-7s-4.2-4.9-5.3-5.9c.7-1,1.4-2,2.1-2.9.5-.6.9-1.2,1.5-1.8l1.5-1.8c1-1.1,2.1-2.2,3.1-3.2l2.1-2.1c-.6,1-1.8,3-1.9,3.1a16.14,16.14,0,0,0-1.1,7.8,6.89,6.89,0,0,1-.3.8,4.11,4.11,0,0,0,2.7,5h.1a4.33,4.33,0,0,0,.5.1c3.4.5,7.5-4,8.9-6.7.1-.2.7-2,1.1-3.2-.1.7-.3,1.4-.4,2.2-.2,1.5-.5,2.9-.7,4.5-.1.8-.2,1.5-.3,2.3s-.1,1.6-.2,2.4c-.1,1.9-.1,3.8-.1,5.7-1.3-.2-5.9-.9-8.1-.4s-4.8,1.9-5.8,4.1a4,4,0,0,0,1.9,5.3h0c.1.1.3.1.4.2,3.2,1,8-2.8,9.8-5.3.1-.2,1.1-2.1,1.7-3.1,0,1.2,0,2.3.1,3.5.2,3.4.5,6.8.8,10.2.1,1,.2,2.1.2,3.1-.5-.1-5.9-1-8.4-.4-2.2.6-4.8,1.9-5.8,4.1a4,4,0,0,0,2,5.3c.1.1.3.1.4.2,3.2,1,8-2.8,9.8-5.3.1-.2,1.6-3,2-3.7.2,2.3.3,4.6.4,6.9a70.72,70.72,0,0,1-.3,9.2c-.2,0-5.9-1.1-8.4-.4-2.2.6-4.8,1.9-5.8,4.1a4,4,0,0,0,1.9,5.3h0c.1.1.3.1.4.2,3.2,1,8-2.8,9.8-5.3.1-.2,1.7-3.2,2-3.7v.5a53.41,53.41,0,0,1-2,9c-.5,1.6-1,3.1-1.6,4.6-1-.3-5.8-1.6-8.1-1.3s-5,1.4-6.2,3.4a4.13,4.13,0,0,0,1.3,5.5h0c.1.1.3.1.4.2,3.1,1.3,8.3-1.9,10.3-4.2.1-.1,1.1-1.5,1.8-2.5-.3.7-.5,1.4-.8,2-1,2.4-2.1,4.5-3,6.3-.6,1-1.1,2-1.6,2.9-1.2.2-5.9,1.2-7.8,2.6s-3.8,3.5-3.9,5.9a4.09,4.09,0,0,0,3.7,4.3h.5c3.4-.2,6.5-5.5,7.2-8.5a35.56,35.56,0,0,0,.5-4.3h.5c.5-.8,1-1.7,1.6-2.7,1-1.8,2.1-3.9,3.2-6.3a72.82,72.82,0,0,0,3.1-7.7,53.76,53.76,0,0,0,2.2-9v-.1c.2,1,.7,3.7.8,3.9.9,2.9,4.4,7.9,7.8,7.9a4,4,0,0,0,3.9-4.1h0v-.5c-.2-2.4-2.4-4.4-4.3-5.6-2.2-1.3-7.7-2-8.1-2a59.88,59.88,0,0,0,.5-9.5c0-1.8-.1-3.7-.1-5.6a14.68,14.68,0,0,0,.4,1.7c.9,2.9,4.4,7.9,7.8,7.9a4,4,0,0,0,3.9-4.1h0v-.5c-.2-2.4-2.4-4.4-4.3-5.6s-6.6-1.9-7.9-2c0-.7-.1-1.4-.1-2.1l-.6-10.2v-3.5c.1.8.3,1.4.3,1.5.9,2.9,4.4,7.9,7.8,7.9a4,4,0,0,0,3.9-4.1h0v-.5c-.2-2.4-2.4-4.4-4.3-5.6s-6.2-1.8-7.6-2c0-1.2.1-2.4.1-3.5.1-.8.1-1.5.2-2.3s.2-1.6.3-2.3c.2-1.5.5-3,.8-4.4.2-1,.4-1.9.6-2.9a28.58,28.58,0,0,0,.2,3.7c.5,3,3.1,8.5,6.5,9a4,4,0,0,0,4.5-3.4v-.5c.1-2.4-1.7-4.7-3.4-6.2-1.9-1.6-7-3.1-7.7-3.2.3-1.6.7-3.1,1-4.5.4-1.9.9-3.6,1.3-5.2-.5-.4-1.1-1-1.8-1.6-.5,1.9-.9,4-1.5,6.4-.3,1.6-.7,3.3-1,5.1a43.49,43.49,0,0,0-5.1.2c-.9-2.4-4.1-6.2-4.5-6.7,1.1-1.1,2.3-2.2,3.3-3.2,1.9-1.8,3.6-3.3,5.1-4.7-.6-.4-1.1-.9-1.7-1.3-1.5,1.4-3.1,2.9-4.8,4.6-1.2,1.1-2.4,2.4-3.6,3.7-.5-.4-4.9-3.4-7.4-3.9-2.2-.4-5.2-.3-6.9,1.3a4,4,0,0,0-.5,5.6h0a1.38,1.38,0,0,1,.3.4c2.5,2.3,8.5.8,11.1-.7.1-.1,1.7-1.3,2.7-2-.5.5-1,1-1.5,1.6l-3.1,3.4-1.5,1.8c-.5.6-1,1.3-1.5,1.9-1.1,1.5-2.2,3.1-3.2,4.7-1-.9-4.4-4-6.5-4.8s-5.1-1.1-7.1.2a4,4,0,0,0-1.3,5.5h0a1.38,1.38,0,0,1,.3.4c2.2,2.6,8.3,2.1,11.1,1,.2-.1,2.1-1.1,3.2-1.7l-1.8,3c-1.7,2.9-3.3,5.9-5,9l-1.5,2.7c-.3-.3-4.3-4.1-6.7-5-2.1-.7-5.1-1.1-7.1.2a4,4,0,0,0-1.3,5.5h0a.52.52,0,0,1,.2.4c2.2,2.6,8.3,2.1,11.1,1,.2-.1,3-1.6,3.7-2-1.1,2-2.3,4-3.5,5.9a78.07,78.07,0,0,1-5.3,7.5c-.2-.1-4.3-4.1-6.8-5-2.1-.7-5.1-1.1-7.1.2a4,4,0,0,0-1.3,5.5h0a1.38,1.38,0,0,1,.3.4c2.2,2.6,8.3,2.1,11.1,1,.2-.1,3.2-1.7,3.7-2-.1.1-.2.3-.3.4a49.92,49.92,0,0,1-6.6,6.4c-1.3,1.1-2.6,2-3.9,3-.7-.8-3.9-4.5-6-5.6s-4.9-1.6-7-.5a3.91,3.91,0,0,0-1.9,5.3h0c.1.1.1.3.2.4,1.9,2.8,8,3,10.9,2.2.2,0,1.7-.7,2.9-1.1l-1.8,1.2c-2.1,1.4-4.2,2.6-6,3.6a27,27,0,0,1-2.9,1.5c-1.1-.5-5.6-2.2-7.9-2.1s-5.1.8-6.5,2.8A3.93,3.93,0,0,0,254.51,394.2Z"/><path class="cls-8" d="M334.21,406.2c-1.8-1.9-7.4-4.2-7.4-4.2s-.4,4.1-.4,4.4c.1,3,2.1,8.8,5.4,9.7a4.16,4.16,0,0,0,4.9-2.9h0c0-.2.1-.3.1-.5C337.31,410.4,335.81,407.9,334.21,406.2Z"/></g><rect class="cls-9" x="58.71" y="76.2" width="358.7" height="288.2"/><path class="cls-9" d="M370.71,327.5H326a4.44,4.44,0,0,1-4.4-4.4V271.8"/><path class="cls-9" d="M398.91,221.3V323.1a4.44,4.44,0,0,1-4.4,4.4h-19.4"/><path class="cls-9" d="M321.61,268.4V190.7a4.44,4.44,0,0,1,4.4-4.4h68.5a4.44,4.44,0,0,1,4.4,4.4h0v27.8"/><path class="cls-9" d="M398.91,190.7v23.7h-77.3V190.7a4.44,4.44,0,0,1,4.4-4.4h68.5a4.37,4.37,0,0,1,4.4,4.4Z"/><rect class="cls-9" x="58.71" y="76.2" width="358.7" height="97.6"/><ellipse class="cls-10" cx="388.6" cy="142.49" rx="8.5" ry="8.4" transform="translate(-22.81 97.18) rotate(-13.85)"/><circle class="cls-8" cx="363.21" cy="137.8" r="1.1"/><path class="cls-8" d="M368.71,137.8a1.1,1.1,0,1,0-1.1,1.1,1.11,1.11,0,0,0,1.1-1.1Z"/><path class="cls-8" d="M373.21,137.8a1.15,1.15,0,0,0-2.3.1A1.11,1.11,0,0,0,372,139a1.29,1.29,0,0,0,1.2-1.2Z"/><path class="cls-8" d="M364.31,142.4a1.1,1.1,0,1,0-1.1,1.1h0a1.11,1.11,0,0,0,1.1-1.1Z"/><path class="cls-8" d="M368.71,142.4a1.1,1.1,0,1,0-1.1,1.1,1.11,1.11,0,0,0,1.1-1.1Z"/><path class="cls-8" d="M373.21,142.4a1.1,1.1,0,1,0-1.1,1.1,1.11,1.11,0,0,0,1.1-1.1Z"/><path class="cls-8" d="M364.31,147a1.1,1.1,0,1,0-1.1,1.1h0a1.11,1.11,0,0,0,1.1-1.1Z"/><path class="cls-8" d="M368.71,147a1.1,1.1,0,1,0-1.1,1.1,1.11,1.11,0,0,0,1.1-1.1Z"/><path class="cls-8" d="M373.21,147a1.1,1.1,0,1,0-1.1,1.1,1.11,1.11,0,0,0,1.1-1.1Z"/><path class="cls-9" d="M310,145.8a12.79,12.79,0,0,1-12.2,8.9H181.61"/><path class="cls-9" d="M207.21,129.1h90.7a12.82,12.82,0,0,1,12.8,12.8h0"/><path class="cls-9" d="M175.21,154.7h-60.6a12.82,12.82,0,0,1-12.8-12.8h0a12.82,12.82,0,0,1,12.8-12.8h88.1"/><line class="cls-11" x1="278.51" y1="135" x2="278.51" y2="147"/><line class="cls-12" x1="269.21" y1="135.1" x2="258.01" y2="146.3"/><line class="cls-12" x1="258.01" y1="135.1" x2="269.21" y2="146.3"/><path class="cls-13" d="M298,146.7h0a1.06,1.06,0,0,1-1.4.1l-4.6-4.2.9-1.1,4.9,3.8A1.08,1.08,0,0,1,298,146.7Z"/><path class="cls-13" d="M286.21,136.9a4.33,4.33,0,1,0,6.1-.6,4.31,4.31,0,0,0-6.1.6Zm6.2,5.1a3.69,3.69,0,1,1-.5-5.2,3.67,3.67,0,0,1,.5,5.2Z"/><rect class="cls-14" x="406.41" y="76.2" width="10.9" height="288.2"/><rect class="cls-15" x="406.41" y="133.7" width="10.9" height="28.3"/><rect class="cls-16" x="58.71" y="76.2" width="358.7" height="33.7"/><rect class="cls-13" x="120.11" y="76.2" width="297.3" height="11.9"/><line class="cls-17" x1="410.51" y1="79.2" x2="404.21" y2="85.5"/><line class="cls-17" x1="404.21" y1="79.2" x2="410.51" y2="85.5"/><rect class="cls-18" x="387.61" y="79.8" width="4.6" height="4.6"/><rect class="cls-18" x="385.41" y="80.9" width="4.6" height="4.6"/><line class="cls-17" x1="371.01" y1="82.6" x2="363.01" y2="82.6"/><line class="cls-17" x1="126.41" y1="79" x2="126.41" y2="86.2"/><line class="cls-17" x1="130.01" y1="82.6" x2="122.81" y2="82.6"/><line class="cls-12" x1="104.21" y1="193.9" x2="178.01" y2="193.9"/><line class="cls-12" x1="104.21" y1="200.3" x2="197.91" y2="200.3"/><line class="cls-12" x1="104.21" y1="207.9" x2="297.51" y2="207.9"/><line class="cls-12" x1="104.21" y1="215" x2="297.51" y2="215"/><line class="cls-12" x1="104.21" y1="222" x2="297.51" y2="222"/><line class="cls-12" x1="104.21" y1="238.4" x2="178.01" y2="238.4"/><line class="cls-12" x1="104.21" y1="244.9" x2="197.91" y2="244.9"/><line class="cls-12" x1="104.21" y1="252.5" x2="297.51" y2="252.5"/><line class="cls-12" x1="104.21" y1="259.5" x2="297.51" y2="259.5"/><line class="cls-12" x1="104.21" y1="266.5" x2="297.51" y2="266.5"/><line class="cls-12" x1="104.21" y1="282.9" x2="178.01" y2="282.9"/><line class="cls-12" x1="104.21" y1="289.4" x2="197.91" y2="289.4"/><line class="cls-12" x1="104.21" y1="297" x2="297.51" y2="297"/><line class="cls-12" x1="104.21" y1="304" x2="297.51" y2="304"/><line class="cls-12" x1="104.21" y1="311.1" x2="297.51" y2="311.1"/><line class="cls-12" x1="104.21" y1="327.5" x2="178.01" y2="327.5"/><line class="cls-12" x1="104.21" y1="333.9" x2="197.91" y2="333.9"/><line class="cls-12" x1="104.21" y1="341.5" x2="297.51" y2="341.5"/><line class="cls-12" x1="104.21" y1="348.5" x2="297.51" y2="348.5"/><line class="cls-12" x1="104.21" y1="355.6" x2="297.51" y2="355.6"/><line class="cls-12" x1="326.61" y1="222.7" x2="361.41" y2="222.7"/><line class="cls-12" x1="326.61" y1="227.3" x2="361.41" y2="227.3"/><line class="cls-12" x1="326.61" y1="232" x2="394.51" y2="232"/><line class="cls-12" x1="326.61" y1="236.7" x2="394.51" y2="236.7"/><line class="cls-12" x1="326.61" y1="241.4" x2="394.51" y2="241.4"/><line class="cls-12" x1="326.61" y1="246.1" x2="394.51" y2="246.1"/><line class="cls-12" x1="326.61" y1="250.7" x2="394.51" y2="250.7"/><line class="cls-12" x1="326.61" y1="255.4" x2="394.51" y2="255.4"/><line class="cls-12" x1="326.61" y1="260.1" x2="394.51" y2="260.1"/><line class="cls-12" x1="326.61" y1="264.8" x2="394.51" y2="264.8"/><line class="cls-12" x1="326.61" y1="275.8" x2="361.41" y2="275.8"/><line class="cls-12" x1="326.61" y1="280.5" x2="361.41" y2="280.5"/><line class="cls-12" x1="326.61" y1="285.2" x2="394.51" y2="285.2"/><line class="cls-12" x1="326.61" y1="289.8" x2="394.51" y2="289.8"/><line class="cls-12" x1="326.61" y1="294.5" x2="394.51" y2="294.5"/><line class="cls-12" x1="326.61" y1="299.2" x2="394.51" y2="299.2"/><line class="cls-12" x1="326.61" y1="303.9" x2="394.51" y2="303.9"/><line class="cls-12" x1="326.61" y1="308.6" x2="394.51" y2="308.6"/><line class="cls-12" x1="326.61" y1="313.2" x2="394.51" y2="313.2"/><line class="cls-12" x1="326.61" y1="317.9" x2="394.51" y2="317.9"/><g id="freepik--Floor--inject-13"><line class="cls-12" x1="425.51" y1="431.9" x2="438.01" y2="431.9"/><line class="cls-12" x1="99.41" y1="431.9" x2="417.11" y2="431.9"/><line class="cls-12" x1="29.21" y1="431.9" x2="91.11" y2="431.9"/></g><g class="cls-19"><path class="cls-20" d="M115.4,137.58h3a3.12,3.12,0,0,1,1.46.35,2.65,2.65,0,0,1,1,1,2.71,2.71,0,0,1,0,2.8,2.73,2.73,0,0,1-1,1,3.11,3.11,0,0,1-1.46.34h-1.69v3.45H115.4Zm3.09,4.14a1.49,1.49,0,0,0,1.1-.42,1.42,1.42,0,0,0,.41-1,1.41,1.41,0,0,0-.41-1,1.46,1.46,0,0,0-1.1-.43h-1.73v2.85Z"/><path class="cls-20" d="M122.6,137.58h1.33V140l-.07,1h.07a2.08,2.08,0,0,1,.82-.76,2.38,2.38,0,0,1,1.18-.3,2.21,2.21,0,0,1,1.76.69,2.65,2.65,0,0,1,.61,1.84v4H127v-3.82a1.46,1.46,0,0,0-.39-1.1,1.37,1.37,0,0,0-1-.37,1.46,1.46,0,0,0-.83.26,1.84,1.84,0,0,0-.6.72,2.16,2.16,0,0,0-.22.94v3.37H122.6Z"/><path class="cls-20" d="M131.09,146.22a3.12,3.12,0,0,1-1.18-1.21,3.69,3.69,0,0,1,0-3.42,3.19,3.19,0,0,1,1.18-1.21,3.3,3.3,0,0,1,1.71-.44,3.34,3.34,0,0,1,1.7.44,3.14,3.14,0,0,1,1.18,1.22,3.67,3.67,0,0,1,0,3.41,3,3,0,0,1-1.17,1.21,3.25,3.25,0,0,1-1.71.44A3.3,3.3,0,0,1,131.09,146.22Zm2.69-1.05a1.9,1.9,0,0,0,.72-.74,2.42,2.42,0,0,0,0-2.26,1.9,1.9,0,0,0-.72-.74,1.82,1.82,0,0,0-1-.26,1.87,1.87,0,0,0-1,.26,1.92,1.92,0,0,0-.73.74,2.5,2.5,0,0,0,0,2.26,1.92,1.92,0,0,0,.73.74,1.87,1.87,0,0,0,1,.26A1.82,1.82,0,0,0,133.78,145.17Z"/><path class="cls-20" d="M137.21,140.14h1.26V141h.08a2,2,0,0,1,.82-.76,2.38,2.38,0,0,1,1.18-.3,2.17,2.17,0,0,1,1.73.67,2.72,2.72,0,0,1,.6,1.86v4h-1.33v-3.82a1.5,1.5,0,0,0-.37-1.11,1.41,1.41,0,0,0-1-.36,1.39,1.39,0,0,0-.84.26,1.77,1.77,0,0,0-.57.69,2.3,2.3,0,0,0-.2.94v3.4h-1.34Z"/><path class="cls-20" d="M145.64,146.23a3.11,3.11,0,0,1-1.16-1.2,3.77,3.77,0,0,1,0-3.4,3.19,3.19,0,0,1,1.13-1.23,2.89,2.89,0,0,1,1.62-.46,3.2,3.2,0,0,1,1.65.41,2.74,2.74,0,0,1,1.06,1.15,3.72,3.72,0,0,1,.37,1.66,2.63,2.63,0,0,1,0,.43h-4.89A2.05,2.05,0,0,0,146,145a1.9,1.9,0,0,0,1.3.49,1.84,1.84,0,0,0,1-.28,2.07,2.07,0,0,0,.7-.74l1.1.54a3.08,3.08,0,0,1-2.88,1.67A3.17,3.17,0,0,1,145.64,146.23Zm3.33-3.65a1.69,1.69,0,0,0-.22-.69,1.61,1.61,0,0,0-.58-.58,1.82,1.82,0,0,0-.94-.23,1.67,1.67,0,0,0-1.13.41,2.07,2.07,0,0,0-.64,1.09Z"/><path class="cls-20" d="M154.65,137.58h3a3.12,3.12,0,0,1,1.46.35,2.65,2.65,0,0,1,1.05,1,2.65,2.65,0,0,1,0,2.8,2.73,2.73,0,0,1-1.05,1,3.11,3.11,0,0,1-1.46.34H156v3.45h-1.37Zm3.09,4.14a1.49,1.49,0,0,0,1.1-.42,1.42,1.42,0,0,0,.41-1,1.41,1.41,0,0,0-.41-1,1.46,1.46,0,0,0-1.1-.43H156v2.85Z"/><path class="cls-20" d="M161.78,140.14h1.27v.93h.07a1.88,1.88,0,0,1,.73-.81,2.08,2.08,0,0,1,1.11-.32,1.86,1.86,0,0,1,.77.14v1.37a2.43,2.43,0,0,0-1-.22,1.46,1.46,0,0,0-1.17.55,2,2,0,0,0-.46,1.33v3.35h-1.34Z"/><path class="cls-20" d="M167.65,146.22a3.05,3.05,0,0,1-1.18-1.21,3.69,3.69,0,0,1,0-3.42,3.12,3.12,0,0,1,1.18-1.21,3.3,3.3,0,0,1,1.71-.44,3.34,3.34,0,0,1,1.7.44,3.14,3.14,0,0,1,1.18,1.22,3.67,3.67,0,0,1,0,3.41,3,3,0,0,1-1.17,1.21,3.25,3.25,0,0,1-1.71.44A3.3,3.3,0,0,1,167.65,146.22Zm2.69-1.05a1.9,1.9,0,0,0,.72-.74,2.42,2.42,0,0,0,0-2.26,1.9,1.9,0,0,0-.72-.74,1.82,1.82,0,0,0-1-.26,1.87,1.87,0,0,0-1,.26,1.92,1.92,0,0,0-.73.74,2.5,2.5,0,0,0,0,2.26,1.92,1.92,0,0,0,.73.74,1.87,1.87,0,0,0,1,.26A1.82,1.82,0,0,0,170.34,145.17Z"/><path class="cls-20" d="M173,140.14h1.49l1.77,4.6h.07l1.81-4.6h1.46L177,146.46h-1.34Z"/><path class="cls-20" d="M180.61,138.94a.87.87,0,0,1-.27-.64.83.83,0,0,1,.27-.63.9.9,0,0,1,1.54.63.9.9,0,0,1-.26.64.89.89,0,0,1-1.28,0Zm0,1.2h1.34v6.32h-1.34Z"/><path class="cls-20" d="M184.67,146.23a3,3,0,0,1-1.09-1.19,3.81,3.81,0,0,1-.4-1.74,3.77,3.77,0,0,1,.4-1.73,3.09,3.09,0,0,1,1.09-1.2,2.87,2.87,0,0,1,1.55-.43,2.44,2.44,0,0,1,1.23.3,2.27,2.27,0,0,1,.81.75h.07l-.07-.88v-2.53h1.33v8.88h-1.26v-.84h-.07a2.17,2.17,0,0,1-.81.74,2.44,2.44,0,0,1-1.23.3A2.87,2.87,0,0,1,184.67,146.23Zm2.69-1.06a2.05,2.05,0,0,0,.71-.75,2.54,2.54,0,0,0,0-2.24,2.05,2.05,0,0,0-.71-.75,1.88,1.88,0,0,0-.94-.26,1.81,1.81,0,0,0-.93.26,2,2,0,0,0-.71.75,2.46,2.46,0,0,0,0,2.24,2,2,0,0,0,.71.75,1.72,1.72,0,0,0,.93.26A1.78,1.78,0,0,0,187.36,145.17Z"/><path class="cls-20" d="M192.33,146.23a3.09,3.09,0,0,1-1.15-1.2,3.51,3.51,0,0,1-.42-1.72,3.6,3.6,0,0,1,.41-1.68,3.16,3.16,0,0,1,1.12-1.23,2.92,2.92,0,0,1,1.62-.46,3.2,3.2,0,0,1,1.65.41,2.76,2.76,0,0,1,1.07,1.15,3.71,3.71,0,0,1,.36,1.66c0,.17,0,.31,0,.43h-4.89a2,2,0,0,0,.64,1.39,1.92,1.92,0,0,0,1.31.49,1.86,1.86,0,0,0,1-.28,2,2,0,0,0,.69-.74l1.11.54a3.35,3.35,0,0,1-1.16,1.23,3.26,3.26,0,0,1-1.72.44A3.21,3.21,0,0,1,192.33,146.23Zm3.33-3.65a1.55,1.55,0,0,0-.22-.69,1.47,1.47,0,0,0-.58-.58,1.78,1.78,0,0,0-.93-.23,1.68,1.68,0,0,0-1.14.41,2.13,2.13,0,0,0-.64,1.09Z"/><path class="cls-20" d="M198.23,140.14h1.27v.93h.07a1.82,1.82,0,0,1,.73-.81,2.08,2.08,0,0,1,1.11-.32,1.89,1.89,0,0,1,.77.14v1.37a2.43,2.43,0,0,0-1-.22,1.46,1.46,0,0,0-1.17.55,2,2,0,0,0-.46,1.33v3.35h-1.34Z"/><path class="cls-20" d="M203.49,146.19a2.48,2.48,0,0,1-1-1.23l1.2-.52a1.72,1.72,0,0,0,.64.78,1.63,1.63,0,0,0,.93.26,1.86,1.86,0,0,0,.89-.19.62.62,0,0,0,.36-.58.64.64,0,0,0-.3-.55,3.23,3.23,0,0,0-.95-.35l-.76-.17a2.78,2.78,0,0,1-1.25-.66,1.58,1.58,0,0,1-.5-1.19,1.52,1.52,0,0,1,.33-1,2.09,2.09,0,0,1,.88-.65,3,3,0,0,1,1.21-.23,3.26,3.26,0,0,1,1.56.35,2.09,2.09,0,0,1,1,1l-1.16.52a1.37,1.37,0,0,0-1.35-.75,1.41,1.41,0,0,0-.79.2.56.56,0,0,0-.31.49q0,.56,1,.81l.92.22a3,3,0,0,1,1.41.71,1.55,1.55,0,0,1,.48,1.16,1.74,1.74,0,0,1-.34,1.05,2.1,2.1,0,0,1-.94.7,3.29,3.29,0,0,1-1.31.25A3.14,3.14,0,0,1,203.49,146.19Z"/></g><g id="freepik--Character--inject-13"><path class="cls-9" d="M236.51,412.4s10.7.6,13.2,0,7.6-4.7,8.2-1.6-2.8,7.6-5,10.1-11,4.7-13.5,6-6.3,4.4-9.4,4.4-5-10.4-5-10.4,9.4-5.7,12-9.8"/><path class="cls-9" d="M257.41,409.9c-6.4,11.8-17,13.9-17,13.9L227,428.3c.8,1.7,1.8,3.1,2.9,3.1,3.1,0,6.9-3.1,9.4-4.4s11.3-3.5,13.5-6,5.7-6.9,5-10.1A1.53,1.53,0,0,0,257.41,409.9Z"/><path class="cls-9" d="M123,404.4s-8.2,9.3-8.9,12,5.6,6.4,7.2,7.5a55.72,55.72,0,0,0,13.8,6.9c1.7.6,10.3,2.6,9.2-1.6-.8-3.1-7.4-6.7-8.2-8.6s-2.2-5.4-2.2-5.4Z"/><path class="cls-9" d="M121.31,424a55.72,55.72,0,0,0,13.8,6.9c1.5.5,8.1,2.1,9.1-.3-3-.2-8.8-1.1-16.1-5.3a91.7,91.7,0,0,1-13.9-9.4c-.1.2-.1.3-.2.5C113.41,419.1,119.71,422.9,121.31,424Z"/><path class="cls-13" d="M145.21,287.8l3.4,25.2,2.9,53.1s-8.8,8.5-13.9,14.2-16.5,25.4-16.5,25.4a13.29,13.29,0,0,0,6.6,8.3c5.6,3.4,8.7,2.9,8.7,2.9l4.1-7.1,1.5-3.2s32.9-31.7,33.5-35.8,3.9-48.4,3.9-48.4l25.7,37.7s3.2,24.9,5.7,30.9,12.9,25.5,12.9,25.5l1.3,4.4a8.15,8.15,0,0,0,7.9-1.6,33.75,33.75,0,0,0,5.7-6.8l-3.5-4.2-.6-2.8s-8.5-50.7-10.4-56.7S199,291,199,291l-5-13.9s-4.7,3.1-19.2,7.5S145.21,287.8,145.21,287.8Z"/><path class="cls-16" d="M177.21,293.2c10.6-4.8,15.6-9.6,17.9-12.8l-1.2-3.3s-4.7,3.1-19.2,7.5a90.24,90.24,0,0,1-29.1,3.2l-.5.1.9,6.7A40.22,40.22,0,0,0,177.21,293.2Z"/><path class="cls-16" d="M139.61,214.2l-24.8,18.4,28.1,52.7a7.88,7.88,0,0,0,2.8,5c2.6,2.1,19.6,1.7,25.7-.2a102.9,102.9,0,0,0,18.2-8.3c2.6-1.6,6.1-5.2,5.2-8.3a24.42,24.42,0,0,0-2.6-5.7l-5-14.4s19.6,1.2,22.2,1.2S221,232,221,232s-2.6-.2-3.5-1.9a14,14,0,0,1-1.3-3.6,84.56,84.56,0,0,1-8.5,4.3c-5,2.1-10.2,2.6-12.3,1.6s-14.6-12.3-17.5-15.8-3.3-5-4.2-5-18.4,1.2-20.6,1.2S139.61,214.2,139.61,214.2Z"/><path class="cls-16" d="M217.61,230a16.29,16.29,0,0,1-1.4-3.4l-.7.9s-3.8,2.8-2.8,6.9c.6,2.5,3.5,3.4,6.1,3.6,1.4-3.4,2.4-5.9,2.4-5.9S218.51,231.7,217.61,230Z"/><line class="cls-12" x1="177.51" y1="225.2" x2="176.21" y2="221.5"/><line class="cls-12" x1="187.31" y1="253.4" x2="178.61" y2="228.4"/><path class="cls-13" d="M139.81,304.5h0a13.34,13.34,0,0,1-1.8-18.8l.3-.3,96.8-111.1,14.8,12.2-91.1,115.8a13.34,13.34,0,0,1-18.7,2.3h0Z"/><path class="cls-9" d="M209.41,203.9l-71.1,81.6a13.35,13.35,0,1,0,20.6,17h0l67.2-85.5Z"/><path class="cls-13" d="M316,91.9a61.08,61.08,0,1,0,8.1,86h0A61.07,61.07,0,0,0,316,91.9Zm-72.4,87.3a52.27,52.27,0,1,1,73.6-6.9,52.32,52.32,0,0,1-73.6,6.9Z"/><path class="cls-9" d="M221.11,231.9l9-14.2s3.3-6.4,4.2-7.6,4.7-2.6,1.6-2.6-4,1.9-4,1.9v-5c0-1.4,0-4.9-1.9-4.7s-1.2,3-1.6,5.7c-.2,1.2-1.5,6.6-1.5,6.6l-2-8a1.58,1.58,0,0,0-1.8-1.2c-.4.1-.7.2-.7.7.3,2.1.7,4.3,1.2,6.4l-.7,4s-1-6.2-2.4-7.9c-.6-.7-1.8.6-1.3,1.8s.7,7.8.7,7.8l-.2,2.8s-1.6-2.8-2.6-4.2-2.4-.7-1.7,1.4,2.4,5.7,2.4,5.7l-1.7,5.2C216.21,226.4,213.51,234.5,221.11,231.9Z"/><line class="cls-12" x1="231.91" y1="209.5" x2="230.31" y2="214.2"/><path class="cls-16" d="M119.31,229.7s-5.6,1.5-5.6,3.9,0,51.5-.2,53.1S165,281,165,281l1.2-8-31.6-6.4-.2-22.7"/><path class="cls-16" d="M160.91,272l-.2,9.5.2.1,4.1-.6,1.2-8Z"/><path class="cls-9" d="M166.11,273s6.6-8.5,9.4-8.5,7.1.2,8,.2,3.1-.5,1.9,1.2-5.2,1.4-5.2,1.4l5.3,2.9a2.65,2.65,0,0,1,1.1,3.6h0c-.1.2-.3.4-.4.6h0c-1.2,1.2-4.3,1.2-4.3,1.2s-3.3,5.4-5.4,5.9-11.1-1.6-11.1-1.6Z"/><polygon class="cls-16" points="160.51 229.7 161.11 214.2 155.11 212.2 156.11 218.5 160.51 229.7"/><polygon class="cls-16" points="161.11 214.2 165.61 223.3 160.91 222.9 161.11 214.2"/><path class="cls-9" d="M163.91,202.4c-2,.6-6.8,12.3-6.8,12.3l3.4,15.1-5.4-7.6-1.5-7.3-12.8-5.3.2-8.4a18.52,18.52,0,0,1-3.3-2.1,21.33,21.33,0,0,1-5.7-5.9c-2.8-4.8-6.8-12.2-.6-20.3,6-7.8,12.2-8.2,19-8.6h.7s7.8,4.8,8,7.2,1.2,5.8,3.4,7.2,5.2-.2,5.2,2.8a7.43,7.43,0,0,1-2.4,5s2,9.2,3,12.3S166,201.8,163.91,202.4Z"/><path class="cls-8" d="M158,178.7c.5.8.6,1.6.3,1.9s-1.1-.2-1.6-1-.6-1.6-.3-1.9S157.51,177.9,158,178.7Z"/><path class="cls-12" d="M153.31,178.3s.2-3.4,3.4-3.4"/><path class="cls-12" d="M162.51,190.3s-5.4,1.2-6.4-2"/><path class="cls-21" d="M149.31,171.2c1.8,1.8-4.8,6.2-5.8,8.2s.8,5.2,1,6.6-4.6,5.4-4.6,5.4l-1.8,1.8,1.4,5.6s-.6,0-1.7-.1a21.33,21.33,0,0,1-5.7-5.9c-2.8-4.8-6.8-12.2-.6-20.3,6-7.8,12.2-8.2,19-8.6-1.2.8-2.6,1.1-3.5,2C145.61,167.2,147.51,169.4,149.31,171.2Z"/><path class="cls-9" d="M142.21,192.3s-3-4.6-6.6-2,3,8.6,4.2,9.6,5-2.8,5-2.8a9.26,9.26,0,0,0,6,3.8"/><path class="cls-13" d="M145.91,167.6s-8.6,9.6-10.9,14.1a66.09,66.09,0,0,0-3.8,9.6s-4.4-.4-7-3.2.2-13.9,5.2-19.3a40,40,0,0,1,10.9-8.2s-6.4.2-4-1.6,8.4-2.6,12.5-.6a4.2,4.2,0,0,1,2.4,5.5v.1Z"/><polygon class="cls-16" points="139.61 208.2 135.51 217 151.71 226.3 154.41 214.1 139.61 208.2"/></g></svg>